%TF.GenerationSoftware,KiCad,Pcbnew,5.1.10-88a1d61d58~88~ubuntu18.04.1*%
%TF.CreationDate,2021-11-10T22:11:19+07:00*%
%TF.ProjectId,MX8Mx_EVK_MIPI_CSI-TEKNIQUE_OCLEA_OS08A20-ADAPTER,4d58384d-785f-4455-964b-5f4d4950495f,rev?*%
%TF.SameCoordinates,Original*%
%TF.FileFunction,Copper,L2,Bot*%
%TF.FilePolarity,Positive*%
%FSLAX46Y46*%
G04 Gerber Fmt 4.6, Leading zero omitted, Abs format (unit mm)*
G04 Created by KiCad (PCBNEW 5.1.10-88a1d61d58~88~ubuntu18.04.1) date 2021-11-10 22:11:19*
%MOMM*%
%LPD*%
G01*
G04 APERTURE LIST*
%TA.AperFunction,ComponentPad*%
%ADD10C,4.400000*%
%TD*%
%TA.AperFunction,ComponentPad*%
%ADD11C,1.308000*%
%TD*%
%TA.AperFunction,ViaPad*%
%ADD12C,0.800000*%
%TD*%
%TA.AperFunction,Conductor*%
%ADD13C,0.250000*%
%TD*%
%TA.AperFunction,Conductor*%
%ADD14C,0.200000*%
%TD*%
%TA.AperFunction,Conductor*%
%ADD15C,0.350000*%
%TD*%
%TA.AperFunction,Conductor*%
%ADD16C,0.254000*%
%TD*%
%TA.AperFunction,Conductor*%
%ADD17C,0.100000*%
%TD*%
G04 APERTURE END LIST*
D10*
%TO.P,H4,1*%
%TO.N,N/C*%
X139646660Y-79181960D03*
%TD*%
%TO.P,H3,1*%
%TO.N,N/C*%
X139552680Y-113235740D03*
%TD*%
%TO.P,H2,1*%
%TO.N,N/C*%
X105514140Y-113238280D03*
%TD*%
%TO.P,H1,1*%
%TO.N,N/C*%
X105389680Y-79164180D03*
%TD*%
D11*
%TO.P,J1,S1*%
%TO.N,GND*%
X114119400Y-87893500D03*
%TO.P,J1,S2*%
X110879400Y-87893500D03*
%TO.P,J1,S3*%
X106879400Y-87893500D03*
%TO.P,J1,S4*%
X104849400Y-87893500D03*
%TO.P,J1,S5*%
X115119400Y-105693500D03*
%TO.P,J1,S6*%
X110879400Y-105693500D03*
%TO.P,J1,S7*%
X106879400Y-105693500D03*
%TO.P,J1,S8*%
X104849400Y-105693500D03*
%TD*%
D12*
%TO.N,GND*%
X104129840Y-95011240D03*
X104140000Y-92608400D03*
X104109520Y-99024440D03*
X104091740Y-103794560D03*
X104140000Y-90703400D03*
X104096820Y-101396800D03*
X124536200Y-89052400D03*
X117652800Y-89052400D03*
X115671600Y-89789000D03*
X125831600Y-99072700D03*
X129628900Y-92430600D03*
X138546840Y-90754200D03*
X138630660Y-99783900D03*
X138572240Y-96784160D03*
X138602720Y-98277680D03*
X138617960Y-101279960D03*
X117690900Y-92583000D03*
X117614700Y-99072700D03*
X125768100Y-105918000D03*
X129565400Y-105905300D03*
X117716300Y-83553300D03*
X122110500Y-83527900D03*
X122008900Y-105879900D03*
X125755400Y-83540600D03*
X129590800Y-83540600D03*
X133388100Y-83540600D03*
X133578600Y-105892600D03*
X117678200Y-105803700D03*
X132105400Y-103479600D03*
X129527300Y-101536500D03*
X122008900Y-101561900D03*
%TO.N,/CSI_DN0__SD_LVDS0_N*%
X134975600Y-97282000D03*
X108839400Y-90993500D03*
%TO.N,/CSI_DP0__SD_LVDS0_P*%
X134002780Y-98010980D03*
X107789400Y-91793500D03*
%TO.N,/CSI_DN1__SD_LVDS1_N*%
X134950200Y-98780600D03*
X107820460Y-93395800D03*
%TO.N,/CSI_DP1__SD_LVDS1_P*%
X134030720Y-99509580D03*
X108789400Y-94193500D03*
%TO.N,/CSI_nRST_1V8*%
X123957080Y-96593660D03*
X107789400Y-96593500D03*
%TO.N,/I2C_SDA_1V8*%
X124752100Y-97393760D03*
X108789400Y-97393500D03*
%TO.N,/I2C_SCL_1V8*%
X123916440Y-98176080D03*
X107789400Y-98193500D03*
%TO.N,/CSI_DN2__SD_LVDS2_N*%
X134975600Y-100279200D03*
X107797600Y-99794060D03*
%TO.N,/CSI_DP2__SD_LVDS2_P*%
X134053580Y-101013260D03*
X108789400Y-100593500D03*
%TO.N,/CSI_DN3__SD_LVDS3_N*%
X134975600Y-101777800D03*
X108789400Y-102193500D03*
%TO.N,/CSI_DP3__SD_LVDS3_P*%
X134048500Y-102511860D03*
X107772200Y-102997000D03*
%TO.N,/CSI_CLK_N__SPCLK_LVDS0_N*%
X138551920Y-103489760D03*
X130825240Y-87939880D03*
%TO.N,/CSI_CLK_P__SPCLK_LVDS0_P*%
X140187680Y-103784400D03*
X131907280Y-87045800D03*
%TO.N,+5V*%
X134937500Y-89001600D03*
X113253520Y-104404160D03*
%TO.N,/CLK_SI_3V3*%
X129626360Y-88950800D03*
X138516360Y-92232480D03*
%TO.N,/CSI_MCLK_1V8*%
X120904000Y-94907100D03*
X108789400Y-95793500D03*
%TD*%
D13*
%TO.N,GND*%
X129525100Y-92593500D02*
X129578100Y-92646500D01*
X117794700Y-92593500D02*
X129525100Y-92593500D01*
X115671600Y-89445700D02*
X115671600Y-89789000D01*
X114119400Y-87893500D02*
X115671600Y-89445700D01*
X104140760Y-101393500D02*
X104096820Y-101437440D01*
X107789400Y-101393500D02*
X104100120Y-101393500D01*
X115312700Y-101393500D02*
X107789400Y-101393500D01*
X118148100Y-103797100D02*
X131445000Y-103797100D01*
X115744500Y-101393500D02*
X118148100Y-103797100D01*
X104100120Y-101393500D02*
X104096820Y-101396800D01*
X115744500Y-101393500D02*
X104100120Y-101393500D01*
X131445000Y-103797100D02*
X131724400Y-103517700D01*
X117642640Y-99024440D02*
X117741700Y-99123500D01*
X104109520Y-99024440D02*
X117642640Y-99024440D01*
D14*
%TO.N,/CSI_DN0__SD_LVDS0_N*%
X133280110Y-92277611D02*
X131995999Y-90993500D01*
X131995999Y-90993500D02*
X108839400Y-90993500D01*
X134315120Y-97282000D02*
X133280110Y-96246990D01*
X134975600Y-97282000D02*
X134315120Y-97282000D01*
X133280110Y-96246990D02*
X133280110Y-92277611D01*
%TO.N,/CSI_DP0__SD_LVDS0_P*%
X109298300Y-91793500D02*
X109698290Y-91393510D01*
X107789400Y-91793500D02*
X109298300Y-91793500D01*
X109698290Y-91393510D02*
X131830310Y-91393510D01*
X131830310Y-91393510D02*
X132880100Y-92443300D01*
X132880100Y-96888300D02*
X132880100Y-96748600D01*
X134002780Y-98010980D02*
X132880100Y-96888300D01*
X132880100Y-92443300D02*
X132880100Y-96748600D01*
%TO.N,/CSI_DN1__SD_LVDS1_N*%
X109693890Y-93793490D02*
X109296200Y-93395800D01*
X129391590Y-93793490D02*
X109693890Y-93793490D01*
X130022600Y-94455701D02*
X130022600Y-94424500D01*
X109296200Y-93395800D02*
X107820460Y-93395800D01*
X130022600Y-94424500D02*
X129391590Y-93793490D01*
X130067010Y-94500111D02*
X130022600Y-94455701D01*
X130809920Y-98780600D02*
X130067010Y-98037690D01*
X134950200Y-98780600D02*
X130809920Y-98780600D01*
X130067010Y-98037690D02*
X130067010Y-94500111D01*
%TO.N,/CSI_DP1__SD_LVDS1_P*%
X129194700Y-94193500D02*
X108789400Y-94193500D01*
X129667000Y-94665800D02*
X129194700Y-94193500D01*
X129667000Y-98203379D02*
X129667000Y-94665800D01*
X134030720Y-99509580D02*
X130973201Y-99509580D01*
X130973201Y-99509580D02*
X129667000Y-98203379D01*
D13*
%TO.N,/CSI_nRST_1V8*%
X107839400Y-96643500D02*
X107789400Y-96593500D01*
D14*
X123956920Y-96593500D02*
X123957080Y-96593660D01*
X107789400Y-96593500D02*
X123956920Y-96593500D01*
%TO.N,/I2C_SDA_1V8*%
X108789400Y-97393500D02*
X124739660Y-97393500D01*
%TO.N,/I2C_SCL_1V8*%
X107789760Y-98193860D02*
X107789400Y-98193500D01*
X107789400Y-98193500D02*
X123815200Y-98193500D01*
%TO.N,/CSI_DN2__SD_LVDS2_N*%
X130934099Y-102568101D02*
X131483100Y-102019100D01*
X118538899Y-102568101D02*
X130934099Y-102568101D01*
X107797600Y-99794060D02*
X109242860Y-99794060D01*
X117814999Y-100644599D02*
X117814999Y-101844201D01*
X131483100Y-100647500D02*
X131851400Y-100279200D01*
X109242860Y-99794060D02*
X109533459Y-100084659D01*
X117255059Y-100084659D02*
X117814999Y-100644599D01*
X131851400Y-100279200D02*
X134975600Y-100279200D01*
X131483100Y-102019100D02*
X131483100Y-100647500D01*
X109533459Y-100084659D02*
X117255059Y-100084659D01*
X117814999Y-101844201D02*
X118538899Y-102568101D01*
%TO.N,/CSI_DP2__SD_LVDS2_P*%
X131946690Y-101250710D02*
X132184140Y-101013260D01*
X131946690Y-102121208D02*
X131946690Y-101250710D01*
X131099788Y-102968111D02*
X131946690Y-102121208D01*
X117373400Y-101968300D02*
X118373211Y-102968111D01*
X132184140Y-101013260D02*
X134053580Y-101013260D01*
X116989200Y-100593500D02*
X117373400Y-100977700D01*
X118373211Y-102968111D02*
X131099788Y-102968111D01*
X117373400Y-100977700D02*
X117373400Y-101968300D01*
X108789400Y-100593500D02*
X116989200Y-100593500D01*
%TO.N,/CSI_DN3__SD_LVDS3_N*%
X133464300Y-101777800D02*
X134975600Y-101777800D01*
X133146800Y-103936800D02*
X132518110Y-104565490D01*
X133146800Y-102095300D02*
X133464300Y-101777800D01*
X133146800Y-102095300D02*
X133146800Y-103936800D01*
X115459198Y-102193500D02*
X108789400Y-102193500D01*
X117831188Y-104565490D02*
X115459198Y-102193500D01*
X132518110Y-104565490D02*
X117831188Y-104565490D01*
%TO.N,/CSI_DP3__SD_LVDS3_P*%
X133634480Y-102925880D02*
X133634480Y-104134920D01*
X133634480Y-102925880D02*
X134048500Y-102511860D01*
X133634480Y-104134920D02*
X132803900Y-104965500D01*
X132803900Y-104965500D02*
X117665500Y-104965500D01*
X115697000Y-102997000D02*
X115646200Y-102997000D01*
X117665500Y-104965500D02*
X115697000Y-102997000D01*
X107772200Y-102997000D02*
X115646200Y-102997000D01*
%TO.N,/CSI_CLK_N__SPCLK_LVDS0_N*%
X132923280Y-87939880D02*
X130825240Y-87939880D01*
X139298680Y-103489760D02*
X140014960Y-102773480D01*
X133629400Y-87233760D02*
X132923280Y-87939880D01*
X138551920Y-103489760D02*
X139298680Y-103489760D01*
X140014960Y-102773480D02*
X140014960Y-88061800D01*
X140014960Y-88061800D02*
X139186920Y-87233760D01*
X139186920Y-87233760D02*
X133629400Y-87233760D01*
%TO.N,/CSI_CLK_P__SPCLK_LVDS0_P*%
X133259870Y-86833750D02*
X133047820Y-87045800D01*
X140414970Y-87786170D02*
X139462550Y-86833750D01*
X133047820Y-87045800D02*
X131907280Y-87045800D01*
X139462550Y-86833750D02*
X133259870Y-86833750D01*
X140187680Y-103784400D02*
X140414970Y-103557110D01*
X140414970Y-103557110D02*
X140414970Y-87786170D01*
D15*
%TO.N,+5V*%
X137083800Y-106250740D02*
X135130540Y-108204000D01*
X137083800Y-91147900D02*
X137083800Y-106250740D01*
X137083800Y-91147900D02*
X134937500Y-89001600D01*
X113253520Y-107096560D02*
X114360960Y-108204000D01*
X113253520Y-104404160D02*
X113253520Y-107096560D01*
X114360960Y-108204000D02*
X135130540Y-108204000D01*
D14*
%TO.N,/CLK_SI_3V3*%
X139471400Y-91277440D02*
X138516360Y-92232480D01*
X133964680Y-87741760D02*
X138892280Y-87741760D01*
X131902200Y-88468200D02*
X133238240Y-88468200D01*
X129626360Y-88950800D02*
X131419600Y-88950800D01*
X133238240Y-88468200D02*
X133964680Y-87741760D01*
X139471400Y-88320880D02*
X139471400Y-91277440D01*
X131419600Y-88950800D02*
X131902200Y-88468200D01*
X138892280Y-87741760D02*
X139471400Y-88320880D01*
%TO.N,/CSI_MCLK_1V8*%
X120904000Y-95504000D02*
X120904000Y-94907100D01*
X108789400Y-95793500D02*
X120614500Y-95793500D01*
X120614500Y-95793500D02*
X120904000Y-95504000D01*
%TD*%
D16*
%TO.N,GND*%
X138262444Y-76697239D02*
X137839453Y-76979872D01*
X137444572Y-77374753D01*
X137134316Y-77839084D01*
X136920608Y-78355021D01*
X136811660Y-78902737D01*
X136811660Y-79461183D01*
X136920608Y-80008899D01*
X137134316Y-80524836D01*
X137444572Y-80989167D01*
X137839453Y-81384048D01*
X138303784Y-81694304D01*
X138819721Y-81908012D01*
X139367437Y-82016960D01*
X139925883Y-82016960D01*
X140473599Y-81908012D01*
X140989536Y-81694304D01*
X141453867Y-81384048D01*
X141848748Y-80989167D01*
X142088000Y-80631101D01*
X142088001Y-111948335D01*
X142065024Y-111892864D01*
X141754768Y-111428533D01*
X141359887Y-111033652D01*
X140895556Y-110723396D01*
X140379619Y-110509688D01*
X139831903Y-110400740D01*
X139273457Y-110400740D01*
X138725741Y-110509688D01*
X138209804Y-110723396D01*
X137745473Y-111033652D01*
X137350592Y-111428533D01*
X137040336Y-111892864D01*
X136826628Y-112408801D01*
X136717680Y-112956517D01*
X136717680Y-113514963D01*
X136826628Y-114062679D01*
X137040336Y-114578616D01*
X137350592Y-115042947D01*
X137745473Y-115437828D01*
X138209804Y-115748084D01*
X138479897Y-115859960D01*
X106593055Y-115859960D01*
X106857016Y-115750624D01*
X107321347Y-115440368D01*
X107716228Y-115045487D01*
X108026484Y-114581156D01*
X108240192Y-114065219D01*
X108349140Y-113517503D01*
X108349140Y-112959057D01*
X108240192Y-112411341D01*
X108026484Y-111895404D01*
X107716228Y-111431073D01*
X107321347Y-111036192D01*
X106857016Y-110725936D01*
X106341079Y-110512228D01*
X105793363Y-110403280D01*
X105234917Y-110403280D01*
X104687201Y-110512228D01*
X104171264Y-110725936D01*
X103706933Y-111036192D01*
X103312052Y-111431073D01*
X103001796Y-111895404D01*
X102920579Y-112091478D01*
X102921398Y-106581887D01*
X104140618Y-106581887D01*
X104194493Y-106810968D01*
X104425084Y-106917263D01*
X104671981Y-106976528D01*
X104925696Y-106986488D01*
X105176479Y-106946759D01*
X105414693Y-106858868D01*
X105504307Y-106810968D01*
X105558182Y-106581887D01*
X106170618Y-106581887D01*
X106224493Y-106810968D01*
X106455084Y-106917263D01*
X106701981Y-106976528D01*
X106955696Y-106986488D01*
X107206479Y-106946759D01*
X107444693Y-106858868D01*
X107534307Y-106810968D01*
X107588182Y-106581887D01*
X110170618Y-106581887D01*
X110224493Y-106810968D01*
X110455084Y-106917263D01*
X110701981Y-106976528D01*
X110955696Y-106986488D01*
X111206479Y-106946759D01*
X111444693Y-106858868D01*
X111534307Y-106810968D01*
X111588182Y-106581887D01*
X110879400Y-105873105D01*
X110170618Y-106581887D01*
X107588182Y-106581887D01*
X106879400Y-105873105D01*
X106170618Y-106581887D01*
X105558182Y-106581887D01*
X104849400Y-105873105D01*
X104140618Y-106581887D01*
X102921398Y-106581887D01*
X102921519Y-105769796D01*
X103556412Y-105769796D01*
X103596141Y-106020579D01*
X103684032Y-106258793D01*
X103731932Y-106348407D01*
X103961013Y-106402282D01*
X104669795Y-105693500D01*
X105029005Y-105693500D01*
X105737787Y-106402282D01*
X105864400Y-106372505D01*
X105991013Y-106402282D01*
X106699795Y-105693500D01*
X105991013Y-104984718D01*
X105864400Y-105014495D01*
X105737787Y-104984718D01*
X105029005Y-105693500D01*
X104669795Y-105693500D01*
X103961013Y-104984718D01*
X103731932Y-105038593D01*
X103625637Y-105269184D01*
X103566372Y-105516081D01*
X103556412Y-105769796D01*
X102921519Y-105769796D01*
X102921662Y-104805113D01*
X104140618Y-104805113D01*
X104849400Y-105513895D01*
X105558182Y-104805113D01*
X105504307Y-104576032D01*
X105273716Y-104469737D01*
X105026819Y-104410472D01*
X104773104Y-104400512D01*
X104522321Y-104440241D01*
X104284107Y-104528132D01*
X104194493Y-104576032D01*
X104140618Y-104805113D01*
X102921662Y-104805113D01*
X102924044Y-88781887D01*
X104140618Y-88781887D01*
X104194493Y-89010968D01*
X104425084Y-89117263D01*
X104671981Y-89176528D01*
X104925696Y-89186488D01*
X105176479Y-89146759D01*
X105414693Y-89058868D01*
X105504307Y-89010968D01*
X105558182Y-88781887D01*
X106170618Y-88781887D01*
X106224493Y-89010968D01*
X106455084Y-89117263D01*
X106701981Y-89176528D01*
X106955696Y-89186488D01*
X107206479Y-89146759D01*
X107444693Y-89058868D01*
X107489769Y-89034774D01*
X107523586Y-89204782D01*
X107629875Y-89461385D01*
X107784182Y-89692322D01*
X107980578Y-89888718D01*
X108211515Y-90043025D01*
X108327213Y-90090949D01*
X108179626Y-90189563D01*
X108035463Y-90333726D01*
X107922195Y-90503244D01*
X107844174Y-90691602D01*
X107830867Y-90758500D01*
X107687461Y-90758500D01*
X107487502Y-90798274D01*
X107299144Y-90876295D01*
X107129626Y-90989563D01*
X106985463Y-91133726D01*
X106872195Y-91303244D01*
X106794174Y-91491602D01*
X106754400Y-91691561D01*
X106754400Y-91895439D01*
X106794174Y-92095398D01*
X106872195Y-92283756D01*
X106985463Y-92453274D01*
X107129626Y-92597437D01*
X107144904Y-92607645D01*
X107016523Y-92736026D01*
X106903255Y-92905544D01*
X106825234Y-93093902D01*
X106785460Y-93293861D01*
X106785460Y-93497739D01*
X106825234Y-93697698D01*
X106903255Y-93886056D01*
X107016523Y-94055574D01*
X107160686Y-94199737D01*
X107330204Y-94313005D01*
X107518562Y-94391026D01*
X107718521Y-94430800D01*
X107781325Y-94430800D01*
X107794174Y-94495398D01*
X107872195Y-94683756D01*
X107985463Y-94853274D01*
X108125689Y-94993500D01*
X107985463Y-95133726D01*
X107872195Y-95303244D01*
X107794174Y-95491602D01*
X107780867Y-95558500D01*
X107687461Y-95558500D01*
X107487502Y-95598274D01*
X107299144Y-95676295D01*
X107129626Y-95789563D01*
X106985463Y-95933726D01*
X106872195Y-96103244D01*
X106794174Y-96291602D01*
X106754400Y-96491561D01*
X106754400Y-96695439D01*
X106794174Y-96895398D01*
X106872195Y-97083756D01*
X106985463Y-97253274D01*
X107125689Y-97393500D01*
X106985463Y-97533726D01*
X106872195Y-97703244D01*
X106794174Y-97891602D01*
X106754400Y-98091561D01*
X106754400Y-98295439D01*
X106794174Y-98495398D01*
X106872195Y-98683756D01*
X106985463Y-98853274D01*
X107129626Y-98997437D01*
X107130157Y-98997792D01*
X106993663Y-99134286D01*
X106880395Y-99303804D01*
X106802374Y-99492162D01*
X106762600Y-99692121D01*
X106762600Y-99895999D01*
X106802374Y-100095958D01*
X106880395Y-100284316D01*
X106993663Y-100453834D01*
X107137826Y-100597997D01*
X107307344Y-100711265D01*
X107495702Y-100789286D01*
X107695661Y-100829060D01*
X107780979Y-100829060D01*
X107794174Y-100895398D01*
X107872195Y-101083756D01*
X107985463Y-101253274D01*
X108125689Y-101393500D01*
X107985463Y-101533726D01*
X107872195Y-101703244D01*
X107794174Y-101891602D01*
X107780171Y-101962000D01*
X107670261Y-101962000D01*
X107470302Y-102001774D01*
X107281944Y-102079795D01*
X107112426Y-102193063D01*
X106968263Y-102337226D01*
X106854995Y-102506744D01*
X106776974Y-102695102D01*
X106737200Y-102895061D01*
X106737200Y-103098939D01*
X106776974Y-103298898D01*
X106854995Y-103487256D01*
X106968263Y-103656774D01*
X107112426Y-103800937D01*
X107281944Y-103914205D01*
X107470302Y-103992226D01*
X107670261Y-104032000D01*
X107692426Y-104032000D01*
X107629875Y-104125615D01*
X107523586Y-104382218D01*
X107489172Y-104555226D01*
X107303716Y-104469737D01*
X107056819Y-104410472D01*
X106803104Y-104400512D01*
X106552321Y-104440241D01*
X106314107Y-104528132D01*
X106224493Y-104576032D01*
X106170618Y-104805113D01*
X106879400Y-105513895D01*
X106893543Y-105499753D01*
X107073148Y-105679358D01*
X107059005Y-105693500D01*
X107767787Y-106402282D01*
X107996868Y-106348407D01*
X108103163Y-106117816D01*
X108133611Y-105990971D01*
X108211515Y-106043025D01*
X108468118Y-106149314D01*
X108740527Y-106203500D01*
X109018273Y-106203500D01*
X109290682Y-106149314D01*
X109547285Y-106043025D01*
X109621808Y-105993230D01*
X109626141Y-106020579D01*
X109714032Y-106258793D01*
X109761932Y-106348407D01*
X109991013Y-106402282D01*
X110699795Y-105693500D01*
X111059005Y-105693500D01*
X111767787Y-106402282D01*
X111996868Y-106348407D01*
X112103163Y-106117816D01*
X112162428Y-105870919D01*
X112172388Y-105617204D01*
X112132659Y-105366421D01*
X112044768Y-105128207D01*
X111996868Y-105038593D01*
X111767787Y-104984718D01*
X111059005Y-105693500D01*
X110699795Y-105693500D01*
X110685653Y-105679358D01*
X110865258Y-105499753D01*
X110879400Y-105513895D01*
X111588182Y-104805113D01*
X111534307Y-104576032D01*
X111303716Y-104469737D01*
X111056819Y-104410472D01*
X110803104Y-104400512D01*
X110552321Y-104440241D01*
X110314107Y-104528132D01*
X110269031Y-104552226D01*
X110235214Y-104382218D01*
X110128925Y-104125615D01*
X109974618Y-103894678D01*
X109811940Y-103732000D01*
X112461969Y-103732000D01*
X112449583Y-103744386D01*
X112336315Y-103913904D01*
X112258294Y-104102262D01*
X112218520Y-104302221D01*
X112218520Y-104506099D01*
X112258294Y-104706058D01*
X112336315Y-104894416D01*
X112443520Y-105054860D01*
X112443521Y-107056762D01*
X112439601Y-107096560D01*
X112455241Y-107255347D01*
X112501558Y-107408033D01*
X112576771Y-107548749D01*
X112632372Y-107616499D01*
X112677993Y-107672088D01*
X112708903Y-107697455D01*
X113760065Y-108748618D01*
X113785432Y-108779528D01*
X113816340Y-108804893D01*
X113908771Y-108880749D01*
X114049486Y-108955963D01*
X114085023Y-108966743D01*
X114202172Y-109002280D01*
X114321169Y-109014000D01*
X114321172Y-109014000D01*
X114360960Y-109017919D01*
X114400748Y-109014000D01*
X135090752Y-109014000D01*
X135130540Y-109017919D01*
X135170328Y-109014000D01*
X135170331Y-109014000D01*
X135289328Y-109002280D01*
X135442013Y-108955963D01*
X135582729Y-108880749D01*
X135706068Y-108779528D01*
X135731439Y-108748613D01*
X137628418Y-106851635D01*
X137659328Y-106826268D01*
X137760549Y-106702929D01*
X137835763Y-106562213D01*
X137882080Y-106409528D01*
X137893800Y-106290531D01*
X137893800Y-106290528D01*
X137897719Y-106250740D01*
X137893800Y-106210952D01*
X137893800Y-104294802D01*
X138061664Y-104406965D01*
X138250022Y-104484986D01*
X138449981Y-104524760D01*
X138653859Y-104524760D01*
X138853818Y-104484986D01*
X139042176Y-104406965D01*
X139211694Y-104293697D01*
X139258835Y-104246556D01*
X139270475Y-104274656D01*
X139383743Y-104444174D01*
X139527906Y-104588337D01*
X139697424Y-104701605D01*
X139885782Y-104779626D01*
X140085741Y-104819400D01*
X140289619Y-104819400D01*
X140489578Y-104779626D01*
X140677936Y-104701605D01*
X140847454Y-104588337D01*
X140991617Y-104444174D01*
X141104885Y-104274656D01*
X141182906Y-104086298D01*
X141222680Y-103886339D01*
X141222680Y-103682461D01*
X141182906Y-103482502D01*
X141149970Y-103402988D01*
X141149970Y-87822264D01*
X141153525Y-87786169D01*
X141149970Y-87750074D01*
X141149970Y-87750065D01*
X141139335Y-87642085D01*
X141097307Y-87503537D01*
X141029057Y-87375850D01*
X140937208Y-87263932D01*
X140909163Y-87240916D01*
X140007808Y-86339562D01*
X139984788Y-86311512D01*
X139872870Y-86219663D01*
X139745183Y-86151413D01*
X139606635Y-86109385D01*
X139498655Y-86098750D01*
X139462550Y-86095194D01*
X139426445Y-86098750D01*
X133295975Y-86098750D01*
X133259870Y-86095194D01*
X133115784Y-86109385D01*
X133083538Y-86119167D01*
X132977237Y-86151413D01*
X132849550Y-86219663D01*
X132738500Y-86310800D01*
X132635991Y-86310800D01*
X132567054Y-86241863D01*
X132397536Y-86128595D01*
X132209178Y-86050574D01*
X132009219Y-86010800D01*
X131805341Y-86010800D01*
X131605382Y-86050574D01*
X131417024Y-86128595D01*
X131247506Y-86241863D01*
X131103343Y-86386026D01*
X130990075Y-86555544D01*
X130912054Y-86743902D01*
X130880034Y-86904880D01*
X130723301Y-86904880D01*
X130523342Y-86944654D01*
X130334984Y-87022675D01*
X130165466Y-87135943D01*
X130021303Y-87280106D01*
X129908035Y-87449624D01*
X129830014Y-87637982D01*
X129790240Y-87837941D01*
X129790240Y-87928121D01*
X129728299Y-87915800D01*
X129524421Y-87915800D01*
X129324462Y-87955574D01*
X129136104Y-88033595D01*
X128966586Y-88146863D01*
X128822423Y-88291026D01*
X128709155Y-88460544D01*
X128631134Y-88648902D01*
X128591360Y-88848861D01*
X128591360Y-89052739D01*
X128631134Y-89252698D01*
X128709155Y-89441056D01*
X128822423Y-89610574D01*
X128966586Y-89754737D01*
X129136104Y-89868005D01*
X129324462Y-89946026D01*
X129524421Y-89985800D01*
X129728299Y-89985800D01*
X129928258Y-89946026D01*
X130116616Y-89868005D01*
X130286134Y-89754737D01*
X130355071Y-89685800D01*
X131383495Y-89685800D01*
X131419600Y-89689356D01*
X131455705Y-89685800D01*
X131563685Y-89675165D01*
X131702233Y-89633137D01*
X131829920Y-89564887D01*
X131941838Y-89473038D01*
X131964859Y-89444987D01*
X132206646Y-89203200D01*
X133202135Y-89203200D01*
X133238240Y-89206756D01*
X133274345Y-89203200D01*
X133382325Y-89192565D01*
X133520873Y-89150537D01*
X133648560Y-89082287D01*
X133760478Y-88990438D01*
X133783498Y-88962388D01*
X133916473Y-88829413D01*
X133902500Y-88899661D01*
X133902500Y-89103539D01*
X133942274Y-89303498D01*
X134020295Y-89491856D01*
X134133563Y-89661374D01*
X134277726Y-89805537D01*
X134447244Y-89918805D01*
X134635602Y-89996826D01*
X134824859Y-90034471D01*
X136273800Y-91483413D01*
X136273801Y-105915226D01*
X134795028Y-107394000D01*
X114696473Y-107394000D01*
X114063520Y-106761048D01*
X114063520Y-106581887D01*
X114410618Y-106581887D01*
X114464493Y-106810968D01*
X114695084Y-106917263D01*
X114941981Y-106976528D01*
X115195696Y-106986488D01*
X115446479Y-106946759D01*
X115684693Y-106858868D01*
X115774307Y-106810968D01*
X115828182Y-106581887D01*
X115119400Y-105873105D01*
X114410618Y-106581887D01*
X114063520Y-106581887D01*
X114063520Y-106362891D01*
X114231013Y-106402282D01*
X114939795Y-105693500D01*
X115299005Y-105693500D01*
X116007787Y-106402282D01*
X116236868Y-106348407D01*
X116343163Y-106117816D01*
X116402428Y-105870919D01*
X116412388Y-105617204D01*
X116372659Y-105366421D01*
X116284768Y-105128207D01*
X116236868Y-105038593D01*
X116007787Y-104984718D01*
X115299005Y-105693500D01*
X114939795Y-105693500D01*
X114925653Y-105679358D01*
X115105258Y-105499753D01*
X115119400Y-105513895D01*
X115828182Y-104805113D01*
X115774307Y-104576032D01*
X115543716Y-104469737D01*
X115296819Y-104410472D01*
X115043104Y-104400512D01*
X114792321Y-104440241D01*
X114554107Y-104528132D01*
X114464493Y-104576032D01*
X114410619Y-104805111D01*
X114293768Y-104688260D01*
X114229495Y-104752533D01*
X114248746Y-104706058D01*
X114288520Y-104506099D01*
X114288520Y-104302221D01*
X114248746Y-104102262D01*
X114170725Y-103913904D01*
X114057457Y-103744386D01*
X114045071Y-103732000D01*
X115392554Y-103732000D01*
X117120246Y-105459693D01*
X117143262Y-105487738D01*
X117255180Y-105579587D01*
X117382867Y-105647837D01*
X117521415Y-105689865D01*
X117629395Y-105700500D01*
X117629404Y-105700500D01*
X117665499Y-105704055D01*
X117701594Y-105700500D01*
X132767795Y-105700500D01*
X132803900Y-105704056D01*
X132840005Y-105700500D01*
X132947985Y-105689865D01*
X133086533Y-105647837D01*
X133214220Y-105579587D01*
X133326138Y-105487738D01*
X133349158Y-105459688D01*
X134128673Y-104680174D01*
X134156718Y-104657158D01*
X134248567Y-104545240D01*
X134269488Y-104506099D01*
X134316817Y-104417554D01*
X134358845Y-104279005D01*
X134373036Y-104134920D01*
X134369480Y-104098815D01*
X134369480Y-103499182D01*
X134538756Y-103429065D01*
X134708274Y-103315797D01*
X134852437Y-103171634D01*
X134965705Y-103002116D01*
X135043726Y-102813758D01*
X135043917Y-102812800D01*
X135077539Y-102812800D01*
X135277498Y-102773026D01*
X135465856Y-102695005D01*
X135635374Y-102581737D01*
X135779537Y-102437574D01*
X135892805Y-102268056D01*
X135970826Y-102079698D01*
X136010600Y-101879739D01*
X136010600Y-101675861D01*
X135970826Y-101475902D01*
X135892805Y-101287544D01*
X135779537Y-101118026D01*
X135690011Y-101028500D01*
X135779537Y-100938974D01*
X135892805Y-100769456D01*
X135970826Y-100581098D01*
X136010600Y-100381139D01*
X136010600Y-100177261D01*
X135970826Y-99977302D01*
X135892805Y-99788944D01*
X135779537Y-99619426D01*
X135677311Y-99517200D01*
X135754137Y-99440374D01*
X135867405Y-99270856D01*
X135945426Y-99082498D01*
X135985200Y-98882539D01*
X135985200Y-98678661D01*
X135945426Y-98478702D01*
X135867405Y-98290344D01*
X135754137Y-98120826D01*
X135677311Y-98044000D01*
X135779537Y-97941774D01*
X135892805Y-97772256D01*
X135970826Y-97583898D01*
X136010600Y-97383939D01*
X136010600Y-97180061D01*
X135970826Y-96980102D01*
X135892805Y-96791744D01*
X135779537Y-96622226D01*
X135635374Y-96478063D01*
X135465856Y-96364795D01*
X135277498Y-96286774D01*
X135077539Y-96247000D01*
X134873661Y-96247000D01*
X134673702Y-96286774D01*
X134485344Y-96364795D01*
X134456581Y-96384014D01*
X134015110Y-95942544D01*
X134015110Y-92313707D01*
X134018665Y-92277610D01*
X134015110Y-92241513D01*
X134015110Y-92241506D01*
X134004475Y-92133526D01*
X134002954Y-92128510D01*
X133973975Y-92032981D01*
X133962447Y-91994978D01*
X133894197Y-91867291D01*
X133802348Y-91755373D01*
X133774303Y-91732357D01*
X132541257Y-90499312D01*
X132518237Y-90471262D01*
X132406319Y-90379413D01*
X132278632Y-90311163D01*
X132140084Y-90269135D01*
X132032104Y-90258500D01*
X131995999Y-90254944D01*
X131959894Y-90258500D01*
X109568111Y-90258500D01*
X109499174Y-90189563D01*
X109382202Y-90111405D01*
X109547285Y-90043025D01*
X109778222Y-89888718D01*
X109974618Y-89692322D01*
X110128925Y-89461385D01*
X110235214Y-89204782D01*
X110269628Y-89031774D01*
X110455084Y-89117263D01*
X110701981Y-89176528D01*
X110955696Y-89186488D01*
X111206479Y-89146759D01*
X111444693Y-89058868D01*
X111534307Y-89010968D01*
X111588182Y-88781887D01*
X113410618Y-88781887D01*
X113464493Y-89010968D01*
X113695084Y-89117263D01*
X113941981Y-89176528D01*
X114195696Y-89186488D01*
X114446479Y-89146759D01*
X114684693Y-89058868D01*
X114774307Y-89010968D01*
X114828182Y-88781887D01*
X114119400Y-88073105D01*
X113410618Y-88781887D01*
X111588182Y-88781887D01*
X110879400Y-88073105D01*
X110865258Y-88087248D01*
X110685653Y-87907643D01*
X110699795Y-87893500D01*
X111059005Y-87893500D01*
X111767787Y-88602282D01*
X111996868Y-88548407D01*
X112103163Y-88317816D01*
X112162428Y-88070919D01*
X112166397Y-87969796D01*
X112826412Y-87969796D01*
X112866141Y-88220579D01*
X112954032Y-88458793D01*
X113001932Y-88548407D01*
X113231013Y-88602282D01*
X113939795Y-87893500D01*
X114299005Y-87893500D01*
X115007787Y-88602282D01*
X115236868Y-88548407D01*
X115343163Y-88317816D01*
X115402428Y-88070919D01*
X115412388Y-87817204D01*
X115372659Y-87566421D01*
X115284768Y-87328207D01*
X115236868Y-87238593D01*
X115007787Y-87184718D01*
X114299005Y-87893500D01*
X113939795Y-87893500D01*
X113231013Y-87184718D01*
X113001932Y-87238593D01*
X112895637Y-87469184D01*
X112836372Y-87716081D01*
X112826412Y-87969796D01*
X112166397Y-87969796D01*
X112172388Y-87817204D01*
X112132659Y-87566421D01*
X112044768Y-87328207D01*
X111996868Y-87238593D01*
X111767787Y-87184718D01*
X111059005Y-87893500D01*
X110699795Y-87893500D01*
X109991013Y-87184718D01*
X109761932Y-87238593D01*
X109655637Y-87469184D01*
X109625189Y-87596029D01*
X109547285Y-87543975D01*
X109290682Y-87437686D01*
X109018273Y-87383500D01*
X108740527Y-87383500D01*
X108468118Y-87437686D01*
X108211515Y-87543975D01*
X108136992Y-87593770D01*
X108132659Y-87566421D01*
X108044768Y-87328207D01*
X107996868Y-87238593D01*
X107767787Y-87184718D01*
X107059005Y-87893500D01*
X107073148Y-87907643D01*
X106893543Y-88087248D01*
X106879400Y-88073105D01*
X106170618Y-88781887D01*
X105558182Y-88781887D01*
X104849400Y-88073105D01*
X104140618Y-88781887D01*
X102924044Y-88781887D01*
X102924165Y-87969796D01*
X103556412Y-87969796D01*
X103596141Y-88220579D01*
X103684032Y-88458793D01*
X103731932Y-88548407D01*
X103961013Y-88602282D01*
X104669795Y-87893500D01*
X105029005Y-87893500D01*
X105737787Y-88602282D01*
X105864400Y-88572505D01*
X105991013Y-88602282D01*
X106699795Y-87893500D01*
X105991013Y-87184718D01*
X105864400Y-87214495D01*
X105737787Y-87184718D01*
X105029005Y-87893500D01*
X104669795Y-87893500D01*
X103961013Y-87184718D01*
X103731932Y-87238593D01*
X103625637Y-87469184D01*
X103566372Y-87716081D01*
X103556412Y-87969796D01*
X102924165Y-87969796D01*
X102924308Y-87005113D01*
X104140618Y-87005113D01*
X104849400Y-87713895D01*
X105558182Y-87005113D01*
X106170618Y-87005113D01*
X106879400Y-87713895D01*
X107588182Y-87005113D01*
X110170618Y-87005113D01*
X110879400Y-87713895D01*
X111588182Y-87005113D01*
X113410618Y-87005113D01*
X114119400Y-87713895D01*
X114828182Y-87005113D01*
X114774307Y-86776032D01*
X114543716Y-86669737D01*
X114296819Y-86610472D01*
X114043104Y-86600512D01*
X113792321Y-86640241D01*
X113554107Y-86728132D01*
X113464493Y-86776032D01*
X113410618Y-87005113D01*
X111588182Y-87005113D01*
X111534307Y-86776032D01*
X111303716Y-86669737D01*
X111056819Y-86610472D01*
X110803104Y-86600512D01*
X110552321Y-86640241D01*
X110314107Y-86728132D01*
X110224493Y-86776032D01*
X110170618Y-87005113D01*
X107588182Y-87005113D01*
X107534307Y-86776032D01*
X107303716Y-86669737D01*
X107056819Y-86610472D01*
X106803104Y-86600512D01*
X106552321Y-86640241D01*
X106314107Y-86728132D01*
X106224493Y-86776032D01*
X106170618Y-87005113D01*
X105558182Y-87005113D01*
X105504307Y-86776032D01*
X105273716Y-86669737D01*
X105026819Y-86610472D01*
X104773104Y-86600512D01*
X104522321Y-86640241D01*
X104284107Y-86728132D01*
X104194493Y-86776032D01*
X104140618Y-87005113D01*
X102924308Y-87005113D01*
X102925265Y-80578787D01*
X103187592Y-80971387D01*
X103582473Y-81366268D01*
X104046804Y-81676524D01*
X104562741Y-81890232D01*
X105110457Y-81999180D01*
X105668903Y-81999180D01*
X106216619Y-81890232D01*
X106732556Y-81676524D01*
X107196887Y-81366268D01*
X107591768Y-80971387D01*
X107902024Y-80507056D01*
X108115732Y-79991119D01*
X108224680Y-79443403D01*
X108224680Y-78884957D01*
X108115732Y-78337241D01*
X107902024Y-77821304D01*
X107591768Y-77356973D01*
X107196887Y-76962092D01*
X106793519Y-76692570D01*
X138262444Y-76697239D01*
%TA.AperFunction,Conductor*%
D17*
G36*
X138262444Y-76697239D02*
G01*
X137839453Y-76979872D01*
X137444572Y-77374753D01*
X137134316Y-77839084D01*
X136920608Y-78355021D01*
X136811660Y-78902737D01*
X136811660Y-79461183D01*
X136920608Y-80008899D01*
X137134316Y-80524836D01*
X137444572Y-80989167D01*
X137839453Y-81384048D01*
X138303784Y-81694304D01*
X138819721Y-81908012D01*
X139367437Y-82016960D01*
X139925883Y-82016960D01*
X140473599Y-81908012D01*
X140989536Y-81694304D01*
X141453867Y-81384048D01*
X141848748Y-80989167D01*
X142088000Y-80631101D01*
X142088001Y-111948335D01*
X142065024Y-111892864D01*
X141754768Y-111428533D01*
X141359887Y-111033652D01*
X140895556Y-110723396D01*
X140379619Y-110509688D01*
X139831903Y-110400740D01*
X139273457Y-110400740D01*
X138725741Y-110509688D01*
X138209804Y-110723396D01*
X137745473Y-111033652D01*
X137350592Y-111428533D01*
X137040336Y-111892864D01*
X136826628Y-112408801D01*
X136717680Y-112956517D01*
X136717680Y-113514963D01*
X136826628Y-114062679D01*
X137040336Y-114578616D01*
X137350592Y-115042947D01*
X137745473Y-115437828D01*
X138209804Y-115748084D01*
X138479897Y-115859960D01*
X106593055Y-115859960D01*
X106857016Y-115750624D01*
X107321347Y-115440368D01*
X107716228Y-115045487D01*
X108026484Y-114581156D01*
X108240192Y-114065219D01*
X108349140Y-113517503D01*
X108349140Y-112959057D01*
X108240192Y-112411341D01*
X108026484Y-111895404D01*
X107716228Y-111431073D01*
X107321347Y-111036192D01*
X106857016Y-110725936D01*
X106341079Y-110512228D01*
X105793363Y-110403280D01*
X105234917Y-110403280D01*
X104687201Y-110512228D01*
X104171264Y-110725936D01*
X103706933Y-111036192D01*
X103312052Y-111431073D01*
X103001796Y-111895404D01*
X102920579Y-112091478D01*
X102921398Y-106581887D01*
X104140618Y-106581887D01*
X104194493Y-106810968D01*
X104425084Y-106917263D01*
X104671981Y-106976528D01*
X104925696Y-106986488D01*
X105176479Y-106946759D01*
X105414693Y-106858868D01*
X105504307Y-106810968D01*
X105558182Y-106581887D01*
X106170618Y-106581887D01*
X106224493Y-106810968D01*
X106455084Y-106917263D01*
X106701981Y-106976528D01*
X106955696Y-106986488D01*
X107206479Y-106946759D01*
X107444693Y-106858868D01*
X107534307Y-106810968D01*
X107588182Y-106581887D01*
X110170618Y-106581887D01*
X110224493Y-106810968D01*
X110455084Y-106917263D01*
X110701981Y-106976528D01*
X110955696Y-106986488D01*
X111206479Y-106946759D01*
X111444693Y-106858868D01*
X111534307Y-106810968D01*
X111588182Y-106581887D01*
X110879400Y-105873105D01*
X110170618Y-106581887D01*
X107588182Y-106581887D01*
X106879400Y-105873105D01*
X106170618Y-106581887D01*
X105558182Y-106581887D01*
X104849400Y-105873105D01*
X104140618Y-106581887D01*
X102921398Y-106581887D01*
X102921519Y-105769796D01*
X103556412Y-105769796D01*
X103596141Y-106020579D01*
X103684032Y-106258793D01*
X103731932Y-106348407D01*
X103961013Y-106402282D01*
X104669795Y-105693500D01*
X105029005Y-105693500D01*
X105737787Y-106402282D01*
X105864400Y-106372505D01*
X105991013Y-106402282D01*
X106699795Y-105693500D01*
X105991013Y-104984718D01*
X105864400Y-105014495D01*
X105737787Y-104984718D01*
X105029005Y-105693500D01*
X104669795Y-105693500D01*
X103961013Y-104984718D01*
X103731932Y-105038593D01*
X103625637Y-105269184D01*
X103566372Y-105516081D01*
X103556412Y-105769796D01*
X102921519Y-105769796D01*
X102921662Y-104805113D01*
X104140618Y-104805113D01*
X104849400Y-105513895D01*
X105558182Y-104805113D01*
X105504307Y-104576032D01*
X105273716Y-104469737D01*
X105026819Y-104410472D01*
X104773104Y-104400512D01*
X104522321Y-104440241D01*
X104284107Y-104528132D01*
X104194493Y-104576032D01*
X104140618Y-104805113D01*
X102921662Y-104805113D01*
X102924044Y-88781887D01*
X104140618Y-88781887D01*
X104194493Y-89010968D01*
X104425084Y-89117263D01*
X104671981Y-89176528D01*
X104925696Y-89186488D01*
X105176479Y-89146759D01*
X105414693Y-89058868D01*
X105504307Y-89010968D01*
X105558182Y-88781887D01*
X106170618Y-88781887D01*
X106224493Y-89010968D01*
X106455084Y-89117263D01*
X106701981Y-89176528D01*
X106955696Y-89186488D01*
X107206479Y-89146759D01*
X107444693Y-89058868D01*
X107489769Y-89034774D01*
X107523586Y-89204782D01*
X107629875Y-89461385D01*
X107784182Y-89692322D01*
X107980578Y-89888718D01*
X108211515Y-90043025D01*
X108327213Y-90090949D01*
X108179626Y-90189563D01*
X108035463Y-90333726D01*
X107922195Y-90503244D01*
X107844174Y-90691602D01*
X107830867Y-90758500D01*
X107687461Y-90758500D01*
X107487502Y-90798274D01*
X107299144Y-90876295D01*
X107129626Y-90989563D01*
X106985463Y-91133726D01*
X106872195Y-91303244D01*
X106794174Y-91491602D01*
X106754400Y-91691561D01*
X106754400Y-91895439D01*
X106794174Y-92095398D01*
X106872195Y-92283756D01*
X106985463Y-92453274D01*
X107129626Y-92597437D01*
X107144904Y-92607645D01*
X107016523Y-92736026D01*
X106903255Y-92905544D01*
X106825234Y-93093902D01*
X106785460Y-93293861D01*
X106785460Y-93497739D01*
X106825234Y-93697698D01*
X106903255Y-93886056D01*
X107016523Y-94055574D01*
X107160686Y-94199737D01*
X107330204Y-94313005D01*
X107518562Y-94391026D01*
X107718521Y-94430800D01*
X107781325Y-94430800D01*
X107794174Y-94495398D01*
X107872195Y-94683756D01*
X107985463Y-94853274D01*
X108125689Y-94993500D01*
X107985463Y-95133726D01*
X107872195Y-95303244D01*
X107794174Y-95491602D01*
X107780867Y-95558500D01*
X107687461Y-95558500D01*
X107487502Y-95598274D01*
X107299144Y-95676295D01*
X107129626Y-95789563D01*
X106985463Y-95933726D01*
X106872195Y-96103244D01*
X106794174Y-96291602D01*
X106754400Y-96491561D01*
X106754400Y-96695439D01*
X106794174Y-96895398D01*
X106872195Y-97083756D01*
X106985463Y-97253274D01*
X107125689Y-97393500D01*
X106985463Y-97533726D01*
X106872195Y-97703244D01*
X106794174Y-97891602D01*
X106754400Y-98091561D01*
X106754400Y-98295439D01*
X106794174Y-98495398D01*
X106872195Y-98683756D01*
X106985463Y-98853274D01*
X107129626Y-98997437D01*
X107130157Y-98997792D01*
X106993663Y-99134286D01*
X106880395Y-99303804D01*
X106802374Y-99492162D01*
X106762600Y-99692121D01*
X106762600Y-99895999D01*
X106802374Y-100095958D01*
X106880395Y-100284316D01*
X106993663Y-100453834D01*
X107137826Y-100597997D01*
X107307344Y-100711265D01*
X107495702Y-100789286D01*
X107695661Y-100829060D01*
X107780979Y-100829060D01*
X107794174Y-100895398D01*
X107872195Y-101083756D01*
X107985463Y-101253274D01*
X108125689Y-101393500D01*
X107985463Y-101533726D01*
X107872195Y-101703244D01*
X107794174Y-101891602D01*
X107780171Y-101962000D01*
X107670261Y-101962000D01*
X107470302Y-102001774D01*
X107281944Y-102079795D01*
X107112426Y-102193063D01*
X106968263Y-102337226D01*
X106854995Y-102506744D01*
X106776974Y-102695102D01*
X106737200Y-102895061D01*
X106737200Y-103098939D01*
X106776974Y-103298898D01*
X106854995Y-103487256D01*
X106968263Y-103656774D01*
X107112426Y-103800937D01*
X107281944Y-103914205D01*
X107470302Y-103992226D01*
X107670261Y-104032000D01*
X107692426Y-104032000D01*
X107629875Y-104125615D01*
X107523586Y-104382218D01*
X107489172Y-104555226D01*
X107303716Y-104469737D01*
X107056819Y-104410472D01*
X106803104Y-104400512D01*
X106552321Y-104440241D01*
X106314107Y-104528132D01*
X106224493Y-104576032D01*
X106170618Y-104805113D01*
X106879400Y-105513895D01*
X106893543Y-105499753D01*
X107073148Y-105679358D01*
X107059005Y-105693500D01*
X107767787Y-106402282D01*
X107996868Y-106348407D01*
X108103163Y-106117816D01*
X108133611Y-105990971D01*
X108211515Y-106043025D01*
X108468118Y-106149314D01*
X108740527Y-106203500D01*
X109018273Y-106203500D01*
X109290682Y-106149314D01*
X109547285Y-106043025D01*
X109621808Y-105993230D01*
X109626141Y-106020579D01*
X109714032Y-106258793D01*
X109761932Y-106348407D01*
X109991013Y-106402282D01*
X110699795Y-105693500D01*
X111059005Y-105693500D01*
X111767787Y-106402282D01*
X111996868Y-106348407D01*
X112103163Y-106117816D01*
X112162428Y-105870919D01*
X112172388Y-105617204D01*
X112132659Y-105366421D01*
X112044768Y-105128207D01*
X111996868Y-105038593D01*
X111767787Y-104984718D01*
X111059005Y-105693500D01*
X110699795Y-105693500D01*
X110685653Y-105679358D01*
X110865258Y-105499753D01*
X110879400Y-105513895D01*
X111588182Y-104805113D01*
X111534307Y-104576032D01*
X111303716Y-104469737D01*
X111056819Y-104410472D01*
X110803104Y-104400512D01*
X110552321Y-104440241D01*
X110314107Y-104528132D01*
X110269031Y-104552226D01*
X110235214Y-104382218D01*
X110128925Y-104125615D01*
X109974618Y-103894678D01*
X109811940Y-103732000D01*
X112461969Y-103732000D01*
X112449583Y-103744386D01*
X112336315Y-103913904D01*
X112258294Y-104102262D01*
X112218520Y-104302221D01*
X112218520Y-104506099D01*
X112258294Y-104706058D01*
X112336315Y-104894416D01*
X112443520Y-105054860D01*
X112443521Y-107056762D01*
X112439601Y-107096560D01*
X112455241Y-107255347D01*
X112501558Y-107408033D01*
X112576771Y-107548749D01*
X112632372Y-107616499D01*
X112677993Y-107672088D01*
X112708903Y-107697455D01*
X113760065Y-108748618D01*
X113785432Y-108779528D01*
X113816340Y-108804893D01*
X113908771Y-108880749D01*
X114049486Y-108955963D01*
X114085023Y-108966743D01*
X114202172Y-109002280D01*
X114321169Y-109014000D01*
X114321172Y-109014000D01*
X114360960Y-109017919D01*
X114400748Y-109014000D01*
X135090752Y-109014000D01*
X135130540Y-109017919D01*
X135170328Y-109014000D01*
X135170331Y-109014000D01*
X135289328Y-109002280D01*
X135442013Y-108955963D01*
X135582729Y-108880749D01*
X135706068Y-108779528D01*
X135731439Y-108748613D01*
X137628418Y-106851635D01*
X137659328Y-106826268D01*
X137760549Y-106702929D01*
X137835763Y-106562213D01*
X137882080Y-106409528D01*
X137893800Y-106290531D01*
X137893800Y-106290528D01*
X137897719Y-106250740D01*
X137893800Y-106210952D01*
X137893800Y-104294802D01*
X138061664Y-104406965D01*
X138250022Y-104484986D01*
X138449981Y-104524760D01*
X138653859Y-104524760D01*
X138853818Y-104484986D01*
X139042176Y-104406965D01*
X139211694Y-104293697D01*
X139258835Y-104246556D01*
X139270475Y-104274656D01*
X139383743Y-104444174D01*
X139527906Y-104588337D01*
X139697424Y-104701605D01*
X139885782Y-104779626D01*
X140085741Y-104819400D01*
X140289619Y-104819400D01*
X140489578Y-104779626D01*
X140677936Y-104701605D01*
X140847454Y-104588337D01*
X140991617Y-104444174D01*
X141104885Y-104274656D01*
X141182906Y-104086298D01*
X141222680Y-103886339D01*
X141222680Y-103682461D01*
X141182906Y-103482502D01*
X141149970Y-103402988D01*
X141149970Y-87822264D01*
X141153525Y-87786169D01*
X141149970Y-87750074D01*
X141149970Y-87750065D01*
X141139335Y-87642085D01*
X141097307Y-87503537D01*
X141029057Y-87375850D01*
X140937208Y-87263932D01*
X140909163Y-87240916D01*
X140007808Y-86339562D01*
X139984788Y-86311512D01*
X139872870Y-86219663D01*
X139745183Y-86151413D01*
X139606635Y-86109385D01*
X139498655Y-86098750D01*
X139462550Y-86095194D01*
X139426445Y-86098750D01*
X133295975Y-86098750D01*
X133259870Y-86095194D01*
X133115784Y-86109385D01*
X133083538Y-86119167D01*
X132977237Y-86151413D01*
X132849550Y-86219663D01*
X132738500Y-86310800D01*
X132635991Y-86310800D01*
X132567054Y-86241863D01*
X132397536Y-86128595D01*
X132209178Y-86050574D01*
X132009219Y-86010800D01*
X131805341Y-86010800D01*
X131605382Y-86050574D01*
X131417024Y-86128595D01*
X131247506Y-86241863D01*
X131103343Y-86386026D01*
X130990075Y-86555544D01*
X130912054Y-86743902D01*
X130880034Y-86904880D01*
X130723301Y-86904880D01*
X130523342Y-86944654D01*
X130334984Y-87022675D01*
X130165466Y-87135943D01*
X130021303Y-87280106D01*
X129908035Y-87449624D01*
X129830014Y-87637982D01*
X129790240Y-87837941D01*
X129790240Y-87928121D01*
X129728299Y-87915800D01*
X129524421Y-87915800D01*
X129324462Y-87955574D01*
X129136104Y-88033595D01*
X128966586Y-88146863D01*
X128822423Y-88291026D01*
X128709155Y-88460544D01*
X128631134Y-88648902D01*
X128591360Y-88848861D01*
X128591360Y-89052739D01*
X128631134Y-89252698D01*
X128709155Y-89441056D01*
X128822423Y-89610574D01*
X128966586Y-89754737D01*
X129136104Y-89868005D01*
X129324462Y-89946026D01*
X129524421Y-89985800D01*
X129728299Y-89985800D01*
X129928258Y-89946026D01*
X130116616Y-89868005D01*
X130286134Y-89754737D01*
X130355071Y-89685800D01*
X131383495Y-89685800D01*
X131419600Y-89689356D01*
X131455705Y-89685800D01*
X131563685Y-89675165D01*
X131702233Y-89633137D01*
X131829920Y-89564887D01*
X131941838Y-89473038D01*
X131964859Y-89444987D01*
X132206646Y-89203200D01*
X133202135Y-89203200D01*
X133238240Y-89206756D01*
X133274345Y-89203200D01*
X133382325Y-89192565D01*
X133520873Y-89150537D01*
X133648560Y-89082287D01*
X133760478Y-88990438D01*
X133783498Y-88962388D01*
X133916473Y-88829413D01*
X133902500Y-88899661D01*
X133902500Y-89103539D01*
X133942274Y-89303498D01*
X134020295Y-89491856D01*
X134133563Y-89661374D01*
X134277726Y-89805537D01*
X134447244Y-89918805D01*
X134635602Y-89996826D01*
X134824859Y-90034471D01*
X136273800Y-91483413D01*
X136273801Y-105915226D01*
X134795028Y-107394000D01*
X114696473Y-107394000D01*
X114063520Y-106761048D01*
X114063520Y-106581887D01*
X114410618Y-106581887D01*
X114464493Y-106810968D01*
X114695084Y-106917263D01*
X114941981Y-106976528D01*
X115195696Y-106986488D01*
X115446479Y-106946759D01*
X115684693Y-106858868D01*
X115774307Y-106810968D01*
X115828182Y-106581887D01*
X115119400Y-105873105D01*
X114410618Y-106581887D01*
X114063520Y-106581887D01*
X114063520Y-106362891D01*
X114231013Y-106402282D01*
X114939795Y-105693500D01*
X115299005Y-105693500D01*
X116007787Y-106402282D01*
X116236868Y-106348407D01*
X116343163Y-106117816D01*
X116402428Y-105870919D01*
X116412388Y-105617204D01*
X116372659Y-105366421D01*
X116284768Y-105128207D01*
X116236868Y-105038593D01*
X116007787Y-104984718D01*
X115299005Y-105693500D01*
X114939795Y-105693500D01*
X114925653Y-105679358D01*
X115105258Y-105499753D01*
X115119400Y-105513895D01*
X115828182Y-104805113D01*
X115774307Y-104576032D01*
X115543716Y-104469737D01*
X115296819Y-104410472D01*
X115043104Y-104400512D01*
X114792321Y-104440241D01*
X114554107Y-104528132D01*
X114464493Y-104576032D01*
X114410619Y-104805111D01*
X114293768Y-104688260D01*
X114229495Y-104752533D01*
X114248746Y-104706058D01*
X114288520Y-104506099D01*
X114288520Y-104302221D01*
X114248746Y-104102262D01*
X114170725Y-103913904D01*
X114057457Y-103744386D01*
X114045071Y-103732000D01*
X115392554Y-103732000D01*
X117120246Y-105459693D01*
X117143262Y-105487738D01*
X117255180Y-105579587D01*
X117382867Y-105647837D01*
X117521415Y-105689865D01*
X117629395Y-105700500D01*
X117629404Y-105700500D01*
X117665499Y-105704055D01*
X117701594Y-105700500D01*
X132767795Y-105700500D01*
X132803900Y-105704056D01*
X132840005Y-105700500D01*
X132947985Y-105689865D01*
X133086533Y-105647837D01*
X133214220Y-105579587D01*
X133326138Y-105487738D01*
X133349158Y-105459688D01*
X134128673Y-104680174D01*
X134156718Y-104657158D01*
X134248567Y-104545240D01*
X134269488Y-104506099D01*
X134316817Y-104417554D01*
X134358845Y-104279005D01*
X134373036Y-104134920D01*
X134369480Y-104098815D01*
X134369480Y-103499182D01*
X134538756Y-103429065D01*
X134708274Y-103315797D01*
X134852437Y-103171634D01*
X134965705Y-103002116D01*
X135043726Y-102813758D01*
X135043917Y-102812800D01*
X135077539Y-102812800D01*
X135277498Y-102773026D01*
X135465856Y-102695005D01*
X135635374Y-102581737D01*
X135779537Y-102437574D01*
X135892805Y-102268056D01*
X135970826Y-102079698D01*
X136010600Y-101879739D01*
X136010600Y-101675861D01*
X135970826Y-101475902D01*
X135892805Y-101287544D01*
X135779537Y-101118026D01*
X135690011Y-101028500D01*
X135779537Y-100938974D01*
X135892805Y-100769456D01*
X135970826Y-100581098D01*
X136010600Y-100381139D01*
X136010600Y-100177261D01*
X135970826Y-99977302D01*
X135892805Y-99788944D01*
X135779537Y-99619426D01*
X135677311Y-99517200D01*
X135754137Y-99440374D01*
X135867405Y-99270856D01*
X135945426Y-99082498D01*
X135985200Y-98882539D01*
X135985200Y-98678661D01*
X135945426Y-98478702D01*
X135867405Y-98290344D01*
X135754137Y-98120826D01*
X135677311Y-98044000D01*
X135779537Y-97941774D01*
X135892805Y-97772256D01*
X135970826Y-97583898D01*
X136010600Y-97383939D01*
X136010600Y-97180061D01*
X135970826Y-96980102D01*
X135892805Y-96791744D01*
X135779537Y-96622226D01*
X135635374Y-96478063D01*
X135465856Y-96364795D01*
X135277498Y-96286774D01*
X135077539Y-96247000D01*
X134873661Y-96247000D01*
X134673702Y-96286774D01*
X134485344Y-96364795D01*
X134456581Y-96384014D01*
X134015110Y-95942544D01*
X134015110Y-92313707D01*
X134018665Y-92277610D01*
X134015110Y-92241513D01*
X134015110Y-92241506D01*
X134004475Y-92133526D01*
X134002954Y-92128510D01*
X133973975Y-92032981D01*
X133962447Y-91994978D01*
X133894197Y-91867291D01*
X133802348Y-91755373D01*
X133774303Y-91732357D01*
X132541257Y-90499312D01*
X132518237Y-90471262D01*
X132406319Y-90379413D01*
X132278632Y-90311163D01*
X132140084Y-90269135D01*
X132032104Y-90258500D01*
X131995999Y-90254944D01*
X131959894Y-90258500D01*
X109568111Y-90258500D01*
X109499174Y-90189563D01*
X109382202Y-90111405D01*
X109547285Y-90043025D01*
X109778222Y-89888718D01*
X109974618Y-89692322D01*
X110128925Y-89461385D01*
X110235214Y-89204782D01*
X110269628Y-89031774D01*
X110455084Y-89117263D01*
X110701981Y-89176528D01*
X110955696Y-89186488D01*
X111206479Y-89146759D01*
X111444693Y-89058868D01*
X111534307Y-89010968D01*
X111588182Y-88781887D01*
X113410618Y-88781887D01*
X113464493Y-89010968D01*
X113695084Y-89117263D01*
X113941981Y-89176528D01*
X114195696Y-89186488D01*
X114446479Y-89146759D01*
X114684693Y-89058868D01*
X114774307Y-89010968D01*
X114828182Y-88781887D01*
X114119400Y-88073105D01*
X113410618Y-88781887D01*
X111588182Y-88781887D01*
X110879400Y-88073105D01*
X110865258Y-88087248D01*
X110685653Y-87907643D01*
X110699795Y-87893500D01*
X111059005Y-87893500D01*
X111767787Y-88602282D01*
X111996868Y-88548407D01*
X112103163Y-88317816D01*
X112162428Y-88070919D01*
X112166397Y-87969796D01*
X112826412Y-87969796D01*
X112866141Y-88220579D01*
X112954032Y-88458793D01*
X113001932Y-88548407D01*
X113231013Y-88602282D01*
X113939795Y-87893500D01*
X114299005Y-87893500D01*
X115007787Y-88602282D01*
X115236868Y-88548407D01*
X115343163Y-88317816D01*
X115402428Y-88070919D01*
X115412388Y-87817204D01*
X115372659Y-87566421D01*
X115284768Y-87328207D01*
X115236868Y-87238593D01*
X115007787Y-87184718D01*
X114299005Y-87893500D01*
X113939795Y-87893500D01*
X113231013Y-87184718D01*
X113001932Y-87238593D01*
X112895637Y-87469184D01*
X112836372Y-87716081D01*
X112826412Y-87969796D01*
X112166397Y-87969796D01*
X112172388Y-87817204D01*
X112132659Y-87566421D01*
X112044768Y-87328207D01*
X111996868Y-87238593D01*
X111767787Y-87184718D01*
X111059005Y-87893500D01*
X110699795Y-87893500D01*
X109991013Y-87184718D01*
X109761932Y-87238593D01*
X109655637Y-87469184D01*
X109625189Y-87596029D01*
X109547285Y-87543975D01*
X109290682Y-87437686D01*
X109018273Y-87383500D01*
X108740527Y-87383500D01*
X108468118Y-87437686D01*
X108211515Y-87543975D01*
X108136992Y-87593770D01*
X108132659Y-87566421D01*
X108044768Y-87328207D01*
X107996868Y-87238593D01*
X107767787Y-87184718D01*
X107059005Y-87893500D01*
X107073148Y-87907643D01*
X106893543Y-88087248D01*
X106879400Y-88073105D01*
X106170618Y-88781887D01*
X105558182Y-88781887D01*
X104849400Y-88073105D01*
X104140618Y-88781887D01*
X102924044Y-88781887D01*
X102924165Y-87969796D01*
X103556412Y-87969796D01*
X103596141Y-88220579D01*
X103684032Y-88458793D01*
X103731932Y-88548407D01*
X103961013Y-88602282D01*
X104669795Y-87893500D01*
X105029005Y-87893500D01*
X105737787Y-88602282D01*
X105864400Y-88572505D01*
X105991013Y-88602282D01*
X106699795Y-87893500D01*
X105991013Y-87184718D01*
X105864400Y-87214495D01*
X105737787Y-87184718D01*
X105029005Y-87893500D01*
X104669795Y-87893500D01*
X103961013Y-87184718D01*
X103731932Y-87238593D01*
X103625637Y-87469184D01*
X103566372Y-87716081D01*
X103556412Y-87969796D01*
X102924165Y-87969796D01*
X102924308Y-87005113D01*
X104140618Y-87005113D01*
X104849400Y-87713895D01*
X105558182Y-87005113D01*
X106170618Y-87005113D01*
X106879400Y-87713895D01*
X107588182Y-87005113D01*
X110170618Y-87005113D01*
X110879400Y-87713895D01*
X111588182Y-87005113D01*
X113410618Y-87005113D01*
X114119400Y-87713895D01*
X114828182Y-87005113D01*
X114774307Y-86776032D01*
X114543716Y-86669737D01*
X114296819Y-86610472D01*
X114043104Y-86600512D01*
X113792321Y-86640241D01*
X113554107Y-86728132D01*
X113464493Y-86776032D01*
X113410618Y-87005113D01*
X111588182Y-87005113D01*
X111534307Y-86776032D01*
X111303716Y-86669737D01*
X111056819Y-86610472D01*
X110803104Y-86600512D01*
X110552321Y-86640241D01*
X110314107Y-86728132D01*
X110224493Y-86776032D01*
X110170618Y-87005113D01*
X107588182Y-87005113D01*
X107534307Y-86776032D01*
X107303716Y-86669737D01*
X107056819Y-86610472D01*
X106803104Y-86600512D01*
X106552321Y-86640241D01*
X106314107Y-86728132D01*
X106224493Y-86776032D01*
X106170618Y-87005113D01*
X105558182Y-87005113D01*
X105504307Y-86776032D01*
X105273716Y-86669737D01*
X105026819Y-86610472D01*
X104773104Y-86600512D01*
X104522321Y-86640241D01*
X104284107Y-86728132D01*
X104194493Y-86776032D01*
X104140618Y-87005113D01*
X102924308Y-87005113D01*
X102925265Y-80578787D01*
X103187592Y-80971387D01*
X103582473Y-81366268D01*
X104046804Y-81676524D01*
X104562741Y-81890232D01*
X105110457Y-81999180D01*
X105668903Y-81999180D01*
X106216619Y-81890232D01*
X106732556Y-81676524D01*
X107196887Y-81366268D01*
X107591768Y-80971387D01*
X107902024Y-80507056D01*
X108115732Y-79991119D01*
X108224680Y-79443403D01*
X108224680Y-78884957D01*
X108115732Y-78337241D01*
X107902024Y-77821304D01*
X107591768Y-77356973D01*
X107196887Y-76962092D01*
X106793519Y-76692570D01*
X138262444Y-76697239D01*
G37*
%TD.AperFunction*%
D16*
X116638401Y-101932186D02*
X116634844Y-101968300D01*
X116649035Y-102112385D01*
X116685658Y-102233111D01*
X116691064Y-102250933D01*
X116759314Y-102378620D01*
X116851163Y-102490538D01*
X116879208Y-102513554D01*
X117827957Y-103462304D01*
X117850973Y-103490349D01*
X117962891Y-103582198D01*
X118090578Y-103650448D01*
X118229126Y-103692476D01*
X118337106Y-103703111D01*
X118337115Y-103703111D01*
X118373210Y-103706666D01*
X118409305Y-103703111D01*
X131063683Y-103703111D01*
X131099788Y-103706667D01*
X131135893Y-103703111D01*
X131243873Y-103692476D01*
X131382421Y-103650448D01*
X131510108Y-103582198D01*
X131622026Y-103490349D01*
X131645047Y-103462298D01*
X132411800Y-102695545D01*
X132411801Y-103632353D01*
X132213664Y-103830490D01*
X118135635Y-103830490D01*
X116004457Y-101699312D01*
X115981436Y-101671262D01*
X115869518Y-101579413D01*
X115741831Y-101511163D01*
X115603283Y-101469135D01*
X115495303Y-101458500D01*
X115459198Y-101454944D01*
X115423093Y-101458500D01*
X109518111Y-101458500D01*
X109453111Y-101393500D01*
X109518111Y-101328500D01*
X116638400Y-101328500D01*
X116638401Y-101932186D01*
%TA.AperFunction,Conductor*%
D17*
G36*
X116638401Y-101932186D02*
G01*
X116634844Y-101968300D01*
X116649035Y-102112385D01*
X116685658Y-102233111D01*
X116691064Y-102250933D01*
X116759314Y-102378620D01*
X116851163Y-102490538D01*
X116879208Y-102513554D01*
X117827957Y-103462304D01*
X117850973Y-103490349D01*
X117962891Y-103582198D01*
X118090578Y-103650448D01*
X118229126Y-103692476D01*
X118337106Y-103703111D01*
X118337115Y-103703111D01*
X118373210Y-103706666D01*
X118409305Y-103703111D01*
X131063683Y-103703111D01*
X131099788Y-103706667D01*
X131135893Y-103703111D01*
X131243873Y-103692476D01*
X131382421Y-103650448D01*
X131510108Y-103582198D01*
X131622026Y-103490349D01*
X131645047Y-103462298D01*
X132411800Y-102695545D01*
X132411801Y-103632353D01*
X132213664Y-103830490D01*
X118135635Y-103830490D01*
X116004457Y-101699312D01*
X115981436Y-101671262D01*
X115869518Y-101579413D01*
X115741831Y-101511163D01*
X115603283Y-101469135D01*
X115495303Y-101458500D01*
X115459198Y-101454944D01*
X115423093Y-101458500D01*
X109518111Y-101458500D01*
X109453111Y-101393500D01*
X109518111Y-101328500D01*
X116638400Y-101328500D01*
X116638401Y-101932186D01*
G37*
%TD.AperFunction*%
D16*
X139279960Y-102469033D02*
X139122661Y-102626333D01*
X139042176Y-102572555D01*
X138853818Y-102494534D01*
X138653859Y-102454760D01*
X138449981Y-102454760D01*
X138250022Y-102494534D01*
X138061664Y-102572555D01*
X137893800Y-102684718D01*
X137893800Y-93061283D01*
X138026104Y-93149685D01*
X138214462Y-93227706D01*
X138414421Y-93267480D01*
X138618299Y-93267480D01*
X138818258Y-93227706D01*
X139006616Y-93149685D01*
X139176134Y-93036417D01*
X139279961Y-92932590D01*
X139279960Y-102469033D01*
%TA.AperFunction,Conductor*%
D17*
G36*
X139279960Y-102469033D02*
G01*
X139122661Y-102626333D01*
X139042176Y-102572555D01*
X138853818Y-102494534D01*
X138653859Y-102454760D01*
X138449981Y-102454760D01*
X138250022Y-102494534D01*
X138061664Y-102572555D01*
X137893800Y-102684718D01*
X137893800Y-93061283D01*
X138026104Y-93149685D01*
X138214462Y-93227706D01*
X138414421Y-93267480D01*
X138618299Y-93267480D01*
X138818258Y-93227706D01*
X139006616Y-93149685D01*
X139176134Y-93036417D01*
X139279961Y-92932590D01*
X139279960Y-102469033D01*
G37*
%TD.AperFunction*%
D16*
X128932001Y-94970247D02*
X128932000Y-98167274D01*
X128928444Y-98203379D01*
X128932000Y-98239483D01*
X128942635Y-98347463D01*
X128984663Y-98486011D01*
X129052913Y-98613698D01*
X129144762Y-98725616D01*
X129172808Y-98748633D01*
X130427947Y-100003773D01*
X130450963Y-100031818D01*
X130562881Y-100123667D01*
X130690568Y-100191917D01*
X130787087Y-100221196D01*
X130829115Y-100233945D01*
X130832517Y-100234280D01*
X130868661Y-100237840D01*
X130818907Y-100330924D01*
X130800764Y-100364867D01*
X130758735Y-100503415D01*
X130744544Y-100647500D01*
X130748101Y-100683615D01*
X130748100Y-101714653D01*
X130629653Y-101833101D01*
X118843346Y-101833101D01*
X118549999Y-101539755D01*
X118549999Y-100680704D01*
X118553555Y-100644599D01*
X118539364Y-100500514D01*
X118497336Y-100361965D01*
X118429086Y-100234279D01*
X118360252Y-100150405D01*
X118360249Y-100150402D01*
X118337236Y-100122361D01*
X118309196Y-100099349D01*
X117800317Y-99590471D01*
X117777297Y-99562421D01*
X117665379Y-99470572D01*
X117537692Y-99402322D01*
X117399144Y-99360294D01*
X117291164Y-99349659D01*
X117255059Y-99346103D01*
X117218954Y-99349659D01*
X109837905Y-99349659D01*
X109788119Y-99299873D01*
X109765098Y-99271822D01*
X109653180Y-99179973D01*
X109525493Y-99111723D01*
X109386945Y-99069695D01*
X109278965Y-99059060D01*
X109242860Y-99055504D01*
X109206755Y-99059060D01*
X108526311Y-99059060D01*
X108457374Y-98990123D01*
X108456843Y-98989768D01*
X108518111Y-98928500D01*
X123205149Y-98928500D01*
X123256666Y-98980017D01*
X123426184Y-99093285D01*
X123614542Y-99171306D01*
X123814501Y-99211080D01*
X124018379Y-99211080D01*
X124218338Y-99171306D01*
X124406696Y-99093285D01*
X124576214Y-98980017D01*
X124720377Y-98835854D01*
X124833645Y-98666336D01*
X124911666Y-98477978D01*
X124924233Y-98414798D01*
X125053998Y-98388986D01*
X125242356Y-98310965D01*
X125411874Y-98197697D01*
X125556037Y-98053534D01*
X125669305Y-97884016D01*
X125747326Y-97695658D01*
X125787100Y-97495699D01*
X125787100Y-97291821D01*
X125747326Y-97091862D01*
X125669305Y-96903504D01*
X125556037Y-96733986D01*
X125411874Y-96589823D01*
X125242356Y-96476555D01*
X125053998Y-96398534D01*
X124970230Y-96381872D01*
X124952306Y-96291762D01*
X124874285Y-96103404D01*
X124761017Y-95933886D01*
X124616854Y-95789723D01*
X124447336Y-95676455D01*
X124258978Y-95598434D01*
X124059019Y-95558660D01*
X123855141Y-95558660D01*
X123655182Y-95598434D01*
X123466824Y-95676455D01*
X123297306Y-95789723D01*
X123228529Y-95858500D01*
X121547923Y-95858500D01*
X121586337Y-95786633D01*
X121628365Y-95648085D01*
X121628544Y-95646267D01*
X121707937Y-95566874D01*
X121821205Y-95397356D01*
X121899226Y-95208998D01*
X121939000Y-95009039D01*
X121939000Y-94928500D01*
X128890254Y-94928500D01*
X128932001Y-94970247D01*
%TA.AperFunction,Conductor*%
D17*
G36*
X128932001Y-94970247D02*
G01*
X128932000Y-98167274D01*
X128928444Y-98203379D01*
X128932000Y-98239483D01*
X128942635Y-98347463D01*
X128984663Y-98486011D01*
X129052913Y-98613698D01*
X129144762Y-98725616D01*
X129172808Y-98748633D01*
X130427947Y-100003773D01*
X130450963Y-100031818D01*
X130562881Y-100123667D01*
X130690568Y-100191917D01*
X130787087Y-100221196D01*
X130829115Y-100233945D01*
X130832517Y-100234280D01*
X130868661Y-100237840D01*
X130818907Y-100330924D01*
X130800764Y-100364867D01*
X130758735Y-100503415D01*
X130744544Y-100647500D01*
X130748101Y-100683615D01*
X130748100Y-101714653D01*
X130629653Y-101833101D01*
X118843346Y-101833101D01*
X118549999Y-101539755D01*
X118549999Y-100680704D01*
X118553555Y-100644599D01*
X118539364Y-100500514D01*
X118497336Y-100361965D01*
X118429086Y-100234279D01*
X118360252Y-100150405D01*
X118360249Y-100150402D01*
X118337236Y-100122361D01*
X118309196Y-100099349D01*
X117800317Y-99590471D01*
X117777297Y-99562421D01*
X117665379Y-99470572D01*
X117537692Y-99402322D01*
X117399144Y-99360294D01*
X117291164Y-99349659D01*
X117255059Y-99346103D01*
X117218954Y-99349659D01*
X109837905Y-99349659D01*
X109788119Y-99299873D01*
X109765098Y-99271822D01*
X109653180Y-99179973D01*
X109525493Y-99111723D01*
X109386945Y-99069695D01*
X109278965Y-99059060D01*
X109242860Y-99055504D01*
X109206755Y-99059060D01*
X108526311Y-99059060D01*
X108457374Y-98990123D01*
X108456843Y-98989768D01*
X108518111Y-98928500D01*
X123205149Y-98928500D01*
X123256666Y-98980017D01*
X123426184Y-99093285D01*
X123614542Y-99171306D01*
X123814501Y-99211080D01*
X124018379Y-99211080D01*
X124218338Y-99171306D01*
X124406696Y-99093285D01*
X124576214Y-98980017D01*
X124720377Y-98835854D01*
X124833645Y-98666336D01*
X124911666Y-98477978D01*
X124924233Y-98414798D01*
X125053998Y-98388986D01*
X125242356Y-98310965D01*
X125411874Y-98197697D01*
X125556037Y-98053534D01*
X125669305Y-97884016D01*
X125747326Y-97695658D01*
X125787100Y-97495699D01*
X125787100Y-97291821D01*
X125747326Y-97091862D01*
X125669305Y-96903504D01*
X125556037Y-96733986D01*
X125411874Y-96589823D01*
X125242356Y-96476555D01*
X125053998Y-96398534D01*
X124970230Y-96381872D01*
X124952306Y-96291762D01*
X124874285Y-96103404D01*
X124761017Y-95933886D01*
X124616854Y-95789723D01*
X124447336Y-95676455D01*
X124258978Y-95598434D01*
X124059019Y-95558660D01*
X123855141Y-95558660D01*
X123655182Y-95598434D01*
X123466824Y-95676455D01*
X123297306Y-95789723D01*
X123228529Y-95858500D01*
X121547923Y-95858500D01*
X121586337Y-95786633D01*
X121628365Y-95648085D01*
X121628544Y-95646267D01*
X121707937Y-95566874D01*
X121821205Y-95397356D01*
X121899226Y-95208998D01*
X121939000Y-95009039D01*
X121939000Y-94928500D01*
X128890254Y-94928500D01*
X128932001Y-94970247D01*
G37*
%TD.AperFunction*%
D16*
X132145100Y-92747747D02*
X132145101Y-96712485D01*
X132145100Y-96712495D01*
X132145100Y-96852195D01*
X132141544Y-96888300D01*
X132145100Y-96924404D01*
X132155735Y-97032384D01*
X132197763Y-97170932D01*
X132266013Y-97298619D01*
X132357862Y-97410537D01*
X132385908Y-97433554D01*
X132967780Y-98015427D01*
X132967780Y-98045600D01*
X131114367Y-98045600D01*
X130802010Y-97733244D01*
X130802010Y-94536205D01*
X130805565Y-94500110D01*
X130802010Y-94464015D01*
X130802010Y-94464006D01*
X130791375Y-94356026D01*
X130749347Y-94217478D01*
X130681097Y-94089791D01*
X130669638Y-94075828D01*
X130636687Y-94014181D01*
X130544838Y-93902262D01*
X130516793Y-93879246D01*
X129936848Y-93299302D01*
X129913828Y-93271252D01*
X129801910Y-93179403D01*
X129674223Y-93111153D01*
X129535675Y-93069125D01*
X129427695Y-93058490D01*
X129391590Y-93054934D01*
X129355485Y-93058490D01*
X109998336Y-93058490D01*
X109841459Y-92901613D01*
X109818438Y-92873562D01*
X109706520Y-92781713D01*
X109578833Y-92713463D01*
X109440285Y-92671435D01*
X109332305Y-92660800D01*
X109296200Y-92657244D01*
X109260095Y-92660800D01*
X108549171Y-92660800D01*
X108480234Y-92591863D01*
X108464956Y-92581655D01*
X108518111Y-92528500D01*
X109262195Y-92528500D01*
X109298300Y-92532056D01*
X109334405Y-92528500D01*
X109442385Y-92517865D01*
X109580933Y-92475837D01*
X109708620Y-92407587D01*
X109820538Y-92315738D01*
X109843559Y-92287687D01*
X110002736Y-92128510D01*
X131525864Y-92128510D01*
X132145100Y-92747747D01*
%TA.AperFunction,Conductor*%
D17*
G36*
X132145100Y-92747747D02*
G01*
X132145101Y-96712485D01*
X132145100Y-96712495D01*
X132145100Y-96852195D01*
X132141544Y-96888300D01*
X132145100Y-96924404D01*
X132155735Y-97032384D01*
X132197763Y-97170932D01*
X132266013Y-97298619D01*
X132357862Y-97410537D01*
X132385908Y-97433554D01*
X132967780Y-98015427D01*
X132967780Y-98045600D01*
X131114367Y-98045600D01*
X130802010Y-97733244D01*
X130802010Y-94536205D01*
X130805565Y-94500110D01*
X130802010Y-94464015D01*
X130802010Y-94464006D01*
X130791375Y-94356026D01*
X130749347Y-94217478D01*
X130681097Y-94089791D01*
X130669638Y-94075828D01*
X130636687Y-94014181D01*
X130544838Y-93902262D01*
X130516793Y-93879246D01*
X129936848Y-93299302D01*
X129913828Y-93271252D01*
X129801910Y-93179403D01*
X129674223Y-93111153D01*
X129535675Y-93069125D01*
X129427695Y-93058490D01*
X129391590Y-93054934D01*
X129355485Y-93058490D01*
X109998336Y-93058490D01*
X109841459Y-92901613D01*
X109818438Y-92873562D01*
X109706520Y-92781713D01*
X109578833Y-92713463D01*
X109440285Y-92671435D01*
X109332305Y-92660800D01*
X109296200Y-92657244D01*
X109260095Y-92660800D01*
X108549171Y-92660800D01*
X108480234Y-92591863D01*
X108464956Y-92581655D01*
X108518111Y-92528500D01*
X109262195Y-92528500D01*
X109298300Y-92532056D01*
X109334405Y-92528500D01*
X109442385Y-92517865D01*
X109580933Y-92475837D01*
X109708620Y-92407587D01*
X109820538Y-92315738D01*
X109843559Y-92287687D01*
X110002736Y-92128510D01*
X131525864Y-92128510D01*
X132145100Y-92747747D01*
G37*
%TD.AperFunction*%
D16*
X138736400Y-88625327D02*
X138736401Y-90972992D01*
X138511913Y-91197480D01*
X138414421Y-91197480D01*
X138214462Y-91237254D01*
X138026104Y-91315275D01*
X137893800Y-91403677D01*
X137893800Y-91187691D01*
X137897719Y-91147900D01*
X137882080Y-90989112D01*
X137835763Y-90836426D01*
X137760549Y-90695711D01*
X137730019Y-90658510D01*
X137659328Y-90572372D01*
X137628419Y-90547006D01*
X135970371Y-88888959D01*
X135932726Y-88699702D01*
X135854705Y-88511344D01*
X135831597Y-88476760D01*
X138587834Y-88476760D01*
X138736400Y-88625327D01*
%TA.AperFunction,Conductor*%
D17*
G36*
X138736400Y-88625327D02*
G01*
X138736401Y-90972992D01*
X138511913Y-91197480D01*
X138414421Y-91197480D01*
X138214462Y-91237254D01*
X138026104Y-91315275D01*
X137893800Y-91403677D01*
X137893800Y-91187691D01*
X137897719Y-91147900D01*
X137882080Y-90989112D01*
X137835763Y-90836426D01*
X137760549Y-90695711D01*
X137730019Y-90658510D01*
X137659328Y-90572372D01*
X137628419Y-90547006D01*
X135970371Y-88888959D01*
X135932726Y-88699702D01*
X135854705Y-88511344D01*
X135831597Y-88476760D01*
X138587834Y-88476760D01*
X138736400Y-88625327D01*
G37*
%TD.AperFunction*%
%TD*%
M02*
