%TF.GenerationSoftware,KiCad,Pcbnew,5.1.10-88a1d61d58~88~ubuntu18.04.1*%
%TF.CreationDate,2021-08-07T17:00:25+07:00*%
%TF.ProjectId,MX8Mx_EVK_MIPI_CSI-TEKNIQUE_OCLEA_OS08A20-ADAPTER,4d58384d-785f-4455-964b-5f4d4950495f,rev?*%
%TF.SameCoordinates,Original*%
%TF.FileFunction,Copper,L1,Top*%
%TF.FilePolarity,Positive*%
%FSLAX46Y46*%
G04 Gerber Fmt 4.6, Leading zero omitted, Abs format (unit mm)*
G04 Created by KiCad (PCBNEW 5.1.10-88a1d61d58~88~ubuntu18.04.1) date 2021-08-07 17:00:25*
%MOMM*%
%LPD*%
G01*
G04 APERTURE LIST*
%TA.AperFunction,SMDPad,CuDef*%
%ADD10R,3.100000X2.300000*%
%TD*%
%TA.AperFunction,SMDPad,CuDef*%
%ADD11R,1.100000X0.300000*%
%TD*%
%TA.AperFunction,SMDPad,CuDef*%
%ADD12C,1.000000*%
%TD*%
%TA.AperFunction,SMDPad,CuDef*%
%ADD13R,1.358900X0.355600*%
%TD*%
%TA.AperFunction,SMDPad,CuDef*%
%ADD14R,0.450000X0.300000*%
%TD*%
%TA.AperFunction,ComponentPad*%
%ADD15C,4.400000*%
%TD*%
%TA.AperFunction,SMDPad,CuDef*%
%ADD16R,1.800000X0.350000*%
%TD*%
%TA.AperFunction,ComponentPad*%
%ADD17C,1.308000*%
%TD*%
%TA.AperFunction,ViaPad*%
%ADD18C,0.800000*%
%TD*%
%TA.AperFunction,Conductor*%
%ADD19C,0.250000*%
%TD*%
%TA.AperFunction,Conductor*%
%ADD20C,0.200000*%
%TD*%
%TA.AperFunction,Conductor*%
%ADD21C,0.300000*%
%TD*%
%TA.AperFunction,Conductor*%
%ADD22C,0.350000*%
%TD*%
%TA.AperFunction,Conductor*%
%ADD23C,0.254000*%
%TD*%
%TA.AperFunction,Conductor*%
%ADD24C,0.100000*%
%TD*%
G04 APERTURE END LIST*
D10*
%TO.P,J2,34*%
%TO.N,GND*%
X138703040Y-87105080D03*
%TO.P,J2,33*%
X138703040Y-105945080D03*
D11*
%TO.P,J2,32*%
%TO.N,+5V*%
X137003040Y-88775080D03*
%TO.P,J2,31*%
%TO.N,+3V3*%
X137003040Y-89275080D03*
%TO.P,J2,30*%
X137003040Y-89775080D03*
%TO.P,J2,29*%
X137003040Y-90275080D03*
%TO.P,J2,28*%
%TO.N,GND*%
X137003040Y-90775080D03*
%TO.P,J2,27*%
X137003040Y-91275080D03*
%TO.P,J2,26*%
%TO.N,/SENS_EN_3V3*%
X137003040Y-91775080D03*
%TO.P,J2,25*%
%TO.N,/SENS_RST_3V3*%
X137003040Y-92275080D03*
%TO.P,J2,24*%
%TO.N,/CLK_SI_3V3*%
X137003040Y-92775080D03*
%TO.P,J2,23*%
%TO.N,GND*%
X137003040Y-93275080D03*
%TO.P,J2,22*%
%TO.N,/SHSYNC*%
X137003040Y-93775080D03*
%TO.P,J2,21*%
%TO.N,/SVSYNC*%
X137003040Y-94275080D03*
%TO.P,J2,20*%
%TO.N,/IRCUT_CE*%
X137003040Y-94775080D03*
%TO.P,J2,19*%
%TO.N,/IRCUT_SW*%
X137003040Y-95275080D03*
%TO.P,J2,18*%
%TO.N,/I2C_CLK_3V3*%
X137003040Y-95775080D03*
%TO.P,J2,17*%
%TO.N,/I2C_DAT_3V3*%
X137003040Y-96275080D03*
%TO.P,J2,16*%
%TO.N,GND*%
X137003040Y-96775080D03*
%TO.P,J2,15*%
%TO.N,/CSI_DN0__SD_LVDS0_N*%
X137003040Y-97275080D03*
%TO.P,J2,14*%
%TO.N,/CSI_DP0__SD_LVDS0_P*%
X137003040Y-97775080D03*
%TO.P,J2,13*%
%TO.N,GND*%
X137003040Y-98275080D03*
%TO.P,J2,12*%
%TO.N,/CSI_DN1__SD_LVDS1_N*%
X137003040Y-98775080D03*
%TO.P,J2,11*%
%TO.N,/CSI_DP1__SD_LVDS1_P*%
X137003040Y-99275080D03*
%TO.P,J2,10*%
%TO.N,GND*%
X137003040Y-99775080D03*
%TO.P,J2,9*%
%TO.N,/CSI_DN2__SD_LVDS2_N*%
X137003040Y-100275080D03*
%TO.P,J2,8*%
%TO.N,/CSI_DP2__SD_LVDS2_P*%
X137003040Y-100775080D03*
%TO.P,J2,7*%
%TO.N,GND*%
X137003040Y-101275080D03*
%TO.P,J2,6*%
%TO.N,/CSI_DN3__SD_LVDS3_N*%
X137003040Y-101775080D03*
%TO.P,J2,5*%
%TO.N,/CSI_DP3__SD_LVDS3_P*%
X137003040Y-102275080D03*
%TO.P,J2,4*%
%TO.N,GND*%
X137003040Y-102775080D03*
%TO.P,J2,3*%
%TO.N,/CSI_CLK_N__SPCLK_LVDS0_N*%
X137003040Y-103275080D03*
%TO.P,J2,2*%
%TO.N,/CSI_CLK_P__SPCLK_LVDS0_P*%
X137003040Y-103775080D03*
%TO.P,J2,1*%
%TO.N,GND*%
X137003040Y-104275080D03*
%TD*%
D12*
%TO.P,TP5,1*%
%TO.N,/SHSYNC*%
X134371080Y-91638120D03*
%TD*%
%TO.P,TP4,1*%
%TO.N,/SVSYNC*%
X132765800Y-92964000D03*
%TD*%
%TO.P,TP3,1*%
%TO.N,/IRCUT_CE*%
X134391400Y-94188280D03*
%TD*%
%TO.P,TP2,1*%
%TO.N,/IRCUT_SW*%
X132765800Y-95453200D03*
%TD*%
%TO.P,TP1,1*%
%TO.N,/CSI_SYNC_1V8*%
X114846100Y-96507300D03*
%TD*%
D13*
%TO.P,U1,14*%
%TO.N,+1V8*%
X128238250Y-95840001D03*
%TO.P,U1,13*%
%TO.N,+3V3*%
X128238250Y-96490000D03*
%TO.P,U1,12*%
%TO.N,/SENS_EN_3V3*%
X128238250Y-97140001D03*
%TO.P,U1,11*%
%TO.N,/SENS_RST_3V3*%
X128238250Y-97790000D03*
%TO.P,U1,10*%
%TO.N,/I2C_CLK_3V3*%
X128238250Y-98440001D03*
%TO.P,U1,9*%
%TO.N,Net-(U1-Pad9)*%
X128238250Y-99090000D03*
%TO.P,U1,8*%
%TO.N,/I2C_DAT_3V3*%
X128238250Y-99740001D03*
%TO.P,U1,7*%
%TO.N,GND*%
X122485150Y-99739999D03*
%TO.P,U1,6*%
%TO.N,Net-(U1-Pad6)*%
X122485150Y-99090000D03*
%TO.P,U1,5*%
%TO.N,/I2C_SDA_1V8*%
X122485150Y-98439999D03*
%TO.P,U1,4*%
%TO.N,/I2C_SCL_1V8*%
X122485150Y-97790000D03*
%TO.P,U1,3*%
%TO.N,/CSI_nRST_1V8*%
X122485150Y-97140001D03*
%TO.P,U1,2*%
%TO.N,/CSI_PWDN_1V8*%
X122485150Y-96490000D03*
%TO.P,U1,1*%
%TO.N,+1V8*%
X122485150Y-95839999D03*
%TD*%
%TO.P,C2,2*%
%TO.N,GND*%
%TA.AperFunction,SMDPad,CuDef*%
G36*
G01*
X128482100Y-92957600D02*
X128007100Y-92957600D01*
G75*
G02*
X127769600Y-92720100I0J237500D01*
G01*
X127769600Y-92120100D01*
G75*
G02*
X128007100Y-91882600I237500J0D01*
G01*
X128482100Y-91882600D01*
G75*
G02*
X128719600Y-92120100I0J-237500D01*
G01*
X128719600Y-92720100D01*
G75*
G02*
X128482100Y-92957600I-237500J0D01*
G01*
G37*
%TD.AperFunction*%
%TO.P,C2,1*%
%TO.N,+1V8*%
%TA.AperFunction,SMDPad,CuDef*%
G36*
G01*
X128482100Y-94682600D02*
X128007100Y-94682600D01*
G75*
G02*
X127769600Y-94445100I0J237500D01*
G01*
X127769600Y-93845100D01*
G75*
G02*
X128007100Y-93607600I237500J0D01*
G01*
X128482100Y-93607600D01*
G75*
G02*
X128719600Y-93845100I0J-237500D01*
G01*
X128719600Y-94445100D01*
G75*
G02*
X128482100Y-94682600I-237500J0D01*
G01*
G37*
%TD.AperFunction*%
%TD*%
%TO.P,C1,2*%
%TO.N,GND*%
%TA.AperFunction,SMDPad,CuDef*%
G36*
G01*
X125079880Y-91634300D02*
X125079880Y-92109300D01*
G75*
G02*
X124842380Y-92346800I-237500J0D01*
G01*
X124242380Y-92346800D01*
G75*
G02*
X124004880Y-92109300I0J237500D01*
G01*
X124004880Y-91634300D01*
G75*
G02*
X124242380Y-91396800I237500J0D01*
G01*
X124842380Y-91396800D01*
G75*
G02*
X125079880Y-91634300I0J-237500D01*
G01*
G37*
%TD.AperFunction*%
%TO.P,C1,1*%
%TO.N,+3V3*%
%TA.AperFunction,SMDPad,CuDef*%
G36*
G01*
X126804880Y-91634300D02*
X126804880Y-92109300D01*
G75*
G02*
X126567380Y-92346800I-237500J0D01*
G01*
X125967380Y-92346800D01*
G75*
G02*
X125729880Y-92109300I0J237500D01*
G01*
X125729880Y-91634300D01*
G75*
G02*
X125967380Y-91396800I237500J0D01*
G01*
X126567380Y-91396800D01*
G75*
G02*
X126804880Y-91634300I0J-237500D01*
G01*
G37*
%TD.AperFunction*%
%TD*%
D14*
%TO.P,U2,4*%
%TO.N,/CLK_SI_3V3*%
X126036300Y-94314900D03*
%TO.P,U2,2*%
%TO.N,/CSI_MCLK_1V8*%
X124636300Y-93814900D03*
%TO.P,U2,5*%
%TO.N,+3V3*%
X126036300Y-93314900D03*
%TO.P,U2,3*%
%TO.N,GND*%
X124636300Y-94314900D03*
%TO.P,U2,1*%
%TO.N,Net-(U2-Pad1)*%
X124636300Y-93314900D03*
%TD*%
%TO.P,R1,2*%
%TO.N,/CSI_MCLK_1V8*%
%TA.AperFunction,SMDPad,CuDef*%
G36*
G01*
X122069439Y-93471440D02*
X122969441Y-93471440D01*
G75*
G02*
X123219440Y-93721439I0J-249999D01*
G01*
X123219440Y-94421441D01*
G75*
G02*
X122969441Y-94671440I-249999J0D01*
G01*
X122069439Y-94671440D01*
G75*
G02*
X121819440Y-94421441I0J249999D01*
G01*
X121819440Y-93721439D01*
G75*
G02*
X122069439Y-93471440I249999J0D01*
G01*
G37*
%TD.AperFunction*%
%TO.P,R1,1*%
%TO.N,/CLK_SI_3V3*%
%TA.AperFunction,SMDPad,CuDef*%
G36*
G01*
X122069439Y-91471440D02*
X122969441Y-91471440D01*
G75*
G02*
X123219440Y-91721439I0J-249999D01*
G01*
X123219440Y-92421441D01*
G75*
G02*
X122969441Y-92671440I-249999J0D01*
G01*
X122069439Y-92671440D01*
G75*
G02*
X121819440Y-92421441I0J249999D01*
G01*
X121819440Y-91721439D01*
G75*
G02*
X122069439Y-91471440I249999J0D01*
G01*
G37*
%TD.AperFunction*%
%TD*%
D15*
%TO.P,H4,1*%
%TO.N,N/C*%
X139646660Y-79181960D03*
%TD*%
%TO.P,H3,1*%
%TO.N,N/C*%
X139552680Y-113235740D03*
%TD*%
%TO.P,H2,1*%
%TO.N,N/C*%
X105514140Y-113238280D03*
%TD*%
%TO.P,H1,1*%
%TO.N,N/C*%
X105389680Y-79164180D03*
%TD*%
D16*
%TO.P,J1,B1*%
%TO.N,GND*%
X111789400Y-89793500D03*
%TO.P,J1,B2*%
%TO.N,/CSI_CLK_N__SPCLK_LVDS0_N*%
X111789400Y-90593500D03*
%TO.P,J1,B3*%
%TO.N,/CSI_CLK_P__SPCLK_LVDS0_P*%
X111789400Y-91393500D03*
%TO.P,J1,B4*%
%TO.N,GND*%
X111789400Y-92193500D03*
%TO.P,J1,B5*%
%TO.N,+1V8*%
X111789400Y-92993500D03*
%TO.P,J1,B6*%
X111789400Y-93793500D03*
%TO.P,J1,B7*%
%TO.N,GND*%
X111789400Y-94593500D03*
%TO.P,J1,B8*%
%TO.N,Net-(J1-PadB8)*%
X111789400Y-95393500D03*
%TO.P,J1,B9*%
%TO.N,Net-(J1-PadB9)*%
X111789400Y-96193500D03*
%TO.P,J1,B10*%
%TO.N,/CSI_SYNC_1V8*%
X111789400Y-96993500D03*
%TO.P,J1,B11*%
%TO.N,/CSI_PWDN_1V8*%
X111789400Y-97793500D03*
%TO.P,J1,B12*%
%TO.N,GND*%
X111789400Y-98593500D03*
%TO.P,J1,B13*%
%TO.N,+3V3*%
X111789400Y-99393500D03*
%TO.P,J1,B14*%
X111789400Y-100193500D03*
%TO.P,J1,B15*%
%TO.N,GND*%
X111789400Y-100993500D03*
%TO.P,J1,B16*%
%TO.N,+5V*%
X111789400Y-101793500D03*
%TO.P,J1,B17*%
X111789400Y-102593500D03*
%TO.P,J1,B18*%
%TO.N,GND*%
X111789400Y-103393500D03*
%TO.P,J1,A1*%
X105969400Y-90193500D03*
%TO.P,J1,A2*%
%TO.N,/CSI_DN0__SD_LVDS0_N*%
X105969400Y-90993500D03*
%TO.P,J1,A3*%
%TO.N,/CSI_DP0__SD_LVDS0_P*%
X105969400Y-91793500D03*
%TO.P,J1,A4*%
%TO.N,GND*%
X105969400Y-92593500D03*
%TO.P,J1,A5*%
%TO.N,/CSI_DN1__SD_LVDS1_N*%
X105969400Y-93393500D03*
%TO.P,J1,A6*%
%TO.N,/CSI_DP1__SD_LVDS1_P*%
X105969400Y-94193500D03*
%TO.P,J1,A7*%
%TO.N,GND*%
X105969400Y-94993500D03*
%TO.P,J1,A8*%
%TO.N,/CSI_MCLK_1V8*%
X105969400Y-95793500D03*
%TO.P,J1,A9*%
%TO.N,/CSI_nRST_1V8*%
X105969400Y-96593500D03*
%TO.P,J1,A10*%
%TO.N,/I2C_SDA_1V8*%
X105969400Y-97393500D03*
%TO.P,J1,A11*%
%TO.N,/I2C_SCL_1V8*%
X105969400Y-98193500D03*
%TO.P,J1,A12*%
%TO.N,GND*%
X105969400Y-98993500D03*
%TO.P,J1,A13*%
%TO.N,/CSI_DN2__SD_LVDS2_N*%
X105969400Y-99793500D03*
%TO.P,J1,A14*%
%TO.N,/CSI_DP2__SD_LVDS2_P*%
X105969400Y-100593500D03*
%TO.P,J1,A15*%
%TO.N,GND*%
X105969400Y-101393500D03*
%TO.P,J1,A16*%
%TO.N,/CSI_DN3__SD_LVDS3_N*%
X105969400Y-102193500D03*
%TO.P,J1,A17*%
%TO.N,/CSI_DP3__SD_LVDS3_P*%
X105969400Y-102993500D03*
%TO.P,J1,A18*%
%TO.N,GND*%
X105969400Y-103793500D03*
D17*
%TO.P,J1,S1*%
X114119400Y-87893500D03*
%TO.P,J1,S2*%
X110879400Y-87893500D03*
%TO.P,J1,S3*%
X106879400Y-87893500D03*
%TO.P,J1,S4*%
X104849400Y-87893500D03*
%TO.P,J1,S5*%
X115119400Y-105693500D03*
%TO.P,J1,S6*%
X110879400Y-105693500D03*
%TO.P,J1,S7*%
X106879400Y-105693500D03*
%TO.P,J1,S8*%
X104849400Y-105693500D03*
%TD*%
D18*
%TO.N,GND*%
X104129840Y-95011240D03*
X104140000Y-92608400D03*
X104109520Y-99024440D03*
X104091740Y-103794560D03*
X104140000Y-90703400D03*
X104096820Y-101396800D03*
X124536200Y-89052400D03*
X117652800Y-89052400D03*
X115671600Y-89789000D03*
X125831600Y-99072700D03*
X129628900Y-92430600D03*
X138546840Y-90754200D03*
X138630660Y-99783900D03*
X138572240Y-96784160D03*
X138602720Y-98277680D03*
X138617960Y-101279960D03*
X117690900Y-92583000D03*
X117614700Y-99072700D03*
X125768100Y-105918000D03*
X129565400Y-105905300D03*
X117716300Y-83553300D03*
X122110500Y-83527900D03*
X122008900Y-105879900D03*
X125755400Y-83540600D03*
X129590800Y-83540600D03*
X133388100Y-83540600D03*
X133578600Y-105892600D03*
X117678200Y-105803700D03*
X132105400Y-103479600D03*
X129527300Y-101536500D03*
X122008900Y-101561900D03*
%TO.N,/CSI_DN0__SD_LVDS0_N*%
X134975600Y-97282000D03*
X108839400Y-90993500D03*
%TO.N,/CSI_DP0__SD_LVDS0_P*%
X134002780Y-98010980D03*
X107789400Y-91793500D03*
%TO.N,/CSI_DN1__SD_LVDS1_N*%
X134950200Y-98780600D03*
X107820460Y-93395800D03*
%TO.N,/CSI_DP1__SD_LVDS1_P*%
X134030720Y-99509580D03*
X108789400Y-94193500D03*
%TO.N,/CSI_nRST_1V8*%
X123957080Y-96593660D03*
X107789400Y-96593500D03*
%TO.N,/I2C_SDA_1V8*%
X124752100Y-97393760D03*
X108789400Y-97393500D03*
%TO.N,/I2C_SCL_1V8*%
X123916440Y-98176080D03*
X107789400Y-98193500D03*
%TO.N,/CSI_DN2__SD_LVDS2_N*%
X134975600Y-100279200D03*
X107797600Y-99794060D03*
%TO.N,/CSI_DP2__SD_LVDS2_P*%
X134053580Y-101013260D03*
X108789400Y-100593500D03*
%TO.N,/CSI_DN3__SD_LVDS3_N*%
X134975600Y-101777800D03*
X108789400Y-102193500D03*
%TO.N,/CSI_DP3__SD_LVDS3_P*%
X134048500Y-102511860D03*
X107772200Y-102997000D03*
%TO.N,/CSI_CLK_N__SPCLK_LVDS0_N*%
X138551920Y-103489760D03*
X130825240Y-87939880D03*
%TO.N,/CSI_CLK_P__SPCLK_LVDS0_P*%
X140187680Y-103784400D03*
X131907280Y-87045800D03*
%TO.N,+5V*%
X134937500Y-89001600D03*
X113253520Y-104404160D03*
%TO.N,/CLK_SI_3V3*%
X129626360Y-88950800D03*
X138516360Y-92232480D03*
%TO.N,/CSI_MCLK_1V8*%
X120904000Y-94907100D03*
X108789400Y-95793500D03*
%TD*%
D19*
%TO.N,GND*%
X105969400Y-89213500D02*
X105989400Y-89193500D01*
X105969400Y-90193500D02*
X105969400Y-89213500D01*
X105969400Y-94993500D02*
X107789400Y-94993500D01*
X105969400Y-101393500D02*
X107789400Y-101393500D01*
D20*
X105969400Y-92593500D02*
X107008000Y-92593500D01*
D19*
X111789400Y-98593500D02*
X114595500Y-98593500D01*
X115741999Y-99739999D02*
X122485150Y-99739999D01*
X114595500Y-98593500D02*
X115741999Y-99739999D01*
D20*
X136664700Y-104282880D02*
X136664700Y-105620820D01*
X136997440Y-105953560D02*
X140634720Y-105953560D01*
X136664700Y-105620820D02*
X136997440Y-105953560D01*
D19*
X109907780Y-100993500D02*
X111789400Y-100993500D01*
X110102740Y-94593500D02*
X110103920Y-94592320D01*
X128305560Y-104937560D02*
X131866640Y-104937560D01*
X117689974Y-88742520D02*
X117689974Y-88742520D01*
X104167900Y-94993500D02*
X104140000Y-95021400D01*
X107789400Y-94993500D02*
X104167900Y-94993500D01*
X104154900Y-92593500D02*
X104140000Y-92608400D01*
X105969400Y-92593500D02*
X104154900Y-92593500D01*
X104104900Y-98993500D02*
X104068880Y-99029520D01*
X105969400Y-98993500D02*
X104104900Y-98993500D01*
X104112820Y-101393500D02*
X104068880Y-101437440D01*
X105969400Y-101393500D02*
X104112820Y-101393500D01*
X131866640Y-104937560D02*
X132999480Y-104937560D01*
D20*
X124542380Y-91871800D02*
X124542380Y-91893220D01*
D19*
X109907780Y-100993500D02*
X109884920Y-100993500D01*
X109484920Y-101393500D02*
X107789400Y-101393500D01*
X109884920Y-100993500D02*
X109484920Y-101393500D01*
X105969400Y-98993500D02*
X108739400Y-98993500D01*
X107008000Y-92593500D02*
X108789400Y-92593500D01*
X109139399Y-98593501D02*
X108739400Y-98993500D01*
X111789400Y-98593500D02*
X109139399Y-98593501D01*
X109189399Y-92193501D02*
X108789400Y-92593500D01*
X111789400Y-92193500D02*
X109189399Y-92193501D01*
X109062402Y-94993500D02*
X107789400Y-94993500D01*
X110788540Y-94593500D02*
X110102740Y-94593500D01*
X111789400Y-94593500D02*
X110788540Y-94593500D01*
X109702740Y-94993500D02*
X110103920Y-94592320D01*
X109062402Y-94993500D02*
X109702740Y-94993500D01*
X104140000Y-95001080D02*
X104129840Y-95011240D01*
X104140000Y-92608400D02*
X104140000Y-95001080D01*
X104155240Y-92593160D02*
X104140000Y-92608400D01*
X104155240Y-90190320D02*
X104155240Y-92593160D01*
X105966220Y-90190320D02*
X105969400Y-90193500D01*
X104129840Y-99004120D02*
X104109520Y-99024440D01*
X104129840Y-95011240D02*
X104129840Y-99004120D01*
X104109520Y-101424740D02*
X104096820Y-101437440D01*
X104109520Y-99024440D02*
X104109520Y-101424740D01*
X104091740Y-101442520D02*
X104096820Y-101437440D01*
X104091740Y-103794560D02*
X104091740Y-101442520D01*
X104092800Y-103793500D02*
X104091740Y-103794560D01*
X105969400Y-103793500D02*
X104092800Y-103793500D01*
X110080500Y-100993500D02*
X109740700Y-101333300D01*
X109680500Y-101393500D02*
X110080500Y-100993500D01*
X107789400Y-101393500D02*
X109680500Y-101393500D01*
X111789400Y-100993500D02*
X110080500Y-100993500D01*
X108651398Y-103393500D02*
X111789400Y-103393500D01*
X108251398Y-103793500D02*
X108651398Y-103393500D01*
X105969400Y-103793500D02*
X108251398Y-103793500D01*
X115119400Y-103173500D02*
X115119400Y-105693500D01*
X112939400Y-100993500D02*
X115119400Y-103173500D01*
X111789400Y-100993500D02*
X112939400Y-100993500D01*
X136666079Y-93281500D02*
X136664700Y-93282879D01*
X139065000Y-96748600D02*
X139065000Y-98259900D01*
X139065000Y-98247200D02*
X139065000Y-99745800D01*
X139065000Y-99720400D02*
X139065000Y-101219000D01*
X139077700Y-101244400D02*
X139077700Y-101244400D01*
X137612662Y-102782880D02*
X136664700Y-102782880D01*
X137615821Y-102779721D02*
X137612662Y-102782880D01*
D20*
X135971319Y-102782880D02*
X135585200Y-103168999D01*
X136664700Y-102782880D02*
X135971319Y-102782880D01*
X135585200Y-103168999D02*
X135585200Y-104279700D01*
X136661520Y-104279700D02*
X136664700Y-104282880D01*
X135585200Y-104279700D02*
X136661520Y-104279700D01*
X138306279Y-90782879D02*
X138315700Y-90792300D01*
D19*
X136664700Y-90782879D02*
X138306279Y-90782879D01*
X111793900Y-89789000D02*
X111789400Y-89793500D01*
X115756000Y-89793500D02*
X115760500Y-89789000D01*
X115667100Y-89793500D02*
X115671600Y-89789000D01*
X111789400Y-89793500D02*
X115667100Y-89793500D01*
X117394701Y-92193501D02*
X117794700Y-92593500D01*
X111789400Y-92193500D02*
X117394701Y-92193501D01*
X104649900Y-90193500D02*
X104140000Y-90703400D01*
X105969400Y-90193500D02*
X104649900Y-90193500D01*
D20*
X124636300Y-94314900D02*
X124636300Y-94588100D01*
X124636300Y-94588100D02*
X125222000Y-95173800D01*
X125222000Y-95173800D02*
X126898400Y-95173800D01*
X126898400Y-95173800D02*
X127101600Y-94970600D01*
X127101600Y-94970600D02*
X127101600Y-92532200D01*
X127213700Y-92420100D02*
X128244600Y-92420100D01*
X127101600Y-92532200D02*
X127213700Y-92420100D01*
D19*
X136664700Y-98282879D02*
X136834761Y-98282879D01*
X138570861Y-96772621D02*
X138572240Y-96774000D01*
X138600120Y-98280160D02*
X138605260Y-98285300D01*
X138626920Y-99780160D02*
X138630660Y-99783900D01*
X138617760Y-101280160D02*
X138617960Y-101279960D01*
D20*
X137003040Y-90775080D02*
X137003040Y-91275080D01*
X138563160Y-96775080D02*
X138572240Y-96784160D01*
D19*
X137003040Y-96775080D02*
X138563160Y-96775080D01*
D20*
X138600120Y-98275080D02*
X138602720Y-98277680D01*
D19*
X137003040Y-98275080D02*
X138600120Y-98275080D01*
D20*
X138613080Y-101275080D02*
X138617960Y-101279960D01*
D19*
X137003040Y-101275080D02*
X138613080Y-101275080D01*
X138621840Y-99775080D02*
X138630660Y-99783900D01*
X137003040Y-99775080D02*
X138621840Y-99775080D01*
X137003040Y-93275080D02*
X138136560Y-93275080D01*
X138572240Y-93710760D02*
X138572240Y-96784160D01*
X138136560Y-93275080D02*
X138572240Y-93710760D01*
D20*
%TO.N,/CSI_DN0__SD_LVDS0_N*%
X105969400Y-90993500D02*
X108839400Y-90993500D01*
X134976478Y-97282878D02*
X134975600Y-97282000D01*
X136664700Y-97282878D02*
X134976478Y-97282878D01*
%TO.N,/CSI_DP0__SD_LVDS0_P*%
X107789400Y-91793500D02*
X105969400Y-91793500D01*
X134002780Y-98010980D02*
X135364220Y-98010980D01*
X135364220Y-98010980D02*
X135592320Y-97782880D01*
X137057480Y-97782880D02*
X137060200Y-97780160D01*
X135592320Y-97782880D02*
X137057480Y-97782880D01*
%TO.N,/CSI_DN1__SD_LVDS1_N*%
X105971700Y-93395800D02*
X105969400Y-93393500D01*
X107820460Y-93395800D02*
X105971700Y-93395800D01*
X134952481Y-98782881D02*
X134950200Y-98780600D01*
X136664700Y-98782881D02*
X134952481Y-98782881D01*
%TO.N,/CSI_DP1__SD_LVDS1_P*%
X105969400Y-94193500D02*
X108789400Y-94193500D01*
X136666600Y-99280980D02*
X136664700Y-99282880D01*
X134030720Y-99509580D02*
X135516620Y-99509580D01*
X135743320Y-99282880D02*
X136664700Y-99282880D01*
X135516620Y-99509580D02*
X135743320Y-99282880D01*
D19*
%TO.N,/CSI_nRST_1V8*%
X105969400Y-96593500D02*
X107789400Y-96593500D01*
D20*
X123957080Y-96593660D02*
X123957080Y-96898460D01*
X123715539Y-97140001D02*
X122485150Y-97140001D01*
X123957080Y-96898460D02*
X123715539Y-97140001D01*
D19*
%TO.N,/I2C_SDA_1V8*%
X105969400Y-97393500D02*
X108789400Y-97393500D01*
D20*
X124752100Y-97393760D02*
X124752100Y-98564700D01*
X124752100Y-98564700D02*
X124325380Y-98991420D01*
X123179599Y-98439999D02*
X122485150Y-98439999D01*
X123731020Y-98991420D02*
X123179599Y-98439999D01*
X124325380Y-98991420D02*
X123731020Y-98991420D01*
%TO.N,/I2C_SCL_1V8*%
X122481650Y-97793500D02*
X122485150Y-97790000D01*
X105969400Y-98193500D02*
X107789400Y-98193500D01*
X123530360Y-97790000D02*
X123916440Y-98176080D01*
X122485150Y-97790000D02*
X123530360Y-97790000D01*
%TO.N,/CSI_DN2__SD_LVDS2_N*%
X107797040Y-99793500D02*
X107797600Y-99794060D01*
X105969400Y-99793500D02*
X107797040Y-99793500D01*
X134979280Y-100282880D02*
X134975600Y-100279200D01*
X136664700Y-100282880D02*
X134979280Y-100282880D01*
%TO.N,/CSI_DP2__SD_LVDS2_P*%
X105969400Y-100593500D02*
X108789400Y-100593500D01*
X136666481Y-100784660D02*
X136664700Y-100782879D01*
X134053580Y-101013260D02*
X135613140Y-101013260D01*
X135843521Y-100782879D02*
X136664700Y-100782879D01*
X135613140Y-101013260D02*
X135843521Y-100782879D01*
%TO.N,/CSI_DN3__SD_LVDS3_N*%
X105969400Y-102193500D02*
X108789400Y-102193500D01*
X134980680Y-101782880D02*
X134975600Y-101777800D01*
X136664700Y-101782880D02*
X134980680Y-101782880D01*
%TO.N,/CSI_DP3__SD_LVDS3_P*%
X107768700Y-102993500D02*
X107772200Y-102997000D01*
X105969400Y-102993500D02*
X107768700Y-102993500D01*
X134048119Y-102511479D02*
X134048500Y-102511860D01*
X134048500Y-102511860D02*
X135676640Y-102511860D01*
X135905621Y-102282879D02*
X135676640Y-102511860D01*
X136664700Y-102282879D02*
X135905621Y-102282879D01*
%TO.N,/CSI_CLK_N__SPCLK_LVDS0_N*%
X117557590Y-87039410D02*
X129924770Y-87039410D01*
X129924770Y-87039410D02*
X130825240Y-87939880D01*
X113097900Y-90593500D02*
X113487200Y-90982800D01*
X111789400Y-90593500D02*
X113097900Y-90593500D01*
X113487200Y-90982800D02*
X116497100Y-90982800D01*
X116497100Y-90982800D02*
X116674900Y-90805000D01*
X116674900Y-90805000D02*
X116674900Y-87922100D01*
X116674900Y-87922100D02*
X117557590Y-87039410D01*
X138337240Y-103275080D02*
X138551920Y-103489760D01*
X137003040Y-103275080D02*
X138337240Y-103275080D01*
%TO.N,/CSI_CLK_P__SPCLK_LVDS0_P*%
X110218220Y-90972320D02*
X110639400Y-91393500D01*
X110218220Y-89730580D02*
X110218220Y-90972320D01*
X110705900Y-89242900D02*
X110218220Y-89730580D01*
X110639400Y-91393500D02*
X111789400Y-91393500D01*
X114719100Y-89242900D02*
X110705900Y-89242900D01*
X117322600Y-86639400D02*
X114719100Y-89242900D01*
X140178360Y-103775080D02*
X140187680Y-103784400D01*
X137003040Y-103775080D02*
X137638360Y-103775080D01*
X137638360Y-103775080D02*
X138074400Y-104211120D01*
X139760960Y-104211120D02*
X140187680Y-103784400D01*
X138074400Y-104211120D02*
X139760960Y-104211120D01*
X131907280Y-87045800D02*
X130616960Y-87045800D01*
X130616960Y-87045800D02*
X130210560Y-86639400D01*
X130210560Y-86639400D02*
X117322600Y-86639400D01*
D19*
%TO.N,+1V8*%
X111789400Y-93793500D02*
X111789400Y-92993500D01*
X128244600Y-95833651D02*
X128238250Y-95840001D01*
X128244600Y-94145100D02*
X128244600Y-95833651D01*
X122485150Y-95839999D02*
X116020299Y-95839999D01*
X113140300Y-93793500D02*
X111789400Y-93793500D01*
X116020299Y-95839999D02*
X115557300Y-95377000D01*
X113140300Y-93793500D02*
X113140300Y-93798200D01*
X113140300Y-93798200D02*
X113487200Y-94145100D01*
X113487200Y-94996000D02*
X113868200Y-95377000D01*
X113487200Y-94145100D02*
X113487200Y-94996000D01*
X113868200Y-95377000D02*
X115557300Y-95377000D01*
X128238248Y-95839999D02*
X128238250Y-95840001D01*
X122485150Y-95839999D02*
X128238248Y-95839999D01*
D20*
%TO.N,/CSI_SYNC_1V8*%
X114846100Y-96507300D02*
X113690400Y-96507300D01*
X113204200Y-96993500D02*
X111789400Y-96993500D01*
X113690400Y-96507300D02*
X113204200Y-96993500D01*
%TO.N,/CSI_PWDN_1V8*%
X115344900Y-97793500D02*
X111789400Y-97793500D01*
X116648400Y-96490000D02*
X115344900Y-97793500D01*
X122485150Y-96490000D02*
X116648400Y-96490000D01*
D21*
%TO.N,+3V3*%
X111789400Y-100193500D02*
X111789400Y-99393500D01*
X126036300Y-93314900D02*
X126036300Y-92932020D01*
X126267380Y-92700940D02*
X126267380Y-91871800D01*
X126036300Y-92932020D02*
X126267380Y-92700940D01*
X115217600Y-100193500D02*
X111789400Y-100193500D01*
X127322100Y-96490000D02*
X127165100Y-96647000D01*
X128238250Y-96490000D02*
X127322100Y-96490000D01*
X127165100Y-96647000D02*
X127165100Y-100228400D01*
X126870460Y-100523040D02*
X115547140Y-100523040D01*
X127165100Y-100228400D02*
X126870460Y-100523040D01*
X115547140Y-100523040D02*
X115217600Y-100193500D01*
D20*
X137003040Y-89275080D02*
X137003040Y-89775080D01*
X137003040Y-89775080D02*
X137003040Y-90275080D01*
D19*
X126267380Y-91871800D02*
X126267380Y-90178720D01*
X130484400Y-96490000D02*
X128238250Y-96490000D01*
X135901280Y-90282880D02*
X135420100Y-89801700D01*
X136664700Y-90282880D02*
X135901280Y-90282880D01*
X130760620Y-90087300D02*
X130760620Y-96213780D01*
X131046220Y-89801700D02*
X130760620Y-90087300D01*
X135420100Y-89801700D02*
X131046220Y-89801700D01*
X130760620Y-96213780D02*
X130484400Y-96490000D01*
X126358800Y-90087300D02*
X126267380Y-90178720D01*
X130760620Y-90087300D02*
X126358800Y-90087300D01*
D21*
%TO.N,+5V*%
X111789400Y-101793500D02*
X111789400Y-102593500D01*
D22*
X113253520Y-102788720D02*
X113253520Y-104404160D01*
X111789400Y-102593500D02*
X113058300Y-102593500D01*
X113058300Y-102593500D02*
X113253520Y-102788720D01*
D21*
X135164020Y-88775080D02*
X134937500Y-89001600D01*
X137003040Y-88775080D02*
X135164020Y-88775080D01*
D20*
%TO.N,/I2C_DAT_3V3*%
X128861101Y-99740001D02*
X128238250Y-99740001D01*
X129836189Y-98840011D02*
X128936199Y-99740001D01*
X131817389Y-98840011D02*
X129836189Y-98840011D01*
X134374520Y-96282880D02*
X131817389Y-98840011D01*
X128936199Y-99740001D02*
X128861101Y-99740001D01*
X136664700Y-96282880D02*
X134374520Y-96282880D01*
%TO.N,/I2C_CLK_3V3*%
X134252221Y-95782879D02*
X136664700Y-95782879D01*
X131595099Y-98440001D02*
X134252221Y-95782879D01*
X128238250Y-98440001D02*
X131595099Y-98440001D01*
%TO.N,/IRCUT_SW*%
X136664700Y-95282880D02*
X134066420Y-95282880D01*
X133896100Y-95453200D02*
X132765800Y-95453200D01*
X134066420Y-95282880D02*
X133896100Y-95453200D01*
%TO.N,/IRCUT_CE*%
X136664700Y-94782881D02*
X136019781Y-94782881D01*
X136019781Y-94782881D02*
X135420100Y-94183200D01*
X134396480Y-94183200D02*
X134391400Y-94188280D01*
X135420100Y-94183200D02*
X134396480Y-94183200D01*
%TO.N,/SVSYNC*%
X136664700Y-94282879D02*
X136109781Y-94282879D01*
X136109781Y-94282879D02*
X135534400Y-93707498D01*
X135534400Y-93707498D02*
X135534400Y-93218000D01*
X135280400Y-92964000D02*
X132765800Y-92964000D01*
X135534400Y-93218000D02*
X135280400Y-92964000D01*
%TO.N,/SHSYNC*%
X136664700Y-93782880D02*
X136175480Y-93782880D01*
X136175480Y-93782880D02*
X135940800Y-93548200D01*
X135940800Y-93548200D02*
X135940800Y-92856598D01*
X135940800Y-92856598D02*
X135158281Y-92074079D01*
X135158281Y-92074079D02*
X135158281Y-91719201D01*
X135077200Y-91638120D02*
X134371080Y-91638120D01*
X135158281Y-91719201D02*
X135077200Y-91638120D01*
%TO.N,/CLK_SI_3V3*%
X122518420Y-92072460D02*
X122519440Y-92071440D01*
X123158000Y-92710000D02*
X122519440Y-92071440D01*
X125595000Y-94314900D02*
X125349000Y-94068900D01*
X123242580Y-92794580D02*
X123158000Y-92710000D01*
X126036300Y-94314900D02*
X125595000Y-94314900D01*
X125349000Y-94068900D02*
X125349000Y-92943680D01*
X125199900Y-92794580D02*
X123242580Y-92794580D01*
X125349000Y-92943680D02*
X125199900Y-92794580D01*
X137007160Y-92770960D02*
X137003040Y-92775080D01*
X137973760Y-92775080D02*
X138516360Y-92232480D01*
X137003040Y-92775080D02*
X137973760Y-92775080D01*
X122519440Y-87741760D02*
X122519440Y-92071440D01*
X129415460Y-87439420D02*
X122821780Y-87439420D01*
X129626360Y-88950800D02*
X129626360Y-87650320D01*
X122821780Y-87439420D02*
X122519440Y-87741760D01*
X129626360Y-87650320D02*
X129415460Y-87439420D01*
%TO.N,/SENS_RST_3V3*%
X131585640Y-90772858D02*
X131585640Y-97065160D01*
X136664700Y-92282881D02*
X135932781Y-92282881D01*
X130860800Y-97790000D02*
X128238250Y-97790000D01*
X135558289Y-91140587D02*
X135051212Y-90633510D01*
X131724988Y-90633510D02*
X131585640Y-90772858D01*
X131585640Y-97065160D02*
X130860800Y-97790000D01*
X135932781Y-92282881D02*
X135558289Y-91908389D01*
X135558289Y-91908389D02*
X135558289Y-91140587D01*
X135051212Y-90633510D02*
X131724988Y-90633510D01*
%TO.N,/SENS_EN_3V3*%
X130736099Y-97140001D02*
X128238250Y-97140001D01*
X131185630Y-96690470D02*
X130736099Y-97140001D01*
X131185630Y-90520810D02*
X131185630Y-96690470D01*
X136080479Y-91782879D02*
X135958299Y-91660699D01*
X135958299Y-91660699D02*
X135958299Y-90974899D01*
X135958299Y-90974899D02*
X135216900Y-90233500D01*
X135216900Y-90233500D02*
X131472940Y-90233500D01*
X136664700Y-91782879D02*
X136080479Y-91782879D01*
X131472940Y-90233500D02*
X131185630Y-90520810D01*
D19*
%TO.N,/CSI_MCLK_1V8*%
X105969400Y-95793500D02*
X108789400Y-95793500D01*
D20*
X122519440Y-94071440D02*
X123568460Y-94071440D01*
X123825000Y-93814900D02*
X124636300Y-93814900D01*
X123568460Y-94071440D02*
X123825000Y-93814900D01*
X121091960Y-94071440D02*
X120904000Y-94259400D01*
X122519440Y-94071440D02*
X121091960Y-94071440D01*
X120904000Y-94259400D02*
X120904000Y-94907100D01*
%TD*%
D23*
%TO.N,GND*%
X138262444Y-76697239D02*
X137839453Y-76979872D01*
X137444572Y-77374753D01*
X137134316Y-77839084D01*
X136920608Y-78355021D01*
X136811660Y-78902737D01*
X136811660Y-79461183D01*
X136920608Y-80008899D01*
X137134316Y-80524836D01*
X137444572Y-80989167D01*
X137839453Y-81384048D01*
X138303784Y-81694304D01*
X138819721Y-81908012D01*
X139367437Y-82016960D01*
X139925883Y-82016960D01*
X140473599Y-81908012D01*
X140989536Y-81694304D01*
X141453867Y-81384048D01*
X141848748Y-80989167D01*
X142088000Y-80631101D01*
X142088001Y-111948335D01*
X142065024Y-111892864D01*
X141754768Y-111428533D01*
X141359887Y-111033652D01*
X140895556Y-110723396D01*
X140379619Y-110509688D01*
X139831903Y-110400740D01*
X139273457Y-110400740D01*
X138725741Y-110509688D01*
X138209804Y-110723396D01*
X137745473Y-111033652D01*
X137350592Y-111428533D01*
X137040336Y-111892864D01*
X136826628Y-112408801D01*
X136717680Y-112956517D01*
X136717680Y-113514963D01*
X136826628Y-114062679D01*
X137040336Y-114578616D01*
X137350592Y-115042947D01*
X137745473Y-115437828D01*
X138209804Y-115748084D01*
X138479897Y-115859960D01*
X106593055Y-115859960D01*
X106857016Y-115750624D01*
X107321347Y-115440368D01*
X107716228Y-115045487D01*
X108026484Y-114581156D01*
X108240192Y-114065219D01*
X108349140Y-113517503D01*
X108349140Y-112959057D01*
X108240192Y-112411341D01*
X108026484Y-111895404D01*
X107716228Y-111431073D01*
X107321347Y-111036192D01*
X106857016Y-110725936D01*
X106341079Y-110512228D01*
X105793363Y-110403280D01*
X105234917Y-110403280D01*
X104687201Y-110512228D01*
X104171264Y-110725936D01*
X103706933Y-111036192D01*
X103312052Y-111431073D01*
X103001796Y-111895404D01*
X102920579Y-112091478D01*
X102921321Y-107095080D01*
X136514968Y-107095080D01*
X136527228Y-107219562D01*
X136563538Y-107339260D01*
X136622503Y-107449574D01*
X136701855Y-107546265D01*
X136798546Y-107625617D01*
X136908860Y-107684582D01*
X137028558Y-107720892D01*
X137153040Y-107733152D01*
X138417290Y-107730080D01*
X138576040Y-107571330D01*
X138576040Y-106072080D01*
X138830040Y-106072080D01*
X138830040Y-107571330D01*
X138988790Y-107730080D01*
X140253040Y-107733152D01*
X140377522Y-107720892D01*
X140497220Y-107684582D01*
X140607534Y-107625617D01*
X140704225Y-107546265D01*
X140783577Y-107449574D01*
X140842542Y-107339260D01*
X140878852Y-107219562D01*
X140891112Y-107095080D01*
X140888040Y-106230830D01*
X140729290Y-106072080D01*
X138830040Y-106072080D01*
X138576040Y-106072080D01*
X136676790Y-106072080D01*
X136518040Y-106230830D01*
X136514968Y-107095080D01*
X102921321Y-107095080D01*
X102921398Y-106581887D01*
X104140618Y-106581887D01*
X104194493Y-106810968D01*
X104425084Y-106917263D01*
X104671981Y-106976528D01*
X104925696Y-106986488D01*
X105176479Y-106946759D01*
X105414693Y-106858868D01*
X105504307Y-106810968D01*
X105558182Y-106581887D01*
X106170618Y-106581887D01*
X106224493Y-106810968D01*
X106455084Y-106917263D01*
X106701981Y-106976528D01*
X106955696Y-106986488D01*
X107206479Y-106946759D01*
X107444693Y-106858868D01*
X107534307Y-106810968D01*
X107588182Y-106581887D01*
X110170618Y-106581887D01*
X110224493Y-106810968D01*
X110455084Y-106917263D01*
X110701981Y-106976528D01*
X110955696Y-106986488D01*
X111206479Y-106946759D01*
X111444693Y-106858868D01*
X111534307Y-106810968D01*
X111588182Y-106581887D01*
X114410618Y-106581887D01*
X114464493Y-106810968D01*
X114695084Y-106917263D01*
X114941981Y-106976528D01*
X115195696Y-106986488D01*
X115446479Y-106946759D01*
X115684693Y-106858868D01*
X115774307Y-106810968D01*
X115828182Y-106581887D01*
X115119400Y-105873105D01*
X114410618Y-106581887D01*
X111588182Y-106581887D01*
X110879400Y-105873105D01*
X110170618Y-106581887D01*
X107588182Y-106581887D01*
X106879400Y-105873105D01*
X106170618Y-106581887D01*
X105558182Y-106581887D01*
X104849400Y-105873105D01*
X104140618Y-106581887D01*
X102921398Y-106581887D01*
X102921519Y-105769796D01*
X103556412Y-105769796D01*
X103596141Y-106020579D01*
X103684032Y-106258793D01*
X103731932Y-106348407D01*
X103961013Y-106402282D01*
X104669795Y-105693500D01*
X105029005Y-105693500D01*
X105737787Y-106402282D01*
X105864400Y-106372505D01*
X105991013Y-106402282D01*
X106699795Y-105693500D01*
X105991013Y-104984718D01*
X105864400Y-105014495D01*
X105737787Y-104984718D01*
X105029005Y-105693500D01*
X104669795Y-105693500D01*
X103961013Y-104984718D01*
X103731932Y-105038593D01*
X103625637Y-105269184D01*
X103566372Y-105516081D01*
X103556412Y-105769796D01*
X102921519Y-105769796D01*
X102921662Y-104805113D01*
X104140618Y-104805113D01*
X104849400Y-105513895D01*
X105558182Y-104805113D01*
X105510969Y-104604360D01*
X105683650Y-104603500D01*
X105842400Y-104444750D01*
X105842400Y-103841500D01*
X104593150Y-103841500D01*
X104434400Y-104000250D01*
X104445265Y-104101130D01*
X104483132Y-104220345D01*
X104543529Y-104329881D01*
X104623082Y-104424278D01*
X104522321Y-104440241D01*
X104284107Y-104528132D01*
X104194493Y-104576032D01*
X104140618Y-104805113D01*
X102921662Y-104805113D01*
X102923741Y-90818500D01*
X104431328Y-90818500D01*
X104431328Y-91168500D01*
X104443588Y-91292982D01*
X104474080Y-91393499D01*
X104443588Y-91494018D01*
X104431328Y-91618500D01*
X104431328Y-91968500D01*
X104443588Y-92092982D01*
X104474336Y-92194346D01*
X104445265Y-92285870D01*
X104434400Y-92386750D01*
X104593150Y-92545500D01*
X104801831Y-92545500D01*
X104825220Y-92558002D01*
X104942241Y-92593500D01*
X104825220Y-92628998D01*
X104801831Y-92641500D01*
X104593150Y-92641500D01*
X104434400Y-92800250D01*
X104445265Y-92901130D01*
X104474336Y-92992654D01*
X104443588Y-93094018D01*
X104431328Y-93218500D01*
X104431328Y-93568500D01*
X104443588Y-93692982D01*
X104474080Y-93793500D01*
X104443588Y-93894018D01*
X104431328Y-94018500D01*
X104431328Y-94368500D01*
X104443588Y-94492982D01*
X104474336Y-94594346D01*
X104445265Y-94685870D01*
X104434400Y-94786750D01*
X104593150Y-94945500D01*
X104801831Y-94945500D01*
X104825220Y-94958002D01*
X104942241Y-94993500D01*
X104825220Y-95028998D01*
X104801831Y-95041500D01*
X104593150Y-95041500D01*
X104434400Y-95200250D01*
X104445265Y-95301130D01*
X104474336Y-95392654D01*
X104443588Y-95494018D01*
X104431328Y-95618500D01*
X104431328Y-95968500D01*
X104443588Y-96092982D01*
X104474080Y-96193500D01*
X104443588Y-96294018D01*
X104431328Y-96418500D01*
X104431328Y-96768500D01*
X104443588Y-96892982D01*
X104474080Y-96993500D01*
X104443588Y-97094018D01*
X104431328Y-97218500D01*
X104431328Y-97568500D01*
X104443588Y-97692982D01*
X104474080Y-97793500D01*
X104443588Y-97894018D01*
X104431328Y-98018500D01*
X104431328Y-98368500D01*
X104443588Y-98492982D01*
X104474336Y-98594346D01*
X104445265Y-98685870D01*
X104434400Y-98786750D01*
X104593150Y-98945500D01*
X104801831Y-98945500D01*
X104825220Y-98958002D01*
X104942241Y-98993500D01*
X104825220Y-99028998D01*
X104801831Y-99041500D01*
X104593150Y-99041500D01*
X104434400Y-99200250D01*
X104445265Y-99301130D01*
X104474336Y-99392654D01*
X104443588Y-99494018D01*
X104431328Y-99618500D01*
X104431328Y-99968500D01*
X104443588Y-100092982D01*
X104474080Y-100193500D01*
X104443588Y-100294018D01*
X104431328Y-100418500D01*
X104431328Y-100768500D01*
X104443588Y-100892982D01*
X104474336Y-100994346D01*
X104445265Y-101085870D01*
X104434400Y-101186750D01*
X104593150Y-101345500D01*
X104801831Y-101345500D01*
X104825220Y-101358002D01*
X104942241Y-101393500D01*
X104825220Y-101428998D01*
X104801831Y-101441500D01*
X104593150Y-101441500D01*
X104434400Y-101600250D01*
X104445265Y-101701130D01*
X104474336Y-101792654D01*
X104443588Y-101894018D01*
X104431328Y-102018500D01*
X104431328Y-102368500D01*
X104443588Y-102492982D01*
X104474080Y-102593500D01*
X104443588Y-102694018D01*
X104431328Y-102818500D01*
X104431328Y-103168500D01*
X104443588Y-103292982D01*
X104474336Y-103394346D01*
X104445265Y-103485870D01*
X104434400Y-103586750D01*
X104593150Y-103745500D01*
X104801831Y-103745500D01*
X104825220Y-103758002D01*
X104944918Y-103794312D01*
X105069400Y-103806572D01*
X106116400Y-103806572D01*
X106116400Y-103841500D01*
X106096400Y-103841500D01*
X106096400Y-104444750D01*
X106226571Y-104574921D01*
X106224493Y-104576032D01*
X106170618Y-104805113D01*
X106879400Y-105513895D01*
X106893543Y-105499753D01*
X107073148Y-105679358D01*
X107059005Y-105693500D01*
X107767787Y-106402282D01*
X107996868Y-106348407D01*
X108103163Y-106117816D01*
X108133611Y-105990971D01*
X108211515Y-106043025D01*
X108468118Y-106149314D01*
X108740527Y-106203500D01*
X109018273Y-106203500D01*
X109290682Y-106149314D01*
X109547285Y-106043025D01*
X109621808Y-105993230D01*
X109626141Y-106020579D01*
X109714032Y-106258793D01*
X109761932Y-106348407D01*
X109991013Y-106402282D01*
X110699795Y-105693500D01*
X111059005Y-105693500D01*
X111767787Y-106402282D01*
X111996868Y-106348407D01*
X112103163Y-106117816D01*
X112162428Y-105870919D01*
X112172388Y-105617204D01*
X112132659Y-105366421D01*
X112044768Y-105128207D01*
X111996868Y-105038593D01*
X111767787Y-104984718D01*
X111059005Y-105693500D01*
X110699795Y-105693500D01*
X110685653Y-105679358D01*
X110865258Y-105499753D01*
X110879400Y-105513895D01*
X111588182Y-104805113D01*
X111534307Y-104576032D01*
X111303716Y-104469737D01*
X111056819Y-104410472D01*
X110803104Y-104400512D01*
X110552321Y-104440241D01*
X110314107Y-104528132D01*
X110269031Y-104552226D01*
X110235214Y-104382218D01*
X110128925Y-104125615D01*
X109974618Y-103894678D01*
X109778222Y-103698282D01*
X109631507Y-103600250D01*
X110254400Y-103600250D01*
X110265265Y-103701130D01*
X110303132Y-103820345D01*
X110363529Y-103929881D01*
X110444136Y-104025529D01*
X110541853Y-104103614D01*
X110652927Y-104161135D01*
X110773088Y-104195881D01*
X110897719Y-104206518D01*
X111503650Y-104203500D01*
X111662400Y-104044750D01*
X111662400Y-103441500D01*
X110413150Y-103441500D01*
X110254400Y-103600250D01*
X109631507Y-103600250D01*
X109547285Y-103543975D01*
X109290682Y-103437686D01*
X109018273Y-103383500D01*
X108740527Y-103383500D01*
X108731651Y-103385266D01*
X108767426Y-103298898D01*
X108781429Y-103228500D01*
X108891339Y-103228500D01*
X109091298Y-103188726D01*
X109279656Y-103110705D01*
X109449174Y-102997437D01*
X109593337Y-102853274D01*
X109706605Y-102683756D01*
X109784626Y-102495398D01*
X109824400Y-102295439D01*
X109824400Y-102091561D01*
X109784626Y-101891602D01*
X109706605Y-101703244D01*
X109593337Y-101533726D01*
X109453111Y-101393500D01*
X109593337Y-101253274D01*
X109706605Y-101083756D01*
X109784626Y-100895398D01*
X109824400Y-100695439D01*
X109824400Y-100491561D01*
X109784626Y-100291602D01*
X109706605Y-100103244D01*
X109593337Y-99933726D01*
X109449174Y-99789563D01*
X109279656Y-99676295D01*
X109091298Y-99598274D01*
X108891339Y-99558500D01*
X108806021Y-99558500D01*
X108792826Y-99492162D01*
X108714805Y-99303804D01*
X108601537Y-99134286D01*
X108457374Y-98990123D01*
X108456843Y-98989768D01*
X108593337Y-98853274D01*
X108706605Y-98683756D01*
X108784626Y-98495398D01*
X108797933Y-98428500D01*
X108891339Y-98428500D01*
X109091298Y-98388726D01*
X109279656Y-98310705D01*
X109449174Y-98197437D01*
X109593337Y-98053274D01*
X109706605Y-97883756D01*
X109784626Y-97695398D01*
X109824400Y-97495439D01*
X109824400Y-97291561D01*
X109784626Y-97091602D01*
X109706605Y-96903244D01*
X109593337Y-96733726D01*
X109453111Y-96593500D01*
X109593337Y-96453274D01*
X109706605Y-96283756D01*
X109784626Y-96095398D01*
X109824400Y-95895439D01*
X109824400Y-95691561D01*
X109784626Y-95491602D01*
X109706605Y-95303244D01*
X109593337Y-95133726D01*
X109453111Y-94993500D01*
X109593337Y-94853274D01*
X109706605Y-94683756D01*
X109784626Y-94495398D01*
X109824400Y-94295439D01*
X109824400Y-94091561D01*
X109784626Y-93891602D01*
X109706605Y-93703244D01*
X109593337Y-93533726D01*
X109449174Y-93389563D01*
X109279656Y-93276295D01*
X109091298Y-93198274D01*
X108891339Y-93158500D01*
X108828535Y-93158500D01*
X108815686Y-93093902D01*
X108737665Y-92905544D01*
X108624397Y-92736026D01*
X108480234Y-92591863D01*
X108464956Y-92581655D01*
X108593337Y-92453274D01*
X108706605Y-92283756D01*
X108784626Y-92095398D01*
X108797933Y-92028500D01*
X108941339Y-92028500D01*
X109141298Y-91988726D01*
X109329656Y-91910705D01*
X109499174Y-91797437D01*
X109643337Y-91653274D01*
X109730011Y-91523557D01*
X110094141Y-91887687D01*
X110117162Y-91915738D01*
X110229080Y-92007587D01*
X110328238Y-92060588D01*
X110413150Y-92145500D01*
X110621831Y-92145500D01*
X110645220Y-92158002D01*
X110762241Y-92193500D01*
X110645220Y-92228998D01*
X110621831Y-92241500D01*
X110413150Y-92241500D01*
X110254400Y-92400250D01*
X110265265Y-92501130D01*
X110294336Y-92592654D01*
X110263588Y-92694018D01*
X110251328Y-92818500D01*
X110251328Y-93168500D01*
X110263588Y-93292982D01*
X110294080Y-93393500D01*
X110263588Y-93494018D01*
X110251328Y-93618500D01*
X110251328Y-93968500D01*
X110263588Y-94092982D01*
X110294336Y-94194346D01*
X110265265Y-94285870D01*
X110254400Y-94386750D01*
X110413150Y-94545500D01*
X110621831Y-94545500D01*
X110645220Y-94558002D01*
X110762241Y-94593500D01*
X110645220Y-94628998D01*
X110621831Y-94641500D01*
X110413150Y-94641500D01*
X110254400Y-94800250D01*
X110265265Y-94901130D01*
X110294336Y-94992654D01*
X110263588Y-95094018D01*
X110251328Y-95218500D01*
X110251328Y-95568500D01*
X110263588Y-95692982D01*
X110294080Y-95793500D01*
X110263588Y-95894018D01*
X110251328Y-96018500D01*
X110251328Y-96368500D01*
X110263588Y-96492982D01*
X110294080Y-96593500D01*
X110263588Y-96694018D01*
X110251328Y-96818500D01*
X110251328Y-97168500D01*
X110263588Y-97292982D01*
X110294080Y-97393500D01*
X110263588Y-97494018D01*
X110251328Y-97618500D01*
X110251328Y-97968500D01*
X110263588Y-98092982D01*
X110294336Y-98194346D01*
X110265265Y-98285870D01*
X110254400Y-98386750D01*
X110413150Y-98545500D01*
X110621831Y-98545500D01*
X110645220Y-98558002D01*
X110762241Y-98593500D01*
X110645220Y-98628998D01*
X110621831Y-98641500D01*
X110413150Y-98641500D01*
X110254400Y-98800250D01*
X110265265Y-98901130D01*
X110294336Y-98992654D01*
X110263588Y-99094018D01*
X110251328Y-99218500D01*
X110251328Y-99568500D01*
X110263588Y-99692982D01*
X110294080Y-99793500D01*
X110263588Y-99894018D01*
X110251328Y-100018500D01*
X110251328Y-100368500D01*
X110263588Y-100492982D01*
X110294336Y-100594346D01*
X110265265Y-100685870D01*
X110254400Y-100786750D01*
X110413150Y-100945500D01*
X110621831Y-100945500D01*
X110645220Y-100958002D01*
X110762241Y-100993500D01*
X110645220Y-101028998D01*
X110621831Y-101041500D01*
X110413150Y-101041500D01*
X110254400Y-101200250D01*
X110265265Y-101301130D01*
X110294336Y-101392654D01*
X110263588Y-101494018D01*
X110251328Y-101618500D01*
X110251328Y-101968500D01*
X110263588Y-102092982D01*
X110294080Y-102193500D01*
X110263588Y-102294018D01*
X110251328Y-102418500D01*
X110251328Y-102768500D01*
X110263588Y-102892982D01*
X110294336Y-102994346D01*
X110265265Y-103085870D01*
X110254400Y-103186750D01*
X110413150Y-103345500D01*
X110621831Y-103345500D01*
X110645220Y-103358002D01*
X110764918Y-103394312D01*
X110889400Y-103406572D01*
X111936400Y-103406572D01*
X111936400Y-103441500D01*
X111916400Y-103441500D01*
X111916400Y-104044750D01*
X112075150Y-104203500D01*
X112237995Y-104204311D01*
X112218520Y-104302221D01*
X112218520Y-104506099D01*
X112258294Y-104706058D01*
X112336315Y-104894416D01*
X112449583Y-105063934D01*
X112593746Y-105208097D01*
X112763264Y-105321365D01*
X112951622Y-105399386D01*
X113151581Y-105439160D01*
X113355459Y-105439160D01*
X113555418Y-105399386D01*
X113743776Y-105321365D01*
X113913294Y-105208097D01*
X113932777Y-105188614D01*
X113895637Y-105269184D01*
X113836372Y-105516081D01*
X113826412Y-105769796D01*
X113866141Y-106020579D01*
X113954032Y-106258793D01*
X114001932Y-106348407D01*
X114231013Y-106402282D01*
X114939795Y-105693500D01*
X115299005Y-105693500D01*
X116007787Y-106402282D01*
X116236868Y-106348407D01*
X116343163Y-106117816D01*
X116402428Y-105870919D01*
X116412388Y-105617204D01*
X116372659Y-105366421D01*
X116284768Y-105128207D01*
X116236868Y-105038593D01*
X116007787Y-104984718D01*
X115299005Y-105693500D01*
X114939795Y-105693500D01*
X114925653Y-105679358D01*
X115105258Y-105499753D01*
X115119400Y-105513895D01*
X115828182Y-104805113D01*
X115774307Y-104576032D01*
X115543716Y-104469737D01*
X115296819Y-104410472D01*
X115043104Y-104400512D01*
X114792321Y-104440241D01*
X114554107Y-104528132D01*
X114464493Y-104576032D01*
X114410619Y-104805111D01*
X114293768Y-104688260D01*
X114229495Y-104752533D01*
X114248746Y-104706058D01*
X114288520Y-104506099D01*
X114288520Y-104302221D01*
X114248746Y-104102262D01*
X114170725Y-103913904D01*
X114063520Y-103753460D01*
X114063520Y-102828508D01*
X114067439Y-102788720D01*
X114062862Y-102742250D01*
X114051800Y-102629932D01*
X114005483Y-102477247D01*
X113930269Y-102336531D01*
X113829048Y-102213192D01*
X113798134Y-102187822D01*
X113659200Y-102048888D01*
X113633828Y-102017972D01*
X113510489Y-101916751D01*
X113369773Y-101841537D01*
X113327472Y-101828705D01*
X113327472Y-101618500D01*
X113315212Y-101494018D01*
X113284464Y-101392654D01*
X113313535Y-101301130D01*
X113324400Y-101200250D01*
X113165650Y-101041500D01*
X112956969Y-101041500D01*
X112933580Y-101028998D01*
X112816559Y-100993500D01*
X112866007Y-100978500D01*
X114892443Y-100978500D01*
X114964793Y-101050850D01*
X114989376Y-101080804D01*
X115108907Y-101178902D01*
X115245280Y-101251794D01*
X115393253Y-101296682D01*
X115468166Y-101304060D01*
X115508579Y-101308040D01*
X115508584Y-101308040D01*
X115547140Y-101311837D01*
X115585695Y-101308040D01*
X126831907Y-101308040D01*
X126870460Y-101311837D01*
X126909013Y-101308040D01*
X126909021Y-101308040D01*
X127024347Y-101296681D01*
X127172320Y-101251794D01*
X127308693Y-101178902D01*
X127428224Y-101080804D01*
X127452808Y-101050849D01*
X127692905Y-100810751D01*
X127722864Y-100786164D01*
X127820962Y-100666633D01*
X127880164Y-100555873D01*
X128917700Y-100555873D01*
X129042182Y-100543613D01*
X129161880Y-100507303D01*
X129272194Y-100448338D01*
X129368885Y-100368986D01*
X129448237Y-100272295D01*
X129449842Y-100269293D01*
X129458437Y-100262239D01*
X129481457Y-100234189D01*
X130140636Y-99575011D01*
X131781284Y-99575011D01*
X131817389Y-99578567D01*
X131853494Y-99575011D01*
X131961474Y-99564376D01*
X132100022Y-99522348D01*
X132227709Y-99454098D01*
X132339627Y-99362249D01*
X132362648Y-99334199D01*
X133129649Y-98567197D01*
X133198843Y-98670754D01*
X133302339Y-98774250D01*
X133226783Y-98849806D01*
X133113515Y-99019324D01*
X133035494Y-99207682D01*
X132995720Y-99407641D01*
X132995720Y-99611519D01*
X133035494Y-99811478D01*
X133113515Y-99999836D01*
X133226783Y-100169354D01*
X133330279Y-100272850D01*
X133249643Y-100353486D01*
X133136375Y-100523004D01*
X133058354Y-100711362D01*
X133018580Y-100911321D01*
X133018580Y-101115199D01*
X133058354Y-101315158D01*
X133136375Y-101503516D01*
X133249643Y-101673034D01*
X133336629Y-101760020D01*
X133244563Y-101852086D01*
X133131295Y-102021604D01*
X133053274Y-102209962D01*
X133013500Y-102409921D01*
X133013500Y-102613799D01*
X133053274Y-102813758D01*
X133131295Y-103002116D01*
X133244563Y-103171634D01*
X133388726Y-103315797D01*
X133558244Y-103429065D01*
X133746602Y-103507086D01*
X133946561Y-103546860D01*
X134150439Y-103546860D01*
X134350398Y-103507086D01*
X134538756Y-103429065D01*
X134708274Y-103315797D01*
X134777211Y-103246860D01*
X135640535Y-103246860D01*
X135676640Y-103250416D01*
X135712745Y-103246860D01*
X135814968Y-103236792D01*
X135814968Y-103425080D01*
X135824817Y-103525080D01*
X135814968Y-103625080D01*
X135814968Y-103925080D01*
X135825195Y-104028921D01*
X135818040Y-104093330D01*
X135850287Y-104125577D01*
X135863538Y-104169260D01*
X135922503Y-104279574D01*
X135955315Y-104319555D01*
X135818040Y-104456830D01*
X135829611Y-104560991D01*
X135868105Y-104680005D01*
X135929077Y-104789222D01*
X136010186Y-104884445D01*
X136108313Y-104962015D01*
X136219687Y-105018951D01*
X136340029Y-105053064D01*
X136464715Y-105063045D01*
X136515918Y-105062444D01*
X136518040Y-105659330D01*
X136676790Y-105818080D01*
X138576040Y-105818080D01*
X138576040Y-105798080D01*
X138830040Y-105798080D01*
X138830040Y-105818080D01*
X140729290Y-105818080D01*
X140888040Y-105659330D01*
X140891112Y-104795080D01*
X140878852Y-104670598D01*
X140852398Y-104583393D01*
X140991617Y-104444174D01*
X141104885Y-104274656D01*
X141182906Y-104086298D01*
X141222680Y-103886339D01*
X141222680Y-103682461D01*
X141182906Y-103482502D01*
X141104885Y-103294144D01*
X140991617Y-103124626D01*
X140847454Y-102980463D01*
X140677936Y-102867195D01*
X140489578Y-102789174D01*
X140289619Y-102749400D01*
X140085741Y-102749400D01*
X139885782Y-102789174D01*
X139697424Y-102867195D01*
X139527906Y-102980463D01*
X139480765Y-103027604D01*
X139469125Y-102999504D01*
X139355857Y-102829986D01*
X139211694Y-102685823D01*
X139042176Y-102572555D01*
X138853818Y-102494534D01*
X138653859Y-102454760D01*
X138449981Y-102454760D01*
X138250022Y-102494534D01*
X138181475Y-102522927D01*
X138191112Y-102425080D01*
X138191112Y-102125080D01*
X138181263Y-102025080D01*
X138191112Y-101925080D01*
X138191112Y-101625080D01*
X138180885Y-101521239D01*
X138188040Y-101456830D01*
X138155793Y-101424583D01*
X138142542Y-101380900D01*
X138085979Y-101275080D01*
X138142542Y-101169260D01*
X138155793Y-101125577D01*
X138188040Y-101093330D01*
X138180885Y-101028921D01*
X138191112Y-100925080D01*
X138191112Y-100625080D01*
X138181263Y-100525080D01*
X138191112Y-100425080D01*
X138191112Y-100125080D01*
X138180885Y-100021239D01*
X138188040Y-99956830D01*
X138155793Y-99924583D01*
X138142542Y-99880900D01*
X138085979Y-99775080D01*
X138142542Y-99669260D01*
X138155793Y-99625577D01*
X138188040Y-99593330D01*
X138180885Y-99528921D01*
X138191112Y-99425080D01*
X138191112Y-99125080D01*
X138181263Y-99025080D01*
X138191112Y-98925080D01*
X138191112Y-98625080D01*
X138180885Y-98521239D01*
X138188040Y-98456830D01*
X138155793Y-98424583D01*
X138142542Y-98380900D01*
X138085979Y-98275080D01*
X138142542Y-98169260D01*
X138155793Y-98125577D01*
X138188040Y-98093330D01*
X138180885Y-98028921D01*
X138191112Y-97925080D01*
X138191112Y-97625080D01*
X138181263Y-97525080D01*
X138191112Y-97425080D01*
X138191112Y-97125080D01*
X138180885Y-97021239D01*
X138188040Y-96956830D01*
X138155793Y-96924583D01*
X138142542Y-96880900D01*
X138085979Y-96775080D01*
X138142542Y-96669260D01*
X138155793Y-96625577D01*
X138188040Y-96593330D01*
X138180885Y-96528921D01*
X138191112Y-96425080D01*
X138191112Y-96125080D01*
X138181263Y-96025080D01*
X138191112Y-95925080D01*
X138191112Y-95625080D01*
X138181263Y-95525080D01*
X138191112Y-95425080D01*
X138191112Y-95125080D01*
X138181263Y-95025080D01*
X138191112Y-94925080D01*
X138191112Y-94625080D01*
X138181263Y-94525080D01*
X138191112Y-94425080D01*
X138191112Y-94125080D01*
X138181263Y-94025080D01*
X138191112Y-93925080D01*
X138191112Y-93625080D01*
X138180885Y-93521239D01*
X138185589Y-93478895D01*
X138256393Y-93457417D01*
X138384080Y-93389167D01*
X138495998Y-93297318D01*
X138519018Y-93269268D01*
X138520806Y-93267480D01*
X138618299Y-93267480D01*
X138818258Y-93227706D01*
X139006616Y-93149685D01*
X139176134Y-93036417D01*
X139320297Y-92892254D01*
X139433565Y-92722736D01*
X139511586Y-92534378D01*
X139551360Y-92334419D01*
X139551360Y-92130541D01*
X139511586Y-91930582D01*
X139433565Y-91742224D01*
X139320297Y-91572706D01*
X139176134Y-91428543D01*
X139006616Y-91315275D01*
X138818258Y-91237254D01*
X138618299Y-91197480D01*
X138414421Y-91197480D01*
X138214462Y-91237254D01*
X138188040Y-91248198D01*
X138188040Y-91148078D01*
X138148301Y-91148078D01*
X138155477Y-91125893D01*
X138188040Y-91093330D01*
X138180458Y-91025080D01*
X138188040Y-90956830D01*
X138155477Y-90924267D01*
X138137975Y-90870155D01*
X138085450Y-90776069D01*
X138142542Y-90669260D01*
X138155793Y-90625577D01*
X138188040Y-90593330D01*
X138180885Y-90528921D01*
X138191112Y-90425080D01*
X138191112Y-90125080D01*
X138181263Y-90025080D01*
X138191112Y-89925080D01*
X138191112Y-89625080D01*
X138181263Y-89525080D01*
X138191112Y-89425080D01*
X138191112Y-89125080D01*
X138181263Y-89025080D01*
X138191112Y-88925080D01*
X138191112Y-88890630D01*
X138417290Y-88890080D01*
X138576040Y-88731330D01*
X138576040Y-87232080D01*
X138830040Y-87232080D01*
X138830040Y-88731330D01*
X138988790Y-88890080D01*
X140253040Y-88893152D01*
X140377522Y-88880892D01*
X140497220Y-88844582D01*
X140607534Y-88785617D01*
X140704225Y-88706265D01*
X140783577Y-88609574D01*
X140842542Y-88499260D01*
X140878852Y-88379562D01*
X140891112Y-88255080D01*
X140888040Y-87390830D01*
X140729290Y-87232080D01*
X138830040Y-87232080D01*
X138576040Y-87232080D01*
X136676790Y-87232080D01*
X136518040Y-87390830D01*
X136515921Y-87987008D01*
X136453040Y-87987008D01*
X136421848Y-87990080D01*
X135202576Y-87990080D01*
X135164020Y-87986283D01*
X135146879Y-87987971D01*
X135039439Y-87966600D01*
X134835561Y-87966600D01*
X134635602Y-88006374D01*
X134447244Y-88084395D01*
X134277726Y-88197663D01*
X134133563Y-88341826D01*
X134020295Y-88511344D01*
X133942274Y-88699702D01*
X133902500Y-88899661D01*
X133902500Y-89041700D01*
X131083542Y-89041700D01*
X131046219Y-89038024D01*
X131008896Y-89041700D01*
X131008887Y-89041700D01*
X130897234Y-89052697D01*
X130753973Y-89096154D01*
X130640679Y-89156712D01*
X130661360Y-89052739D01*
X130661360Y-88962559D01*
X130723301Y-88974880D01*
X130927179Y-88974880D01*
X131127138Y-88935106D01*
X131315496Y-88857085D01*
X131485014Y-88743817D01*
X131629177Y-88599654D01*
X131742445Y-88430136D01*
X131820466Y-88241778D01*
X131852486Y-88080800D01*
X132009219Y-88080800D01*
X132209178Y-88041026D01*
X132397536Y-87963005D01*
X132567054Y-87849737D01*
X132711217Y-87705574D01*
X132824485Y-87536056D01*
X132902506Y-87347698D01*
X132942280Y-87147739D01*
X132942280Y-86943861D01*
X132902506Y-86743902D01*
X132824485Y-86555544D01*
X132711217Y-86386026D01*
X132567054Y-86241863D01*
X132397536Y-86128595D01*
X132209178Y-86050574D01*
X132009219Y-86010800D01*
X131805341Y-86010800D01*
X131605382Y-86050574D01*
X131417024Y-86128595D01*
X131247506Y-86241863D01*
X131178569Y-86310800D01*
X130921406Y-86310800D01*
X130755819Y-86145213D01*
X130732798Y-86117162D01*
X130620880Y-86025313D01*
X130493193Y-85957063D01*
X130486656Y-85955080D01*
X136514968Y-85955080D01*
X136518040Y-86819330D01*
X136676790Y-86978080D01*
X138576040Y-86978080D01*
X138576040Y-85478830D01*
X138830040Y-85478830D01*
X138830040Y-86978080D01*
X140729290Y-86978080D01*
X140888040Y-86819330D01*
X140891112Y-85955080D01*
X140878852Y-85830598D01*
X140842542Y-85710900D01*
X140783577Y-85600586D01*
X140704225Y-85503895D01*
X140607534Y-85424543D01*
X140497220Y-85365578D01*
X140377522Y-85329268D01*
X140253040Y-85317008D01*
X138988790Y-85320080D01*
X138830040Y-85478830D01*
X138576040Y-85478830D01*
X138417290Y-85320080D01*
X137153040Y-85317008D01*
X137028558Y-85329268D01*
X136908860Y-85365578D01*
X136798546Y-85424543D01*
X136701855Y-85503895D01*
X136622503Y-85600586D01*
X136563538Y-85710900D01*
X136527228Y-85830598D01*
X136514968Y-85955080D01*
X130486656Y-85955080D01*
X130354645Y-85915035D01*
X130246665Y-85904400D01*
X130210560Y-85900844D01*
X130174455Y-85904400D01*
X117358704Y-85904400D01*
X117322599Y-85900844D01*
X117178514Y-85915035D01*
X117136486Y-85927784D01*
X117039967Y-85957063D01*
X116912280Y-86025313D01*
X116800362Y-86117162D01*
X116777346Y-86145207D01*
X115368205Y-87554349D01*
X115284768Y-87328207D01*
X115236868Y-87238593D01*
X115007787Y-87184718D01*
X114299005Y-87893500D01*
X114313148Y-87907643D01*
X114133543Y-88087248D01*
X114119400Y-88073105D01*
X114105258Y-88087248D01*
X113925653Y-87907643D01*
X113939795Y-87893500D01*
X113231013Y-87184718D01*
X113001932Y-87238593D01*
X112895637Y-87469184D01*
X112836372Y-87716081D01*
X112826412Y-87969796D01*
X112866141Y-88220579D01*
X112954032Y-88458793D01*
X112980280Y-88507900D01*
X112015540Y-88507900D01*
X112103163Y-88317816D01*
X112162428Y-88070919D01*
X112172388Y-87817204D01*
X112132659Y-87566421D01*
X112044768Y-87328207D01*
X111996868Y-87238593D01*
X111767787Y-87184718D01*
X111059005Y-87893500D01*
X111073148Y-87907643D01*
X110893543Y-88087248D01*
X110879400Y-88073105D01*
X110865258Y-88087248D01*
X110685653Y-87907643D01*
X110699795Y-87893500D01*
X109991013Y-87184718D01*
X109761932Y-87238593D01*
X109655637Y-87469184D01*
X109625189Y-87596029D01*
X109547285Y-87543975D01*
X109290682Y-87437686D01*
X109018273Y-87383500D01*
X108740527Y-87383500D01*
X108468118Y-87437686D01*
X108211515Y-87543975D01*
X108136992Y-87593770D01*
X108132659Y-87566421D01*
X108044768Y-87328207D01*
X107996868Y-87238593D01*
X107767787Y-87184718D01*
X107059005Y-87893500D01*
X107073148Y-87907643D01*
X106893543Y-88087248D01*
X106879400Y-88073105D01*
X106170618Y-88781887D01*
X106224493Y-89010968D01*
X106455084Y-89117263D01*
X106701981Y-89176528D01*
X106955696Y-89186488D01*
X107206479Y-89146759D01*
X107444693Y-89058868D01*
X107489769Y-89034774D01*
X107523586Y-89204782D01*
X107629875Y-89461385D01*
X107784182Y-89692322D01*
X107980578Y-89888718D01*
X108211515Y-90043025D01*
X108327213Y-90090949D01*
X108179626Y-90189563D01*
X108110689Y-90258500D01*
X107362650Y-90258500D01*
X107345650Y-90241500D01*
X107136969Y-90241500D01*
X107113580Y-90228998D01*
X106993882Y-90192688D01*
X106869400Y-90180428D01*
X105069400Y-90180428D01*
X104944918Y-90192688D01*
X104825220Y-90228998D01*
X104801831Y-90241500D01*
X104593150Y-90241500D01*
X104434400Y-90400250D01*
X104445265Y-90501130D01*
X104474336Y-90592654D01*
X104443588Y-90694018D01*
X104431328Y-90818500D01*
X102923741Y-90818500D01*
X102923864Y-89986750D01*
X104434400Y-89986750D01*
X104593150Y-90145500D01*
X105842400Y-90145500D01*
X105842400Y-89542250D01*
X106096400Y-89542250D01*
X106096400Y-90145500D01*
X107345650Y-90145500D01*
X107504400Y-89986750D01*
X107493535Y-89885870D01*
X107455668Y-89766655D01*
X107395271Y-89657119D01*
X107314664Y-89561471D01*
X107216947Y-89483386D01*
X107105873Y-89425865D01*
X106985712Y-89391119D01*
X106861081Y-89380482D01*
X106255150Y-89383500D01*
X106096400Y-89542250D01*
X105842400Y-89542250D01*
X105683650Y-89383500D01*
X105077719Y-89380482D01*
X104953088Y-89391119D01*
X104832927Y-89425865D01*
X104721853Y-89483386D01*
X104624136Y-89561471D01*
X104543529Y-89657119D01*
X104483132Y-89766655D01*
X104445265Y-89885870D01*
X104434400Y-89986750D01*
X102923864Y-89986750D01*
X102924044Y-88781887D01*
X104140618Y-88781887D01*
X104194493Y-89010968D01*
X104425084Y-89117263D01*
X104671981Y-89176528D01*
X104925696Y-89186488D01*
X105176479Y-89146759D01*
X105414693Y-89058868D01*
X105504307Y-89010968D01*
X105558182Y-88781887D01*
X104849400Y-88073105D01*
X104140618Y-88781887D01*
X102924044Y-88781887D01*
X102924165Y-87969796D01*
X103556412Y-87969796D01*
X103596141Y-88220579D01*
X103684032Y-88458793D01*
X103731932Y-88548407D01*
X103961013Y-88602282D01*
X104669795Y-87893500D01*
X105029005Y-87893500D01*
X105737787Y-88602282D01*
X105864400Y-88572505D01*
X105991013Y-88602282D01*
X106699795Y-87893500D01*
X105991013Y-87184718D01*
X105864400Y-87214495D01*
X105737787Y-87184718D01*
X105029005Y-87893500D01*
X104669795Y-87893500D01*
X103961013Y-87184718D01*
X103731932Y-87238593D01*
X103625637Y-87469184D01*
X103566372Y-87716081D01*
X103556412Y-87969796D01*
X102924165Y-87969796D01*
X102924308Y-87005113D01*
X104140618Y-87005113D01*
X104849400Y-87713895D01*
X105558182Y-87005113D01*
X106170618Y-87005113D01*
X106879400Y-87713895D01*
X107588182Y-87005113D01*
X110170618Y-87005113D01*
X110879400Y-87713895D01*
X111588182Y-87005113D01*
X113410618Y-87005113D01*
X114119400Y-87713895D01*
X114828182Y-87005113D01*
X114774307Y-86776032D01*
X114543716Y-86669737D01*
X114296819Y-86610472D01*
X114043104Y-86600512D01*
X113792321Y-86640241D01*
X113554107Y-86728132D01*
X113464493Y-86776032D01*
X113410618Y-87005113D01*
X111588182Y-87005113D01*
X111534307Y-86776032D01*
X111303716Y-86669737D01*
X111056819Y-86610472D01*
X110803104Y-86600512D01*
X110552321Y-86640241D01*
X110314107Y-86728132D01*
X110224493Y-86776032D01*
X110170618Y-87005113D01*
X107588182Y-87005113D01*
X107534307Y-86776032D01*
X107303716Y-86669737D01*
X107056819Y-86610472D01*
X106803104Y-86600512D01*
X106552321Y-86640241D01*
X106314107Y-86728132D01*
X106224493Y-86776032D01*
X106170618Y-87005113D01*
X105558182Y-87005113D01*
X105504307Y-86776032D01*
X105273716Y-86669737D01*
X105026819Y-86610472D01*
X104773104Y-86600512D01*
X104522321Y-86640241D01*
X104284107Y-86728132D01*
X104194493Y-86776032D01*
X104140618Y-87005113D01*
X102924308Y-87005113D01*
X102925265Y-80578787D01*
X103187592Y-80971387D01*
X103582473Y-81366268D01*
X104046804Y-81676524D01*
X104562741Y-81890232D01*
X105110457Y-81999180D01*
X105668903Y-81999180D01*
X106216619Y-81890232D01*
X106732556Y-81676524D01*
X107196887Y-81366268D01*
X107591768Y-80971387D01*
X107902024Y-80507056D01*
X108115732Y-79991119D01*
X108224680Y-79443403D01*
X108224680Y-78884957D01*
X108115732Y-78337241D01*
X107902024Y-77821304D01*
X107591768Y-77356973D01*
X107196887Y-76962092D01*
X106793519Y-76692570D01*
X138262444Y-76697239D01*
%TA.AperFunction,Conductor*%
D24*
G36*
X138262444Y-76697239D02*
G01*
X137839453Y-76979872D01*
X137444572Y-77374753D01*
X137134316Y-77839084D01*
X136920608Y-78355021D01*
X136811660Y-78902737D01*
X136811660Y-79461183D01*
X136920608Y-80008899D01*
X137134316Y-80524836D01*
X137444572Y-80989167D01*
X137839453Y-81384048D01*
X138303784Y-81694304D01*
X138819721Y-81908012D01*
X139367437Y-82016960D01*
X139925883Y-82016960D01*
X140473599Y-81908012D01*
X140989536Y-81694304D01*
X141453867Y-81384048D01*
X141848748Y-80989167D01*
X142088000Y-80631101D01*
X142088001Y-111948335D01*
X142065024Y-111892864D01*
X141754768Y-111428533D01*
X141359887Y-111033652D01*
X140895556Y-110723396D01*
X140379619Y-110509688D01*
X139831903Y-110400740D01*
X139273457Y-110400740D01*
X138725741Y-110509688D01*
X138209804Y-110723396D01*
X137745473Y-111033652D01*
X137350592Y-111428533D01*
X137040336Y-111892864D01*
X136826628Y-112408801D01*
X136717680Y-112956517D01*
X136717680Y-113514963D01*
X136826628Y-114062679D01*
X137040336Y-114578616D01*
X137350592Y-115042947D01*
X137745473Y-115437828D01*
X138209804Y-115748084D01*
X138479897Y-115859960D01*
X106593055Y-115859960D01*
X106857016Y-115750624D01*
X107321347Y-115440368D01*
X107716228Y-115045487D01*
X108026484Y-114581156D01*
X108240192Y-114065219D01*
X108349140Y-113517503D01*
X108349140Y-112959057D01*
X108240192Y-112411341D01*
X108026484Y-111895404D01*
X107716228Y-111431073D01*
X107321347Y-111036192D01*
X106857016Y-110725936D01*
X106341079Y-110512228D01*
X105793363Y-110403280D01*
X105234917Y-110403280D01*
X104687201Y-110512228D01*
X104171264Y-110725936D01*
X103706933Y-111036192D01*
X103312052Y-111431073D01*
X103001796Y-111895404D01*
X102920579Y-112091478D01*
X102921321Y-107095080D01*
X136514968Y-107095080D01*
X136527228Y-107219562D01*
X136563538Y-107339260D01*
X136622503Y-107449574D01*
X136701855Y-107546265D01*
X136798546Y-107625617D01*
X136908860Y-107684582D01*
X137028558Y-107720892D01*
X137153040Y-107733152D01*
X138417290Y-107730080D01*
X138576040Y-107571330D01*
X138576040Y-106072080D01*
X138830040Y-106072080D01*
X138830040Y-107571330D01*
X138988790Y-107730080D01*
X140253040Y-107733152D01*
X140377522Y-107720892D01*
X140497220Y-107684582D01*
X140607534Y-107625617D01*
X140704225Y-107546265D01*
X140783577Y-107449574D01*
X140842542Y-107339260D01*
X140878852Y-107219562D01*
X140891112Y-107095080D01*
X140888040Y-106230830D01*
X140729290Y-106072080D01*
X138830040Y-106072080D01*
X138576040Y-106072080D01*
X136676790Y-106072080D01*
X136518040Y-106230830D01*
X136514968Y-107095080D01*
X102921321Y-107095080D01*
X102921398Y-106581887D01*
X104140618Y-106581887D01*
X104194493Y-106810968D01*
X104425084Y-106917263D01*
X104671981Y-106976528D01*
X104925696Y-106986488D01*
X105176479Y-106946759D01*
X105414693Y-106858868D01*
X105504307Y-106810968D01*
X105558182Y-106581887D01*
X106170618Y-106581887D01*
X106224493Y-106810968D01*
X106455084Y-106917263D01*
X106701981Y-106976528D01*
X106955696Y-106986488D01*
X107206479Y-106946759D01*
X107444693Y-106858868D01*
X107534307Y-106810968D01*
X107588182Y-106581887D01*
X110170618Y-106581887D01*
X110224493Y-106810968D01*
X110455084Y-106917263D01*
X110701981Y-106976528D01*
X110955696Y-106986488D01*
X111206479Y-106946759D01*
X111444693Y-106858868D01*
X111534307Y-106810968D01*
X111588182Y-106581887D01*
X114410618Y-106581887D01*
X114464493Y-106810968D01*
X114695084Y-106917263D01*
X114941981Y-106976528D01*
X115195696Y-106986488D01*
X115446479Y-106946759D01*
X115684693Y-106858868D01*
X115774307Y-106810968D01*
X115828182Y-106581887D01*
X115119400Y-105873105D01*
X114410618Y-106581887D01*
X111588182Y-106581887D01*
X110879400Y-105873105D01*
X110170618Y-106581887D01*
X107588182Y-106581887D01*
X106879400Y-105873105D01*
X106170618Y-106581887D01*
X105558182Y-106581887D01*
X104849400Y-105873105D01*
X104140618Y-106581887D01*
X102921398Y-106581887D01*
X102921519Y-105769796D01*
X103556412Y-105769796D01*
X103596141Y-106020579D01*
X103684032Y-106258793D01*
X103731932Y-106348407D01*
X103961013Y-106402282D01*
X104669795Y-105693500D01*
X105029005Y-105693500D01*
X105737787Y-106402282D01*
X105864400Y-106372505D01*
X105991013Y-106402282D01*
X106699795Y-105693500D01*
X105991013Y-104984718D01*
X105864400Y-105014495D01*
X105737787Y-104984718D01*
X105029005Y-105693500D01*
X104669795Y-105693500D01*
X103961013Y-104984718D01*
X103731932Y-105038593D01*
X103625637Y-105269184D01*
X103566372Y-105516081D01*
X103556412Y-105769796D01*
X102921519Y-105769796D01*
X102921662Y-104805113D01*
X104140618Y-104805113D01*
X104849400Y-105513895D01*
X105558182Y-104805113D01*
X105510969Y-104604360D01*
X105683650Y-104603500D01*
X105842400Y-104444750D01*
X105842400Y-103841500D01*
X104593150Y-103841500D01*
X104434400Y-104000250D01*
X104445265Y-104101130D01*
X104483132Y-104220345D01*
X104543529Y-104329881D01*
X104623082Y-104424278D01*
X104522321Y-104440241D01*
X104284107Y-104528132D01*
X104194493Y-104576032D01*
X104140618Y-104805113D01*
X102921662Y-104805113D01*
X102923741Y-90818500D01*
X104431328Y-90818500D01*
X104431328Y-91168500D01*
X104443588Y-91292982D01*
X104474080Y-91393499D01*
X104443588Y-91494018D01*
X104431328Y-91618500D01*
X104431328Y-91968500D01*
X104443588Y-92092982D01*
X104474336Y-92194346D01*
X104445265Y-92285870D01*
X104434400Y-92386750D01*
X104593150Y-92545500D01*
X104801831Y-92545500D01*
X104825220Y-92558002D01*
X104942241Y-92593500D01*
X104825220Y-92628998D01*
X104801831Y-92641500D01*
X104593150Y-92641500D01*
X104434400Y-92800250D01*
X104445265Y-92901130D01*
X104474336Y-92992654D01*
X104443588Y-93094018D01*
X104431328Y-93218500D01*
X104431328Y-93568500D01*
X104443588Y-93692982D01*
X104474080Y-93793500D01*
X104443588Y-93894018D01*
X104431328Y-94018500D01*
X104431328Y-94368500D01*
X104443588Y-94492982D01*
X104474336Y-94594346D01*
X104445265Y-94685870D01*
X104434400Y-94786750D01*
X104593150Y-94945500D01*
X104801831Y-94945500D01*
X104825220Y-94958002D01*
X104942241Y-94993500D01*
X104825220Y-95028998D01*
X104801831Y-95041500D01*
X104593150Y-95041500D01*
X104434400Y-95200250D01*
X104445265Y-95301130D01*
X104474336Y-95392654D01*
X104443588Y-95494018D01*
X104431328Y-95618500D01*
X104431328Y-95968500D01*
X104443588Y-96092982D01*
X104474080Y-96193500D01*
X104443588Y-96294018D01*
X104431328Y-96418500D01*
X104431328Y-96768500D01*
X104443588Y-96892982D01*
X104474080Y-96993500D01*
X104443588Y-97094018D01*
X104431328Y-97218500D01*
X104431328Y-97568500D01*
X104443588Y-97692982D01*
X104474080Y-97793500D01*
X104443588Y-97894018D01*
X104431328Y-98018500D01*
X104431328Y-98368500D01*
X104443588Y-98492982D01*
X104474336Y-98594346D01*
X104445265Y-98685870D01*
X104434400Y-98786750D01*
X104593150Y-98945500D01*
X104801831Y-98945500D01*
X104825220Y-98958002D01*
X104942241Y-98993500D01*
X104825220Y-99028998D01*
X104801831Y-99041500D01*
X104593150Y-99041500D01*
X104434400Y-99200250D01*
X104445265Y-99301130D01*
X104474336Y-99392654D01*
X104443588Y-99494018D01*
X104431328Y-99618500D01*
X104431328Y-99968500D01*
X104443588Y-100092982D01*
X104474080Y-100193500D01*
X104443588Y-100294018D01*
X104431328Y-100418500D01*
X104431328Y-100768500D01*
X104443588Y-100892982D01*
X104474336Y-100994346D01*
X104445265Y-101085870D01*
X104434400Y-101186750D01*
X104593150Y-101345500D01*
X104801831Y-101345500D01*
X104825220Y-101358002D01*
X104942241Y-101393500D01*
X104825220Y-101428998D01*
X104801831Y-101441500D01*
X104593150Y-101441500D01*
X104434400Y-101600250D01*
X104445265Y-101701130D01*
X104474336Y-101792654D01*
X104443588Y-101894018D01*
X104431328Y-102018500D01*
X104431328Y-102368500D01*
X104443588Y-102492982D01*
X104474080Y-102593500D01*
X104443588Y-102694018D01*
X104431328Y-102818500D01*
X104431328Y-103168500D01*
X104443588Y-103292982D01*
X104474336Y-103394346D01*
X104445265Y-103485870D01*
X104434400Y-103586750D01*
X104593150Y-103745500D01*
X104801831Y-103745500D01*
X104825220Y-103758002D01*
X104944918Y-103794312D01*
X105069400Y-103806572D01*
X106116400Y-103806572D01*
X106116400Y-103841500D01*
X106096400Y-103841500D01*
X106096400Y-104444750D01*
X106226571Y-104574921D01*
X106224493Y-104576032D01*
X106170618Y-104805113D01*
X106879400Y-105513895D01*
X106893543Y-105499753D01*
X107073148Y-105679358D01*
X107059005Y-105693500D01*
X107767787Y-106402282D01*
X107996868Y-106348407D01*
X108103163Y-106117816D01*
X108133611Y-105990971D01*
X108211515Y-106043025D01*
X108468118Y-106149314D01*
X108740527Y-106203500D01*
X109018273Y-106203500D01*
X109290682Y-106149314D01*
X109547285Y-106043025D01*
X109621808Y-105993230D01*
X109626141Y-106020579D01*
X109714032Y-106258793D01*
X109761932Y-106348407D01*
X109991013Y-106402282D01*
X110699795Y-105693500D01*
X111059005Y-105693500D01*
X111767787Y-106402282D01*
X111996868Y-106348407D01*
X112103163Y-106117816D01*
X112162428Y-105870919D01*
X112172388Y-105617204D01*
X112132659Y-105366421D01*
X112044768Y-105128207D01*
X111996868Y-105038593D01*
X111767787Y-104984718D01*
X111059005Y-105693500D01*
X110699795Y-105693500D01*
X110685653Y-105679358D01*
X110865258Y-105499753D01*
X110879400Y-105513895D01*
X111588182Y-104805113D01*
X111534307Y-104576032D01*
X111303716Y-104469737D01*
X111056819Y-104410472D01*
X110803104Y-104400512D01*
X110552321Y-104440241D01*
X110314107Y-104528132D01*
X110269031Y-104552226D01*
X110235214Y-104382218D01*
X110128925Y-104125615D01*
X109974618Y-103894678D01*
X109778222Y-103698282D01*
X109631507Y-103600250D01*
X110254400Y-103600250D01*
X110265265Y-103701130D01*
X110303132Y-103820345D01*
X110363529Y-103929881D01*
X110444136Y-104025529D01*
X110541853Y-104103614D01*
X110652927Y-104161135D01*
X110773088Y-104195881D01*
X110897719Y-104206518D01*
X111503650Y-104203500D01*
X111662400Y-104044750D01*
X111662400Y-103441500D01*
X110413150Y-103441500D01*
X110254400Y-103600250D01*
X109631507Y-103600250D01*
X109547285Y-103543975D01*
X109290682Y-103437686D01*
X109018273Y-103383500D01*
X108740527Y-103383500D01*
X108731651Y-103385266D01*
X108767426Y-103298898D01*
X108781429Y-103228500D01*
X108891339Y-103228500D01*
X109091298Y-103188726D01*
X109279656Y-103110705D01*
X109449174Y-102997437D01*
X109593337Y-102853274D01*
X109706605Y-102683756D01*
X109784626Y-102495398D01*
X109824400Y-102295439D01*
X109824400Y-102091561D01*
X109784626Y-101891602D01*
X109706605Y-101703244D01*
X109593337Y-101533726D01*
X109453111Y-101393500D01*
X109593337Y-101253274D01*
X109706605Y-101083756D01*
X109784626Y-100895398D01*
X109824400Y-100695439D01*
X109824400Y-100491561D01*
X109784626Y-100291602D01*
X109706605Y-100103244D01*
X109593337Y-99933726D01*
X109449174Y-99789563D01*
X109279656Y-99676295D01*
X109091298Y-99598274D01*
X108891339Y-99558500D01*
X108806021Y-99558500D01*
X108792826Y-99492162D01*
X108714805Y-99303804D01*
X108601537Y-99134286D01*
X108457374Y-98990123D01*
X108456843Y-98989768D01*
X108593337Y-98853274D01*
X108706605Y-98683756D01*
X108784626Y-98495398D01*
X108797933Y-98428500D01*
X108891339Y-98428500D01*
X109091298Y-98388726D01*
X109279656Y-98310705D01*
X109449174Y-98197437D01*
X109593337Y-98053274D01*
X109706605Y-97883756D01*
X109784626Y-97695398D01*
X109824400Y-97495439D01*
X109824400Y-97291561D01*
X109784626Y-97091602D01*
X109706605Y-96903244D01*
X109593337Y-96733726D01*
X109453111Y-96593500D01*
X109593337Y-96453274D01*
X109706605Y-96283756D01*
X109784626Y-96095398D01*
X109824400Y-95895439D01*
X109824400Y-95691561D01*
X109784626Y-95491602D01*
X109706605Y-95303244D01*
X109593337Y-95133726D01*
X109453111Y-94993500D01*
X109593337Y-94853274D01*
X109706605Y-94683756D01*
X109784626Y-94495398D01*
X109824400Y-94295439D01*
X109824400Y-94091561D01*
X109784626Y-93891602D01*
X109706605Y-93703244D01*
X109593337Y-93533726D01*
X109449174Y-93389563D01*
X109279656Y-93276295D01*
X109091298Y-93198274D01*
X108891339Y-93158500D01*
X108828535Y-93158500D01*
X108815686Y-93093902D01*
X108737665Y-92905544D01*
X108624397Y-92736026D01*
X108480234Y-92591863D01*
X108464956Y-92581655D01*
X108593337Y-92453274D01*
X108706605Y-92283756D01*
X108784626Y-92095398D01*
X108797933Y-92028500D01*
X108941339Y-92028500D01*
X109141298Y-91988726D01*
X109329656Y-91910705D01*
X109499174Y-91797437D01*
X109643337Y-91653274D01*
X109730011Y-91523557D01*
X110094141Y-91887687D01*
X110117162Y-91915738D01*
X110229080Y-92007587D01*
X110328238Y-92060588D01*
X110413150Y-92145500D01*
X110621831Y-92145500D01*
X110645220Y-92158002D01*
X110762241Y-92193500D01*
X110645220Y-92228998D01*
X110621831Y-92241500D01*
X110413150Y-92241500D01*
X110254400Y-92400250D01*
X110265265Y-92501130D01*
X110294336Y-92592654D01*
X110263588Y-92694018D01*
X110251328Y-92818500D01*
X110251328Y-93168500D01*
X110263588Y-93292982D01*
X110294080Y-93393500D01*
X110263588Y-93494018D01*
X110251328Y-93618500D01*
X110251328Y-93968500D01*
X110263588Y-94092982D01*
X110294336Y-94194346D01*
X110265265Y-94285870D01*
X110254400Y-94386750D01*
X110413150Y-94545500D01*
X110621831Y-94545500D01*
X110645220Y-94558002D01*
X110762241Y-94593500D01*
X110645220Y-94628998D01*
X110621831Y-94641500D01*
X110413150Y-94641500D01*
X110254400Y-94800250D01*
X110265265Y-94901130D01*
X110294336Y-94992654D01*
X110263588Y-95094018D01*
X110251328Y-95218500D01*
X110251328Y-95568500D01*
X110263588Y-95692982D01*
X110294080Y-95793500D01*
X110263588Y-95894018D01*
X110251328Y-96018500D01*
X110251328Y-96368500D01*
X110263588Y-96492982D01*
X110294080Y-96593500D01*
X110263588Y-96694018D01*
X110251328Y-96818500D01*
X110251328Y-97168500D01*
X110263588Y-97292982D01*
X110294080Y-97393500D01*
X110263588Y-97494018D01*
X110251328Y-97618500D01*
X110251328Y-97968500D01*
X110263588Y-98092982D01*
X110294336Y-98194346D01*
X110265265Y-98285870D01*
X110254400Y-98386750D01*
X110413150Y-98545500D01*
X110621831Y-98545500D01*
X110645220Y-98558002D01*
X110762241Y-98593500D01*
X110645220Y-98628998D01*
X110621831Y-98641500D01*
X110413150Y-98641500D01*
X110254400Y-98800250D01*
X110265265Y-98901130D01*
X110294336Y-98992654D01*
X110263588Y-99094018D01*
X110251328Y-99218500D01*
X110251328Y-99568500D01*
X110263588Y-99692982D01*
X110294080Y-99793500D01*
X110263588Y-99894018D01*
X110251328Y-100018500D01*
X110251328Y-100368500D01*
X110263588Y-100492982D01*
X110294336Y-100594346D01*
X110265265Y-100685870D01*
X110254400Y-100786750D01*
X110413150Y-100945500D01*
X110621831Y-100945500D01*
X110645220Y-100958002D01*
X110762241Y-100993500D01*
X110645220Y-101028998D01*
X110621831Y-101041500D01*
X110413150Y-101041500D01*
X110254400Y-101200250D01*
X110265265Y-101301130D01*
X110294336Y-101392654D01*
X110263588Y-101494018D01*
X110251328Y-101618500D01*
X110251328Y-101968500D01*
X110263588Y-102092982D01*
X110294080Y-102193500D01*
X110263588Y-102294018D01*
X110251328Y-102418500D01*
X110251328Y-102768500D01*
X110263588Y-102892982D01*
X110294336Y-102994346D01*
X110265265Y-103085870D01*
X110254400Y-103186750D01*
X110413150Y-103345500D01*
X110621831Y-103345500D01*
X110645220Y-103358002D01*
X110764918Y-103394312D01*
X110889400Y-103406572D01*
X111936400Y-103406572D01*
X111936400Y-103441500D01*
X111916400Y-103441500D01*
X111916400Y-104044750D01*
X112075150Y-104203500D01*
X112237995Y-104204311D01*
X112218520Y-104302221D01*
X112218520Y-104506099D01*
X112258294Y-104706058D01*
X112336315Y-104894416D01*
X112449583Y-105063934D01*
X112593746Y-105208097D01*
X112763264Y-105321365D01*
X112951622Y-105399386D01*
X113151581Y-105439160D01*
X113355459Y-105439160D01*
X113555418Y-105399386D01*
X113743776Y-105321365D01*
X113913294Y-105208097D01*
X113932777Y-105188614D01*
X113895637Y-105269184D01*
X113836372Y-105516081D01*
X113826412Y-105769796D01*
X113866141Y-106020579D01*
X113954032Y-106258793D01*
X114001932Y-106348407D01*
X114231013Y-106402282D01*
X114939795Y-105693500D01*
X115299005Y-105693500D01*
X116007787Y-106402282D01*
X116236868Y-106348407D01*
X116343163Y-106117816D01*
X116402428Y-105870919D01*
X116412388Y-105617204D01*
X116372659Y-105366421D01*
X116284768Y-105128207D01*
X116236868Y-105038593D01*
X116007787Y-104984718D01*
X115299005Y-105693500D01*
X114939795Y-105693500D01*
X114925653Y-105679358D01*
X115105258Y-105499753D01*
X115119400Y-105513895D01*
X115828182Y-104805113D01*
X115774307Y-104576032D01*
X115543716Y-104469737D01*
X115296819Y-104410472D01*
X115043104Y-104400512D01*
X114792321Y-104440241D01*
X114554107Y-104528132D01*
X114464493Y-104576032D01*
X114410619Y-104805111D01*
X114293768Y-104688260D01*
X114229495Y-104752533D01*
X114248746Y-104706058D01*
X114288520Y-104506099D01*
X114288520Y-104302221D01*
X114248746Y-104102262D01*
X114170725Y-103913904D01*
X114063520Y-103753460D01*
X114063520Y-102828508D01*
X114067439Y-102788720D01*
X114062862Y-102742250D01*
X114051800Y-102629932D01*
X114005483Y-102477247D01*
X113930269Y-102336531D01*
X113829048Y-102213192D01*
X113798134Y-102187822D01*
X113659200Y-102048888D01*
X113633828Y-102017972D01*
X113510489Y-101916751D01*
X113369773Y-101841537D01*
X113327472Y-101828705D01*
X113327472Y-101618500D01*
X113315212Y-101494018D01*
X113284464Y-101392654D01*
X113313535Y-101301130D01*
X113324400Y-101200250D01*
X113165650Y-101041500D01*
X112956969Y-101041500D01*
X112933580Y-101028998D01*
X112816559Y-100993500D01*
X112866007Y-100978500D01*
X114892443Y-100978500D01*
X114964793Y-101050850D01*
X114989376Y-101080804D01*
X115108907Y-101178902D01*
X115245280Y-101251794D01*
X115393253Y-101296682D01*
X115468166Y-101304060D01*
X115508579Y-101308040D01*
X115508584Y-101308040D01*
X115547140Y-101311837D01*
X115585695Y-101308040D01*
X126831907Y-101308040D01*
X126870460Y-101311837D01*
X126909013Y-101308040D01*
X126909021Y-101308040D01*
X127024347Y-101296681D01*
X127172320Y-101251794D01*
X127308693Y-101178902D01*
X127428224Y-101080804D01*
X127452808Y-101050849D01*
X127692905Y-100810751D01*
X127722864Y-100786164D01*
X127820962Y-100666633D01*
X127880164Y-100555873D01*
X128917700Y-100555873D01*
X129042182Y-100543613D01*
X129161880Y-100507303D01*
X129272194Y-100448338D01*
X129368885Y-100368986D01*
X129448237Y-100272295D01*
X129449842Y-100269293D01*
X129458437Y-100262239D01*
X129481457Y-100234189D01*
X130140636Y-99575011D01*
X131781284Y-99575011D01*
X131817389Y-99578567D01*
X131853494Y-99575011D01*
X131961474Y-99564376D01*
X132100022Y-99522348D01*
X132227709Y-99454098D01*
X132339627Y-99362249D01*
X132362648Y-99334199D01*
X133129649Y-98567197D01*
X133198843Y-98670754D01*
X133302339Y-98774250D01*
X133226783Y-98849806D01*
X133113515Y-99019324D01*
X133035494Y-99207682D01*
X132995720Y-99407641D01*
X132995720Y-99611519D01*
X133035494Y-99811478D01*
X133113515Y-99999836D01*
X133226783Y-100169354D01*
X133330279Y-100272850D01*
X133249643Y-100353486D01*
X133136375Y-100523004D01*
X133058354Y-100711362D01*
X133018580Y-100911321D01*
X133018580Y-101115199D01*
X133058354Y-101315158D01*
X133136375Y-101503516D01*
X133249643Y-101673034D01*
X133336629Y-101760020D01*
X133244563Y-101852086D01*
X133131295Y-102021604D01*
X133053274Y-102209962D01*
X133013500Y-102409921D01*
X133013500Y-102613799D01*
X133053274Y-102813758D01*
X133131295Y-103002116D01*
X133244563Y-103171634D01*
X133388726Y-103315797D01*
X133558244Y-103429065D01*
X133746602Y-103507086D01*
X133946561Y-103546860D01*
X134150439Y-103546860D01*
X134350398Y-103507086D01*
X134538756Y-103429065D01*
X134708274Y-103315797D01*
X134777211Y-103246860D01*
X135640535Y-103246860D01*
X135676640Y-103250416D01*
X135712745Y-103246860D01*
X135814968Y-103236792D01*
X135814968Y-103425080D01*
X135824817Y-103525080D01*
X135814968Y-103625080D01*
X135814968Y-103925080D01*
X135825195Y-104028921D01*
X135818040Y-104093330D01*
X135850287Y-104125577D01*
X135863538Y-104169260D01*
X135922503Y-104279574D01*
X135955315Y-104319555D01*
X135818040Y-104456830D01*
X135829611Y-104560991D01*
X135868105Y-104680005D01*
X135929077Y-104789222D01*
X136010186Y-104884445D01*
X136108313Y-104962015D01*
X136219687Y-105018951D01*
X136340029Y-105053064D01*
X136464715Y-105063045D01*
X136515918Y-105062444D01*
X136518040Y-105659330D01*
X136676790Y-105818080D01*
X138576040Y-105818080D01*
X138576040Y-105798080D01*
X138830040Y-105798080D01*
X138830040Y-105818080D01*
X140729290Y-105818080D01*
X140888040Y-105659330D01*
X140891112Y-104795080D01*
X140878852Y-104670598D01*
X140852398Y-104583393D01*
X140991617Y-104444174D01*
X141104885Y-104274656D01*
X141182906Y-104086298D01*
X141222680Y-103886339D01*
X141222680Y-103682461D01*
X141182906Y-103482502D01*
X141104885Y-103294144D01*
X140991617Y-103124626D01*
X140847454Y-102980463D01*
X140677936Y-102867195D01*
X140489578Y-102789174D01*
X140289619Y-102749400D01*
X140085741Y-102749400D01*
X139885782Y-102789174D01*
X139697424Y-102867195D01*
X139527906Y-102980463D01*
X139480765Y-103027604D01*
X139469125Y-102999504D01*
X139355857Y-102829986D01*
X139211694Y-102685823D01*
X139042176Y-102572555D01*
X138853818Y-102494534D01*
X138653859Y-102454760D01*
X138449981Y-102454760D01*
X138250022Y-102494534D01*
X138181475Y-102522927D01*
X138191112Y-102425080D01*
X138191112Y-102125080D01*
X138181263Y-102025080D01*
X138191112Y-101925080D01*
X138191112Y-101625080D01*
X138180885Y-101521239D01*
X138188040Y-101456830D01*
X138155793Y-101424583D01*
X138142542Y-101380900D01*
X138085979Y-101275080D01*
X138142542Y-101169260D01*
X138155793Y-101125577D01*
X138188040Y-101093330D01*
X138180885Y-101028921D01*
X138191112Y-100925080D01*
X138191112Y-100625080D01*
X138181263Y-100525080D01*
X138191112Y-100425080D01*
X138191112Y-100125080D01*
X138180885Y-100021239D01*
X138188040Y-99956830D01*
X138155793Y-99924583D01*
X138142542Y-99880900D01*
X138085979Y-99775080D01*
X138142542Y-99669260D01*
X138155793Y-99625577D01*
X138188040Y-99593330D01*
X138180885Y-99528921D01*
X138191112Y-99425080D01*
X138191112Y-99125080D01*
X138181263Y-99025080D01*
X138191112Y-98925080D01*
X138191112Y-98625080D01*
X138180885Y-98521239D01*
X138188040Y-98456830D01*
X138155793Y-98424583D01*
X138142542Y-98380900D01*
X138085979Y-98275080D01*
X138142542Y-98169260D01*
X138155793Y-98125577D01*
X138188040Y-98093330D01*
X138180885Y-98028921D01*
X138191112Y-97925080D01*
X138191112Y-97625080D01*
X138181263Y-97525080D01*
X138191112Y-97425080D01*
X138191112Y-97125080D01*
X138180885Y-97021239D01*
X138188040Y-96956830D01*
X138155793Y-96924583D01*
X138142542Y-96880900D01*
X138085979Y-96775080D01*
X138142542Y-96669260D01*
X138155793Y-96625577D01*
X138188040Y-96593330D01*
X138180885Y-96528921D01*
X138191112Y-96425080D01*
X138191112Y-96125080D01*
X138181263Y-96025080D01*
X138191112Y-95925080D01*
X138191112Y-95625080D01*
X138181263Y-95525080D01*
X138191112Y-95425080D01*
X138191112Y-95125080D01*
X138181263Y-95025080D01*
X138191112Y-94925080D01*
X138191112Y-94625080D01*
X138181263Y-94525080D01*
X138191112Y-94425080D01*
X138191112Y-94125080D01*
X138181263Y-94025080D01*
X138191112Y-93925080D01*
X138191112Y-93625080D01*
X138180885Y-93521239D01*
X138185589Y-93478895D01*
X138256393Y-93457417D01*
X138384080Y-93389167D01*
X138495998Y-93297318D01*
X138519018Y-93269268D01*
X138520806Y-93267480D01*
X138618299Y-93267480D01*
X138818258Y-93227706D01*
X139006616Y-93149685D01*
X139176134Y-93036417D01*
X139320297Y-92892254D01*
X139433565Y-92722736D01*
X139511586Y-92534378D01*
X139551360Y-92334419D01*
X139551360Y-92130541D01*
X139511586Y-91930582D01*
X139433565Y-91742224D01*
X139320297Y-91572706D01*
X139176134Y-91428543D01*
X139006616Y-91315275D01*
X138818258Y-91237254D01*
X138618299Y-91197480D01*
X138414421Y-91197480D01*
X138214462Y-91237254D01*
X138188040Y-91248198D01*
X138188040Y-91148078D01*
X138148301Y-91148078D01*
X138155477Y-91125893D01*
X138188040Y-91093330D01*
X138180458Y-91025080D01*
X138188040Y-90956830D01*
X138155477Y-90924267D01*
X138137975Y-90870155D01*
X138085450Y-90776069D01*
X138142542Y-90669260D01*
X138155793Y-90625577D01*
X138188040Y-90593330D01*
X138180885Y-90528921D01*
X138191112Y-90425080D01*
X138191112Y-90125080D01*
X138181263Y-90025080D01*
X138191112Y-89925080D01*
X138191112Y-89625080D01*
X138181263Y-89525080D01*
X138191112Y-89425080D01*
X138191112Y-89125080D01*
X138181263Y-89025080D01*
X138191112Y-88925080D01*
X138191112Y-88890630D01*
X138417290Y-88890080D01*
X138576040Y-88731330D01*
X138576040Y-87232080D01*
X138830040Y-87232080D01*
X138830040Y-88731330D01*
X138988790Y-88890080D01*
X140253040Y-88893152D01*
X140377522Y-88880892D01*
X140497220Y-88844582D01*
X140607534Y-88785617D01*
X140704225Y-88706265D01*
X140783577Y-88609574D01*
X140842542Y-88499260D01*
X140878852Y-88379562D01*
X140891112Y-88255080D01*
X140888040Y-87390830D01*
X140729290Y-87232080D01*
X138830040Y-87232080D01*
X138576040Y-87232080D01*
X136676790Y-87232080D01*
X136518040Y-87390830D01*
X136515921Y-87987008D01*
X136453040Y-87987008D01*
X136421848Y-87990080D01*
X135202576Y-87990080D01*
X135164020Y-87986283D01*
X135146879Y-87987971D01*
X135039439Y-87966600D01*
X134835561Y-87966600D01*
X134635602Y-88006374D01*
X134447244Y-88084395D01*
X134277726Y-88197663D01*
X134133563Y-88341826D01*
X134020295Y-88511344D01*
X133942274Y-88699702D01*
X133902500Y-88899661D01*
X133902500Y-89041700D01*
X131083542Y-89041700D01*
X131046219Y-89038024D01*
X131008896Y-89041700D01*
X131008887Y-89041700D01*
X130897234Y-89052697D01*
X130753973Y-89096154D01*
X130640679Y-89156712D01*
X130661360Y-89052739D01*
X130661360Y-88962559D01*
X130723301Y-88974880D01*
X130927179Y-88974880D01*
X131127138Y-88935106D01*
X131315496Y-88857085D01*
X131485014Y-88743817D01*
X131629177Y-88599654D01*
X131742445Y-88430136D01*
X131820466Y-88241778D01*
X131852486Y-88080800D01*
X132009219Y-88080800D01*
X132209178Y-88041026D01*
X132397536Y-87963005D01*
X132567054Y-87849737D01*
X132711217Y-87705574D01*
X132824485Y-87536056D01*
X132902506Y-87347698D01*
X132942280Y-87147739D01*
X132942280Y-86943861D01*
X132902506Y-86743902D01*
X132824485Y-86555544D01*
X132711217Y-86386026D01*
X132567054Y-86241863D01*
X132397536Y-86128595D01*
X132209178Y-86050574D01*
X132009219Y-86010800D01*
X131805341Y-86010800D01*
X131605382Y-86050574D01*
X131417024Y-86128595D01*
X131247506Y-86241863D01*
X131178569Y-86310800D01*
X130921406Y-86310800D01*
X130755819Y-86145213D01*
X130732798Y-86117162D01*
X130620880Y-86025313D01*
X130493193Y-85957063D01*
X130486656Y-85955080D01*
X136514968Y-85955080D01*
X136518040Y-86819330D01*
X136676790Y-86978080D01*
X138576040Y-86978080D01*
X138576040Y-85478830D01*
X138830040Y-85478830D01*
X138830040Y-86978080D01*
X140729290Y-86978080D01*
X140888040Y-86819330D01*
X140891112Y-85955080D01*
X140878852Y-85830598D01*
X140842542Y-85710900D01*
X140783577Y-85600586D01*
X140704225Y-85503895D01*
X140607534Y-85424543D01*
X140497220Y-85365578D01*
X140377522Y-85329268D01*
X140253040Y-85317008D01*
X138988790Y-85320080D01*
X138830040Y-85478830D01*
X138576040Y-85478830D01*
X138417290Y-85320080D01*
X137153040Y-85317008D01*
X137028558Y-85329268D01*
X136908860Y-85365578D01*
X136798546Y-85424543D01*
X136701855Y-85503895D01*
X136622503Y-85600586D01*
X136563538Y-85710900D01*
X136527228Y-85830598D01*
X136514968Y-85955080D01*
X130486656Y-85955080D01*
X130354645Y-85915035D01*
X130246665Y-85904400D01*
X130210560Y-85900844D01*
X130174455Y-85904400D01*
X117358704Y-85904400D01*
X117322599Y-85900844D01*
X117178514Y-85915035D01*
X117136486Y-85927784D01*
X117039967Y-85957063D01*
X116912280Y-86025313D01*
X116800362Y-86117162D01*
X116777346Y-86145207D01*
X115368205Y-87554349D01*
X115284768Y-87328207D01*
X115236868Y-87238593D01*
X115007787Y-87184718D01*
X114299005Y-87893500D01*
X114313148Y-87907643D01*
X114133543Y-88087248D01*
X114119400Y-88073105D01*
X114105258Y-88087248D01*
X113925653Y-87907643D01*
X113939795Y-87893500D01*
X113231013Y-87184718D01*
X113001932Y-87238593D01*
X112895637Y-87469184D01*
X112836372Y-87716081D01*
X112826412Y-87969796D01*
X112866141Y-88220579D01*
X112954032Y-88458793D01*
X112980280Y-88507900D01*
X112015540Y-88507900D01*
X112103163Y-88317816D01*
X112162428Y-88070919D01*
X112172388Y-87817204D01*
X112132659Y-87566421D01*
X112044768Y-87328207D01*
X111996868Y-87238593D01*
X111767787Y-87184718D01*
X111059005Y-87893500D01*
X111073148Y-87907643D01*
X110893543Y-88087248D01*
X110879400Y-88073105D01*
X110865258Y-88087248D01*
X110685653Y-87907643D01*
X110699795Y-87893500D01*
X109991013Y-87184718D01*
X109761932Y-87238593D01*
X109655637Y-87469184D01*
X109625189Y-87596029D01*
X109547285Y-87543975D01*
X109290682Y-87437686D01*
X109018273Y-87383500D01*
X108740527Y-87383500D01*
X108468118Y-87437686D01*
X108211515Y-87543975D01*
X108136992Y-87593770D01*
X108132659Y-87566421D01*
X108044768Y-87328207D01*
X107996868Y-87238593D01*
X107767787Y-87184718D01*
X107059005Y-87893500D01*
X107073148Y-87907643D01*
X106893543Y-88087248D01*
X106879400Y-88073105D01*
X106170618Y-88781887D01*
X106224493Y-89010968D01*
X106455084Y-89117263D01*
X106701981Y-89176528D01*
X106955696Y-89186488D01*
X107206479Y-89146759D01*
X107444693Y-89058868D01*
X107489769Y-89034774D01*
X107523586Y-89204782D01*
X107629875Y-89461385D01*
X107784182Y-89692322D01*
X107980578Y-89888718D01*
X108211515Y-90043025D01*
X108327213Y-90090949D01*
X108179626Y-90189563D01*
X108110689Y-90258500D01*
X107362650Y-90258500D01*
X107345650Y-90241500D01*
X107136969Y-90241500D01*
X107113580Y-90228998D01*
X106993882Y-90192688D01*
X106869400Y-90180428D01*
X105069400Y-90180428D01*
X104944918Y-90192688D01*
X104825220Y-90228998D01*
X104801831Y-90241500D01*
X104593150Y-90241500D01*
X104434400Y-90400250D01*
X104445265Y-90501130D01*
X104474336Y-90592654D01*
X104443588Y-90694018D01*
X104431328Y-90818500D01*
X102923741Y-90818500D01*
X102923864Y-89986750D01*
X104434400Y-89986750D01*
X104593150Y-90145500D01*
X105842400Y-90145500D01*
X105842400Y-89542250D01*
X106096400Y-89542250D01*
X106096400Y-90145500D01*
X107345650Y-90145500D01*
X107504400Y-89986750D01*
X107493535Y-89885870D01*
X107455668Y-89766655D01*
X107395271Y-89657119D01*
X107314664Y-89561471D01*
X107216947Y-89483386D01*
X107105873Y-89425865D01*
X106985712Y-89391119D01*
X106861081Y-89380482D01*
X106255150Y-89383500D01*
X106096400Y-89542250D01*
X105842400Y-89542250D01*
X105683650Y-89383500D01*
X105077719Y-89380482D01*
X104953088Y-89391119D01*
X104832927Y-89425865D01*
X104721853Y-89483386D01*
X104624136Y-89561471D01*
X104543529Y-89657119D01*
X104483132Y-89766655D01*
X104445265Y-89885870D01*
X104434400Y-89986750D01*
X102923864Y-89986750D01*
X102924044Y-88781887D01*
X104140618Y-88781887D01*
X104194493Y-89010968D01*
X104425084Y-89117263D01*
X104671981Y-89176528D01*
X104925696Y-89186488D01*
X105176479Y-89146759D01*
X105414693Y-89058868D01*
X105504307Y-89010968D01*
X105558182Y-88781887D01*
X104849400Y-88073105D01*
X104140618Y-88781887D01*
X102924044Y-88781887D01*
X102924165Y-87969796D01*
X103556412Y-87969796D01*
X103596141Y-88220579D01*
X103684032Y-88458793D01*
X103731932Y-88548407D01*
X103961013Y-88602282D01*
X104669795Y-87893500D01*
X105029005Y-87893500D01*
X105737787Y-88602282D01*
X105864400Y-88572505D01*
X105991013Y-88602282D01*
X106699795Y-87893500D01*
X105991013Y-87184718D01*
X105864400Y-87214495D01*
X105737787Y-87184718D01*
X105029005Y-87893500D01*
X104669795Y-87893500D01*
X103961013Y-87184718D01*
X103731932Y-87238593D01*
X103625637Y-87469184D01*
X103566372Y-87716081D01*
X103556412Y-87969796D01*
X102924165Y-87969796D01*
X102924308Y-87005113D01*
X104140618Y-87005113D01*
X104849400Y-87713895D01*
X105558182Y-87005113D01*
X106170618Y-87005113D01*
X106879400Y-87713895D01*
X107588182Y-87005113D01*
X110170618Y-87005113D01*
X110879400Y-87713895D01*
X111588182Y-87005113D01*
X113410618Y-87005113D01*
X114119400Y-87713895D01*
X114828182Y-87005113D01*
X114774307Y-86776032D01*
X114543716Y-86669737D01*
X114296819Y-86610472D01*
X114043104Y-86600512D01*
X113792321Y-86640241D01*
X113554107Y-86728132D01*
X113464493Y-86776032D01*
X113410618Y-87005113D01*
X111588182Y-87005113D01*
X111534307Y-86776032D01*
X111303716Y-86669737D01*
X111056819Y-86610472D01*
X110803104Y-86600512D01*
X110552321Y-86640241D01*
X110314107Y-86728132D01*
X110224493Y-86776032D01*
X110170618Y-87005113D01*
X107588182Y-87005113D01*
X107534307Y-86776032D01*
X107303716Y-86669737D01*
X107056819Y-86610472D01*
X106803104Y-86600512D01*
X106552321Y-86640241D01*
X106314107Y-86728132D01*
X106224493Y-86776032D01*
X106170618Y-87005113D01*
X105558182Y-87005113D01*
X105504307Y-86776032D01*
X105273716Y-86669737D01*
X105026819Y-86610472D01*
X104773104Y-86600512D01*
X104522321Y-86640241D01*
X104284107Y-86728132D01*
X104194493Y-86776032D01*
X104140618Y-87005113D01*
X102924308Y-87005113D01*
X102925265Y-80578787D01*
X103187592Y-80971387D01*
X103582473Y-81366268D01*
X104046804Y-81676524D01*
X104562741Y-81890232D01*
X105110457Y-81999180D01*
X105668903Y-81999180D01*
X106216619Y-81890232D01*
X106732556Y-81676524D01*
X107196887Y-81366268D01*
X107591768Y-80971387D01*
X107902024Y-80507056D01*
X108115732Y-79991119D01*
X108224680Y-79443403D01*
X108224680Y-78884957D01*
X108115732Y-78337241D01*
X107902024Y-77821304D01*
X107591768Y-77356973D01*
X107196887Y-76962092D01*
X106793519Y-76692570D01*
X138262444Y-76697239D01*
G37*
%TD.AperFunction*%
D23*
X108125689Y-101393500D02*
X108060689Y-101458500D01*
X107362650Y-101458500D01*
X107345650Y-101441500D01*
X107136969Y-101441500D01*
X107113580Y-101428998D01*
X106996559Y-101393500D01*
X107113580Y-101358002D01*
X107136969Y-101345500D01*
X107345650Y-101345500D01*
X107362650Y-101328500D01*
X108060689Y-101328500D01*
X108125689Y-101393500D01*
%TA.AperFunction,Conductor*%
D24*
G36*
X108125689Y-101393500D02*
G01*
X108060689Y-101458500D01*
X107362650Y-101458500D01*
X107345650Y-101441500D01*
X107136969Y-101441500D01*
X107113580Y-101428998D01*
X106996559Y-101393500D01*
X107113580Y-101358002D01*
X107136969Y-101345500D01*
X107345650Y-101345500D01*
X107362650Y-101328500D01*
X108060689Y-101328500D01*
X108125689Y-101393500D01*
G37*
%TD.AperFunction*%
D23*
X121167628Y-97317801D02*
X121179888Y-97442283D01*
X121186779Y-97465000D01*
X121179888Y-97487718D01*
X121167628Y-97612200D01*
X121167628Y-97967800D01*
X121179888Y-98092282D01*
X121186779Y-98115000D01*
X121179888Y-98137717D01*
X121167628Y-98262199D01*
X121167628Y-98617799D01*
X121179888Y-98742281D01*
X121186780Y-98765000D01*
X121179888Y-98787718D01*
X121167628Y-98912200D01*
X121167628Y-99267800D01*
X121179888Y-99392282D01*
X121186423Y-99413826D01*
X121181950Y-99427769D01*
X121170700Y-99530449D01*
X121253248Y-99612997D01*
X121170700Y-99612997D01*
X121170700Y-99738040D01*
X115872297Y-99738040D01*
X115799947Y-99665690D01*
X115775364Y-99635736D01*
X115655833Y-99537638D01*
X115519460Y-99464746D01*
X115371487Y-99419859D01*
X115256161Y-99408500D01*
X115256153Y-99408500D01*
X115217600Y-99404703D01*
X115179047Y-99408500D01*
X113327472Y-99408500D01*
X113327472Y-99218500D01*
X113315212Y-99094018D01*
X113284464Y-98992654D01*
X113313535Y-98901130D01*
X113324400Y-98800250D01*
X113165650Y-98641500D01*
X112956969Y-98641500D01*
X112933580Y-98628998D01*
X112816559Y-98593500D01*
X112933580Y-98558002D01*
X112956969Y-98545500D01*
X113165650Y-98545500D01*
X113182650Y-98528500D01*
X115308795Y-98528500D01*
X115344900Y-98532056D01*
X115381005Y-98528500D01*
X115488985Y-98517865D01*
X115627533Y-98475837D01*
X115755220Y-98407587D01*
X115867138Y-98315738D01*
X115890158Y-98287688D01*
X116952847Y-97225000D01*
X121167628Y-97225000D01*
X121167628Y-97317801D01*
%TA.AperFunction,Conductor*%
D24*
G36*
X121167628Y-97317801D02*
G01*
X121179888Y-97442283D01*
X121186779Y-97465000D01*
X121179888Y-97487718D01*
X121167628Y-97612200D01*
X121167628Y-97967800D01*
X121179888Y-98092282D01*
X121186779Y-98115000D01*
X121179888Y-98137717D01*
X121167628Y-98262199D01*
X121167628Y-98617799D01*
X121179888Y-98742281D01*
X121186780Y-98765000D01*
X121179888Y-98787718D01*
X121167628Y-98912200D01*
X121167628Y-99267800D01*
X121179888Y-99392282D01*
X121186423Y-99413826D01*
X121181950Y-99427769D01*
X121170700Y-99530449D01*
X121253248Y-99612997D01*
X121170700Y-99612997D01*
X121170700Y-99738040D01*
X115872297Y-99738040D01*
X115799947Y-99665690D01*
X115775364Y-99635736D01*
X115655833Y-99537638D01*
X115519460Y-99464746D01*
X115371487Y-99419859D01*
X115256161Y-99408500D01*
X115256153Y-99408500D01*
X115217600Y-99404703D01*
X115179047Y-99408500D01*
X113327472Y-99408500D01*
X113327472Y-99218500D01*
X113315212Y-99094018D01*
X113284464Y-98992654D01*
X113313535Y-98901130D01*
X113324400Y-98800250D01*
X113165650Y-98641500D01*
X112956969Y-98641500D01*
X112933580Y-98628998D01*
X112816559Y-98593500D01*
X112933580Y-98558002D01*
X112956969Y-98545500D01*
X113165650Y-98545500D01*
X113182650Y-98528500D01*
X115308795Y-98528500D01*
X115344900Y-98532056D01*
X115381005Y-98528500D01*
X115488985Y-98517865D01*
X115627533Y-98475837D01*
X115755220Y-98407587D01*
X115867138Y-98315738D01*
X115890158Y-98287688D01*
X116952847Y-97225000D01*
X121167628Y-97225000D01*
X121167628Y-97317801D01*
G37*
%TD.AperFunction*%
D23*
X126380100Y-96608440D02*
X126380100Y-96608447D01*
X126376303Y-96647000D01*
X126380100Y-96685553D01*
X126380101Y-99738040D01*
X123799600Y-99738040D01*
X123799600Y-99726420D01*
X124289275Y-99726420D01*
X124325380Y-99729976D01*
X124361485Y-99726420D01*
X124469465Y-99715785D01*
X124608013Y-99673757D01*
X124735700Y-99605507D01*
X124847618Y-99513658D01*
X124870639Y-99485607D01*
X125246287Y-99109959D01*
X125274338Y-99086938D01*
X125366187Y-98975020D01*
X125434437Y-98847333D01*
X125476465Y-98708785D01*
X125487100Y-98600805D01*
X125487100Y-98600796D01*
X125490655Y-98564701D01*
X125487100Y-98528606D01*
X125487100Y-98122471D01*
X125556037Y-98053534D01*
X125669305Y-97884016D01*
X125747326Y-97695658D01*
X125787100Y-97495699D01*
X125787100Y-97291821D01*
X125747326Y-97091862D01*
X125669305Y-96903504D01*
X125556037Y-96733986D01*
X125422050Y-96599999D01*
X126380931Y-96599999D01*
X126380100Y-96608440D01*
%TA.AperFunction,Conductor*%
D24*
G36*
X126380100Y-96608440D02*
G01*
X126380100Y-96608447D01*
X126376303Y-96647000D01*
X126380100Y-96685553D01*
X126380101Y-99738040D01*
X123799600Y-99738040D01*
X123799600Y-99726420D01*
X124289275Y-99726420D01*
X124325380Y-99729976D01*
X124361485Y-99726420D01*
X124469465Y-99715785D01*
X124608013Y-99673757D01*
X124735700Y-99605507D01*
X124847618Y-99513658D01*
X124870639Y-99485607D01*
X125246287Y-99109959D01*
X125274338Y-99086938D01*
X125366187Y-98975020D01*
X125434437Y-98847333D01*
X125476465Y-98708785D01*
X125487100Y-98600805D01*
X125487100Y-98600796D01*
X125490655Y-98564701D01*
X125487100Y-98528606D01*
X125487100Y-98122471D01*
X125556037Y-98053534D01*
X125669305Y-97884016D01*
X125747326Y-97695658D01*
X125787100Y-97495699D01*
X125787100Y-97291821D01*
X125747326Y-97091862D01*
X125669305Y-96903504D01*
X125556037Y-96733986D01*
X125422050Y-96599999D01*
X126380931Y-96599999D01*
X126380100Y-96608440D01*
G37*
%TD.AperFunction*%
D23*
X130000621Y-95730000D02*
X129555772Y-95730000D01*
X129555772Y-95662201D01*
X129543512Y-95537719D01*
X129507202Y-95418021D01*
X129448237Y-95307707D01*
X129368885Y-95211016D01*
X129272194Y-95131664D01*
X129161880Y-95072699D01*
X129107744Y-95056277D01*
X129210112Y-94931542D01*
X129291023Y-94780167D01*
X129340848Y-94615916D01*
X129357672Y-94445100D01*
X129357672Y-93845100D01*
X129340848Y-93674284D01*
X129291023Y-93510033D01*
X129210826Y-93359994D01*
X129250137Y-93312094D01*
X129309102Y-93201780D01*
X129345412Y-93082082D01*
X129357672Y-92957600D01*
X129354600Y-92705850D01*
X129195850Y-92547100D01*
X128371600Y-92547100D01*
X128371600Y-92567100D01*
X128117600Y-92567100D01*
X128117600Y-92547100D01*
X128097600Y-92547100D01*
X128097600Y-92293100D01*
X128117600Y-92293100D01*
X128117600Y-91406350D01*
X128371600Y-91406350D01*
X128371600Y-92293100D01*
X129195850Y-92293100D01*
X129354600Y-92134350D01*
X129357672Y-91882600D01*
X129345412Y-91758118D01*
X129309102Y-91638420D01*
X129250137Y-91528106D01*
X129170785Y-91431415D01*
X129074094Y-91352063D01*
X128963780Y-91293098D01*
X128844082Y-91256788D01*
X128719600Y-91244528D01*
X128530350Y-91247600D01*
X128371600Y-91406350D01*
X128117600Y-91406350D01*
X127958850Y-91247600D01*
X127769600Y-91244528D01*
X127645118Y-91256788D01*
X127525420Y-91293098D01*
X127415106Y-91352063D01*
X127396869Y-91367030D01*
X127376303Y-91299233D01*
X127295392Y-91147858D01*
X127186503Y-91015177D01*
X127053822Y-90906288D01*
X127027380Y-90892155D01*
X127027380Y-90847300D01*
X130000620Y-90847300D01*
X130000621Y-95730000D01*
%TA.AperFunction,Conductor*%
D24*
G36*
X130000621Y-95730000D02*
G01*
X129555772Y-95730000D01*
X129555772Y-95662201D01*
X129543512Y-95537719D01*
X129507202Y-95418021D01*
X129448237Y-95307707D01*
X129368885Y-95211016D01*
X129272194Y-95131664D01*
X129161880Y-95072699D01*
X129107744Y-95056277D01*
X129210112Y-94931542D01*
X129291023Y-94780167D01*
X129340848Y-94615916D01*
X129357672Y-94445100D01*
X129357672Y-93845100D01*
X129340848Y-93674284D01*
X129291023Y-93510033D01*
X129210826Y-93359994D01*
X129250137Y-93312094D01*
X129309102Y-93201780D01*
X129345412Y-93082082D01*
X129357672Y-92957600D01*
X129354600Y-92705850D01*
X129195850Y-92547100D01*
X128371600Y-92547100D01*
X128371600Y-92567100D01*
X128117600Y-92567100D01*
X128117600Y-92547100D01*
X128097600Y-92547100D01*
X128097600Y-92293100D01*
X128117600Y-92293100D01*
X128117600Y-91406350D01*
X128371600Y-91406350D01*
X128371600Y-92293100D01*
X129195850Y-92293100D01*
X129354600Y-92134350D01*
X129357672Y-91882600D01*
X129345412Y-91758118D01*
X129309102Y-91638420D01*
X129250137Y-91528106D01*
X129170785Y-91431415D01*
X129074094Y-91352063D01*
X128963780Y-91293098D01*
X128844082Y-91256788D01*
X128719600Y-91244528D01*
X128530350Y-91247600D01*
X128371600Y-91406350D01*
X128117600Y-91406350D01*
X127958850Y-91247600D01*
X127769600Y-91244528D01*
X127645118Y-91256788D01*
X127525420Y-91293098D01*
X127415106Y-91352063D01*
X127396869Y-91367030D01*
X127376303Y-91299233D01*
X127295392Y-91147858D01*
X127186503Y-91015177D01*
X127053822Y-90906288D01*
X127027380Y-90892155D01*
X127027380Y-90847300D01*
X130000620Y-90847300D01*
X130000621Y-95730000D01*
G37*
%TD.AperFunction*%
D23*
X127131528Y-92957600D02*
X127143788Y-93082082D01*
X127180098Y-93201780D01*
X127239063Y-93312094D01*
X127278374Y-93359994D01*
X127198177Y-93510033D01*
X127148352Y-93674284D01*
X127131528Y-93845100D01*
X127131528Y-94445100D01*
X127148352Y-94615916D01*
X127198177Y-94780167D01*
X127279088Y-94931542D01*
X127378924Y-95053192D01*
X127314620Y-95072699D01*
X127300963Y-95079999D01*
X126421098Y-95079999D01*
X126505480Y-95054402D01*
X126615794Y-94995437D01*
X126712485Y-94916085D01*
X126791837Y-94819394D01*
X126850802Y-94709080D01*
X126887112Y-94589382D01*
X126899372Y-94464900D01*
X126899372Y-94164900D01*
X126887112Y-94040418D01*
X126850802Y-93920720D01*
X126794239Y-93814900D01*
X126850802Y-93709080D01*
X126887112Y-93589382D01*
X126899372Y-93464900D01*
X126899372Y-93168258D01*
X126923242Y-93139173D01*
X126996134Y-93002800D01*
X127041021Y-92854827D01*
X127042131Y-92843561D01*
X127053822Y-92837312D01*
X127133797Y-92771678D01*
X127131528Y-92957600D01*
%TA.AperFunction,Conductor*%
D24*
G36*
X127131528Y-92957600D02*
G01*
X127143788Y-93082082D01*
X127180098Y-93201780D01*
X127239063Y-93312094D01*
X127278374Y-93359994D01*
X127198177Y-93510033D01*
X127148352Y-93674284D01*
X127131528Y-93845100D01*
X127131528Y-94445100D01*
X127148352Y-94615916D01*
X127198177Y-94780167D01*
X127279088Y-94931542D01*
X127378924Y-95053192D01*
X127314620Y-95072699D01*
X127300963Y-95079999D01*
X126421098Y-95079999D01*
X126505480Y-95054402D01*
X126615794Y-94995437D01*
X126712485Y-94916085D01*
X126791837Y-94819394D01*
X126850802Y-94709080D01*
X126887112Y-94589382D01*
X126899372Y-94464900D01*
X126899372Y-94164900D01*
X126887112Y-94040418D01*
X126850802Y-93920720D01*
X126794239Y-93814900D01*
X126850802Y-93709080D01*
X126887112Y-93589382D01*
X126899372Y-93464900D01*
X126899372Y-93168258D01*
X126923242Y-93139173D01*
X126996134Y-93002800D01*
X127041021Y-92854827D01*
X127042131Y-92843561D01*
X127053822Y-92837312D01*
X127133797Y-92771678D01*
X127131528Y-92957600D01*
G37*
%TD.AperFunction*%
D23*
X121784440Y-87777865D02*
X121784441Y-90884329D01*
X121729589Y-90900968D01*
X121576053Y-90983035D01*
X121441478Y-91093478D01*
X121331035Y-91228053D01*
X121248968Y-91381589D01*
X121198432Y-91548185D01*
X121181368Y-91721439D01*
X121181368Y-92421441D01*
X121198432Y-92594695D01*
X121248968Y-92761291D01*
X121331035Y-92914827D01*
X121441478Y-93049402D01*
X121468331Y-93071440D01*
X121441478Y-93093478D01*
X121331035Y-93228053D01*
X121273101Y-93336440D01*
X121128065Y-93336440D01*
X121091960Y-93332884D01*
X121055855Y-93336440D01*
X120947875Y-93347075D01*
X120809327Y-93389103D01*
X120681640Y-93457353D01*
X120569722Y-93549202D01*
X120546701Y-93577253D01*
X120409808Y-93714146D01*
X120381762Y-93737163D01*
X120289913Y-93849081D01*
X120221663Y-93976768D01*
X120197758Y-94055574D01*
X120179635Y-94115315D01*
X120173906Y-94173483D01*
X120100063Y-94247326D01*
X119986795Y-94416844D01*
X119908774Y-94605202D01*
X119869000Y-94805161D01*
X119869000Y-95009039D01*
X119883115Y-95079999D01*
X116335101Y-95079999D01*
X116121103Y-94866002D01*
X116097301Y-94836999D01*
X115981576Y-94742026D01*
X115849547Y-94671454D01*
X115706286Y-94627997D01*
X115594633Y-94617000D01*
X115594622Y-94617000D01*
X115557300Y-94613324D01*
X115519978Y-94617000D01*
X114247200Y-94617000D01*
X114247200Y-94182425D01*
X114250876Y-94145100D01*
X114247200Y-94107775D01*
X114247200Y-94107767D01*
X114236203Y-93996114D01*
X114192746Y-93852853D01*
X114122174Y-93720824D01*
X114027201Y-93605099D01*
X113998198Y-93581297D01*
X113725614Y-93308713D01*
X113680301Y-93253499D01*
X113564576Y-93158526D01*
X113432547Y-93087954D01*
X113327472Y-93056080D01*
X113327472Y-92818500D01*
X113315212Y-92694018D01*
X113284464Y-92592654D01*
X113313535Y-92501130D01*
X113324400Y-92400250D01*
X113165650Y-92241500D01*
X112956969Y-92241500D01*
X112933580Y-92228998D01*
X112816559Y-92193500D01*
X112933580Y-92158002D01*
X112956969Y-92145500D01*
X113165650Y-92145500D01*
X113324400Y-91986750D01*
X113313535Y-91885870D01*
X113284464Y-91794346D01*
X113313623Y-91698219D01*
X113343115Y-91707165D01*
X113451095Y-91717800D01*
X113451104Y-91717800D01*
X113487199Y-91721355D01*
X113523294Y-91717800D01*
X116460995Y-91717800D01*
X116497100Y-91721356D01*
X116533205Y-91717800D01*
X116641185Y-91707165D01*
X116779733Y-91665137D01*
X116907420Y-91596887D01*
X117019338Y-91505038D01*
X117042359Y-91476987D01*
X117169092Y-91350254D01*
X117197137Y-91327238D01*
X117288987Y-91215320D01*
X117357237Y-91087633D01*
X117399265Y-90949085D01*
X117409900Y-90841105D01*
X117409900Y-90841098D01*
X117413455Y-90805001D01*
X117409900Y-90768904D01*
X117409900Y-88226546D01*
X117862037Y-87774410D01*
X121784100Y-87774410D01*
X121784440Y-87777865D01*
%TA.AperFunction,Conductor*%
D24*
G36*
X121784440Y-87777865D02*
G01*
X121784441Y-90884329D01*
X121729589Y-90900968D01*
X121576053Y-90983035D01*
X121441478Y-91093478D01*
X121331035Y-91228053D01*
X121248968Y-91381589D01*
X121198432Y-91548185D01*
X121181368Y-91721439D01*
X121181368Y-92421441D01*
X121198432Y-92594695D01*
X121248968Y-92761291D01*
X121331035Y-92914827D01*
X121441478Y-93049402D01*
X121468331Y-93071440D01*
X121441478Y-93093478D01*
X121331035Y-93228053D01*
X121273101Y-93336440D01*
X121128065Y-93336440D01*
X121091960Y-93332884D01*
X121055855Y-93336440D01*
X120947875Y-93347075D01*
X120809327Y-93389103D01*
X120681640Y-93457353D01*
X120569722Y-93549202D01*
X120546701Y-93577253D01*
X120409808Y-93714146D01*
X120381762Y-93737163D01*
X120289913Y-93849081D01*
X120221663Y-93976768D01*
X120197758Y-94055574D01*
X120179635Y-94115315D01*
X120173906Y-94173483D01*
X120100063Y-94247326D01*
X119986795Y-94416844D01*
X119908774Y-94605202D01*
X119869000Y-94805161D01*
X119869000Y-95009039D01*
X119883115Y-95079999D01*
X116335101Y-95079999D01*
X116121103Y-94866002D01*
X116097301Y-94836999D01*
X115981576Y-94742026D01*
X115849547Y-94671454D01*
X115706286Y-94627997D01*
X115594633Y-94617000D01*
X115594622Y-94617000D01*
X115557300Y-94613324D01*
X115519978Y-94617000D01*
X114247200Y-94617000D01*
X114247200Y-94182425D01*
X114250876Y-94145100D01*
X114247200Y-94107775D01*
X114247200Y-94107767D01*
X114236203Y-93996114D01*
X114192746Y-93852853D01*
X114122174Y-93720824D01*
X114027201Y-93605099D01*
X113998198Y-93581297D01*
X113725614Y-93308713D01*
X113680301Y-93253499D01*
X113564576Y-93158526D01*
X113432547Y-93087954D01*
X113327472Y-93056080D01*
X113327472Y-92818500D01*
X113315212Y-92694018D01*
X113284464Y-92592654D01*
X113313535Y-92501130D01*
X113324400Y-92400250D01*
X113165650Y-92241500D01*
X112956969Y-92241500D01*
X112933580Y-92228998D01*
X112816559Y-92193500D01*
X112933580Y-92158002D01*
X112956969Y-92145500D01*
X113165650Y-92145500D01*
X113324400Y-91986750D01*
X113313535Y-91885870D01*
X113284464Y-91794346D01*
X113313623Y-91698219D01*
X113343115Y-91707165D01*
X113451095Y-91717800D01*
X113451104Y-91717800D01*
X113487199Y-91721355D01*
X113523294Y-91717800D01*
X116460995Y-91717800D01*
X116497100Y-91721356D01*
X116533205Y-91717800D01*
X116641185Y-91707165D01*
X116779733Y-91665137D01*
X116907420Y-91596887D01*
X117019338Y-91505038D01*
X117042359Y-91476987D01*
X117169092Y-91350254D01*
X117197137Y-91327238D01*
X117288987Y-91215320D01*
X117357237Y-91087633D01*
X117399265Y-90949085D01*
X117409900Y-90841105D01*
X117409900Y-90841098D01*
X117413455Y-90805001D01*
X117409900Y-90768904D01*
X117409900Y-88226546D01*
X117862037Y-87774410D01*
X121784100Y-87774410D01*
X121784440Y-87777865D01*
G37*
%TD.AperFunction*%
D23*
X108125689Y-94993500D02*
X108085689Y-95033500D01*
X107122003Y-95033500D01*
X107113580Y-95028998D01*
X106996559Y-94993500D01*
X107113580Y-94958002D01*
X107136969Y-94945500D01*
X107345650Y-94945500D01*
X107362650Y-94928500D01*
X108060689Y-94928500D01*
X108125689Y-94993500D01*
%TA.AperFunction,Conductor*%
D24*
G36*
X108125689Y-94993500D02*
G01*
X108085689Y-95033500D01*
X107122003Y-95033500D01*
X107113580Y-95028998D01*
X106996559Y-94993500D01*
X107113580Y-94958002D01*
X107136969Y-94945500D01*
X107345650Y-94945500D01*
X107362650Y-94928500D01*
X108060689Y-94928500D01*
X108125689Y-94993500D01*
G37*
%TD.AperFunction*%
D23*
X128891361Y-88222088D02*
X128822423Y-88291026D01*
X128709155Y-88460544D01*
X128631134Y-88648902D01*
X128591360Y-88848861D01*
X128591360Y-89052739D01*
X128631134Y-89252698D01*
X128662035Y-89327300D01*
X126396122Y-89327300D01*
X126358799Y-89323624D01*
X126321477Y-89327300D01*
X126321467Y-89327300D01*
X126209814Y-89338297D01*
X126066553Y-89381754D01*
X125934524Y-89452326D01*
X125818799Y-89547299D01*
X125795000Y-89576298D01*
X125756376Y-89614923D01*
X125727380Y-89638719D01*
X125703582Y-89667717D01*
X125703581Y-89667718D01*
X125632406Y-89754444D01*
X125561834Y-89886474D01*
X125540861Y-89955617D01*
X125518378Y-90029734D01*
X125511346Y-90101130D01*
X125503704Y-90178720D01*
X125507381Y-90216052D01*
X125507381Y-90892154D01*
X125482274Y-90905574D01*
X125434374Y-90866263D01*
X125324060Y-90807298D01*
X125204362Y-90770988D01*
X125079880Y-90758728D01*
X124828130Y-90761800D01*
X124669380Y-90920550D01*
X124669380Y-91744800D01*
X124689380Y-91744800D01*
X124689380Y-91998800D01*
X124669380Y-91998800D01*
X124669380Y-92018800D01*
X124415380Y-92018800D01*
X124415380Y-91998800D01*
X124395380Y-91998800D01*
X124395380Y-91744800D01*
X124415380Y-91744800D01*
X124415380Y-90920550D01*
X124256630Y-90761800D01*
X124004880Y-90758728D01*
X123880398Y-90770988D01*
X123760700Y-90807298D01*
X123650386Y-90866263D01*
X123553695Y-90945615D01*
X123498774Y-91012536D01*
X123462827Y-90983035D01*
X123309291Y-90900968D01*
X123254440Y-90884329D01*
X123254440Y-88174420D01*
X128891361Y-88174420D01*
X128891361Y-88222088D01*
%TA.AperFunction,Conductor*%
D24*
G36*
X128891361Y-88222088D02*
G01*
X128822423Y-88291026D01*
X128709155Y-88460544D01*
X128631134Y-88648902D01*
X128591360Y-88848861D01*
X128591360Y-89052739D01*
X128631134Y-89252698D01*
X128662035Y-89327300D01*
X126396122Y-89327300D01*
X126358799Y-89323624D01*
X126321477Y-89327300D01*
X126321467Y-89327300D01*
X126209814Y-89338297D01*
X126066553Y-89381754D01*
X125934524Y-89452326D01*
X125818799Y-89547299D01*
X125795000Y-89576298D01*
X125756376Y-89614923D01*
X125727380Y-89638719D01*
X125703582Y-89667717D01*
X125703581Y-89667718D01*
X125632406Y-89754444D01*
X125561834Y-89886474D01*
X125540861Y-89955617D01*
X125518378Y-90029734D01*
X125511346Y-90101130D01*
X125503704Y-90178720D01*
X125507381Y-90216052D01*
X125507381Y-90892154D01*
X125482274Y-90905574D01*
X125434374Y-90866263D01*
X125324060Y-90807298D01*
X125204362Y-90770988D01*
X125079880Y-90758728D01*
X124828130Y-90761800D01*
X124669380Y-90920550D01*
X124669380Y-91744800D01*
X124689380Y-91744800D01*
X124689380Y-91998800D01*
X124669380Y-91998800D01*
X124669380Y-92018800D01*
X124415380Y-92018800D01*
X124415380Y-91998800D01*
X124395380Y-91998800D01*
X124395380Y-91744800D01*
X124415380Y-91744800D01*
X124415380Y-90920550D01*
X124256630Y-90761800D01*
X124004880Y-90758728D01*
X123880398Y-90770988D01*
X123760700Y-90807298D01*
X123650386Y-90866263D01*
X123553695Y-90945615D01*
X123498774Y-91012536D01*
X123462827Y-90983035D01*
X123309291Y-90900968D01*
X123254440Y-90884329D01*
X123254440Y-88174420D01*
X128891361Y-88174420D01*
X128891361Y-88222088D01*
G37*
%TD.AperFunction*%
D23*
X115939900Y-90247800D02*
X113791646Y-90247800D01*
X113643159Y-90099313D01*
X113620138Y-90071262D01*
X113508220Y-89979413D01*
X113505389Y-89977900D01*
X114682995Y-89977900D01*
X114719100Y-89981456D01*
X114755205Y-89977900D01*
X114863185Y-89967265D01*
X115001733Y-89925237D01*
X115129420Y-89856987D01*
X115241338Y-89765138D01*
X115264359Y-89737088D01*
X115939901Y-89061546D01*
X115939900Y-90247800D01*
%TA.AperFunction,Conductor*%
D24*
G36*
X115939900Y-90247800D02*
G01*
X113791646Y-90247800D01*
X113643159Y-90099313D01*
X113620138Y-90071262D01*
X113508220Y-89979413D01*
X113505389Y-89977900D01*
X114682995Y-89977900D01*
X114719100Y-89981456D01*
X114755205Y-89977900D01*
X114863185Y-89967265D01*
X115001733Y-89925237D01*
X115129420Y-89856987D01*
X115241338Y-89765138D01*
X115264359Y-89737088D01*
X115939901Y-89061546D01*
X115939900Y-90247800D01*
G37*
%TD.AperFunction*%
%TD*%
M02*
