M48
; DRILL file {KiCad 5.1.10-88a1d61d58~88~ubuntu18.04.1} date Sat Aug  7 17:00:37 2021
; FORMAT={-:-/ absolute / inch / decimal}
; #@! TF.CreationDate,2021-08-07T17:00:37+07:00
; #@! TF.GenerationSoftware,Kicad,Pcbnew,5.1.10-88a1d61d58~88~ubuntu18.04.1
FMAT,2
INCH
T1C0.0157
T2C0.0315
T3C0.0866
T4C0.0610
%
G90
G05
T1
X4.0981Y-4.0864
X4.0983Y-3.992
X4.0988Y-3.8986
X4.0996Y-3.7406
X4.1Y-3.571
X4.1Y-3.646
X4.243Y-4.055
X4.2437Y-3.6139
X4.2437Y-3.8029
X4.2437Y-3.8659
X4.244Y-3.9289
X4.2449Y-3.677
X4.283Y-3.7084
X4.283Y-3.7714
X4.283Y-3.8344
X4.283Y-3.9604
X4.283Y-4.0234
X4.285Y-3.5824
X4.4588Y-4.1104
X4.554Y-3.535
X4.6305Y-3.9005
X4.632Y-3.506
X4.633Y-4.1655
X4.6335Y-3.645
X4.6345Y-3.2895
X4.76Y-3.7365
X4.8035Y-3.9985
X4.8035Y-4.1685
X4.8075Y-3.2885
X4.8786Y-3.8652
X4.8802Y-3.8029
X4.903Y-3.506
X4.9115Y-3.8344
X4.951Y-3.289
X4.9515Y-4.17
X4.954Y-3.9005
X5.0995Y-3.9975
X5.101Y-4.1695
X5.102Y-3.289
X5.1034Y-3.502
X5.1035Y-3.639
X5.1506Y-3.4622
X5.1932Y-3.427
X5.201Y-4.074
X5.2515Y-3.289
X5.259Y-4.169
X5.2757Y-3.8587
X5.2768Y-3.9177
X5.2775Y-4.0359
X5.2777Y-3.9769
X5.3125Y-3.504
X5.313Y-3.889
X5.314Y-3.83
X5.314Y-3.948
X5.314Y-4.007
X5.4534Y-3.6312
X5.4546Y-3.573
X5.4548Y-4.0744
X5.4556Y-3.8104
X5.4568Y-3.8692
X5.4574Y-3.9874
X5.4579Y-3.9285
X5.5192Y-4.086
T2
X4.1279Y-3.4604
X4.1279Y-4.1612
X4.2079Y-3.4604
X4.2079Y-4.1612
X4.3653Y-3.4604
X4.3653Y-4.1612
X4.4929Y-3.4604
X4.5323Y-4.1612
T3
X4.1492Y-3.1167
X4.1541Y-4.4582
X5.4942Y-4.4581
X5.4979Y-3.1174
T4
X4.2866Y-3.4958
X4.2866Y-4.1257
T0
M30
