%TF.GenerationSoftware,KiCad,Pcbnew,5.1.10-88a1d61d58~88~ubuntu18.04.1*%
%TF.CreationDate,2021-11-12T10:28:21+07:00*%
%TF.ProjectId,MX8Mx_EVK_MIPI_CSI-TEKNIQUE_OCLEA_OS08A20-ADAPTER,4d58384d-785f-4455-964b-5f4d4950495f,rev?*%
%TF.SameCoordinates,Original*%
%TF.FileFunction,Legend,Top*%
%TF.FilePolarity,Positive*%
%FSLAX46Y46*%
G04 Gerber Fmt 4.6, Leading zero omitted, Abs format (unit mm)*
G04 Created by KiCad (PCBNEW 5.1.10-88a1d61d58~88~ubuntu18.04.1) date 2021-11-12 10:28:21*
%MOMM*%
%LPD*%
G01*
G04 APERTURE LIST*
%ADD10C,0.150000*%
%ADD11C,0.120000*%
%ADD12C,0.100000*%
%ADD13C,0.200000*%
%ADD14C,0.127000*%
%ADD15C,0.254000*%
G04 APERTURE END LIST*
D10*
X116146012Y-111962180D02*
X116336488Y-111962180D01*
X116431726Y-112009800D01*
X116526964Y-112105038D01*
X116574583Y-112295514D01*
X116574583Y-112628847D01*
X116526964Y-112819323D01*
X116431726Y-112914561D01*
X116336488Y-112962180D01*
X116146012Y-112962180D01*
X116050774Y-112914561D01*
X115955536Y-112819323D01*
X115907917Y-112628847D01*
X115907917Y-112295514D01*
X115955536Y-112105038D01*
X116050774Y-112009800D01*
X116146012Y-111962180D01*
X117574583Y-112866942D02*
X117526964Y-112914561D01*
X117384107Y-112962180D01*
X117288869Y-112962180D01*
X117146012Y-112914561D01*
X117050774Y-112819323D01*
X117003155Y-112724085D01*
X116955536Y-112533609D01*
X116955536Y-112390752D01*
X117003155Y-112200276D01*
X117050774Y-112105038D01*
X117146012Y-112009800D01*
X117288869Y-111962180D01*
X117384107Y-111962180D01*
X117526964Y-112009800D01*
X117574583Y-112057419D01*
X118479345Y-112962180D02*
X118003155Y-112962180D01*
X118003155Y-111962180D01*
X118812679Y-112438371D02*
X119146012Y-112438371D01*
X119288869Y-112962180D02*
X118812679Y-112962180D01*
X118812679Y-111962180D01*
X119288869Y-111962180D01*
X119669821Y-112676466D02*
X120146012Y-112676466D01*
X119574583Y-112962180D02*
X119907917Y-111962180D01*
X120241250Y-112962180D01*
X121526964Y-111962180D02*
X121717440Y-111962180D01*
X121812679Y-112009800D01*
X121907917Y-112105038D01*
X121955536Y-112295514D01*
X121955536Y-112628847D01*
X121907917Y-112819323D01*
X121812679Y-112914561D01*
X121717440Y-112962180D01*
X121526964Y-112962180D01*
X121431726Y-112914561D01*
X121336488Y-112819323D01*
X121288869Y-112628847D01*
X121288869Y-112295514D01*
X121336488Y-112105038D01*
X121431726Y-112009800D01*
X121526964Y-111962180D01*
X122336488Y-112914561D02*
X122479345Y-112962180D01*
X122717440Y-112962180D01*
X122812679Y-112914561D01*
X122860298Y-112866942D01*
X122907917Y-112771704D01*
X122907917Y-112676466D01*
X122860298Y-112581228D01*
X122812679Y-112533609D01*
X122717440Y-112485990D01*
X122526964Y-112438371D01*
X122431726Y-112390752D01*
X122384107Y-112343133D01*
X122336488Y-112247895D01*
X122336488Y-112152657D01*
X122384107Y-112057419D01*
X122431726Y-112009800D01*
X122526964Y-111962180D01*
X122765060Y-111962180D01*
X122907917Y-112009800D01*
X123526964Y-111962180D02*
X123622202Y-111962180D01*
X123717440Y-112009800D01*
X123765060Y-112057419D01*
X123812679Y-112152657D01*
X123860298Y-112343133D01*
X123860298Y-112581228D01*
X123812679Y-112771704D01*
X123765060Y-112866942D01*
X123717440Y-112914561D01*
X123622202Y-112962180D01*
X123526964Y-112962180D01*
X123431726Y-112914561D01*
X123384107Y-112866942D01*
X123336488Y-112771704D01*
X123288869Y-112581228D01*
X123288869Y-112343133D01*
X123336488Y-112152657D01*
X123384107Y-112057419D01*
X123431726Y-112009800D01*
X123526964Y-111962180D01*
X124431726Y-112390752D02*
X124336488Y-112343133D01*
X124288869Y-112295514D01*
X124241250Y-112200276D01*
X124241250Y-112152657D01*
X124288869Y-112057419D01*
X124336488Y-112009800D01*
X124431726Y-111962180D01*
X124622202Y-111962180D01*
X124717440Y-112009800D01*
X124765060Y-112057419D01*
X124812679Y-112152657D01*
X124812679Y-112200276D01*
X124765060Y-112295514D01*
X124717440Y-112343133D01*
X124622202Y-112390752D01*
X124431726Y-112390752D01*
X124336488Y-112438371D01*
X124288869Y-112485990D01*
X124241250Y-112581228D01*
X124241250Y-112771704D01*
X124288869Y-112866942D01*
X124336488Y-112914561D01*
X124431726Y-112962180D01*
X124622202Y-112962180D01*
X124717440Y-112914561D01*
X124765060Y-112866942D01*
X124812679Y-112771704D01*
X124812679Y-112581228D01*
X124765060Y-112485990D01*
X124717440Y-112438371D01*
X124622202Y-112390752D01*
X125669821Y-112962180D02*
X125669821Y-112438371D01*
X125622202Y-112343133D01*
X125526964Y-112295514D01*
X125336488Y-112295514D01*
X125241250Y-112343133D01*
X125669821Y-112914561D02*
X125574583Y-112962180D01*
X125336488Y-112962180D01*
X125241250Y-112914561D01*
X125193631Y-112819323D01*
X125193631Y-112724085D01*
X125241250Y-112628847D01*
X125336488Y-112581228D01*
X125574583Y-112581228D01*
X125669821Y-112533609D01*
X126098393Y-112057419D02*
X126146012Y-112009800D01*
X126241250Y-111962180D01*
X126479345Y-111962180D01*
X126574583Y-112009800D01*
X126622202Y-112057419D01*
X126669821Y-112152657D01*
X126669821Y-112247895D01*
X126622202Y-112390752D01*
X126050774Y-112962180D01*
X126669821Y-112962180D01*
X127288869Y-111962180D02*
X127384107Y-111962180D01*
X127479345Y-112009800D01*
X127526964Y-112057419D01*
X127574583Y-112152657D01*
X127622202Y-112343133D01*
X127622202Y-112581228D01*
X127574583Y-112771704D01*
X127526964Y-112866942D01*
X127479345Y-112914561D01*
X127384107Y-112962180D01*
X127288869Y-112962180D01*
X127193631Y-112914561D01*
X127146012Y-112866942D01*
X127098393Y-112771704D01*
X127050774Y-112581228D01*
X127050774Y-112343133D01*
X127098393Y-112152657D01*
X127146012Y-112057419D01*
X127193631Y-112009800D01*
X127288869Y-111962180D01*
X119622202Y-114612180D02*
X119288869Y-114135990D01*
X119050774Y-114612180D02*
X119050774Y-113612180D01*
X119431726Y-113612180D01*
X119526964Y-113659800D01*
X119574583Y-113707419D01*
X119622202Y-113802657D01*
X119622202Y-113945514D01*
X119574583Y-114040752D01*
X119526964Y-114088371D01*
X119431726Y-114135990D01*
X119050774Y-114135990D01*
X120431726Y-114564561D02*
X120336488Y-114612180D01*
X120146012Y-114612180D01*
X120050774Y-114564561D01*
X120003155Y-114469323D01*
X120003155Y-114088371D01*
X120050774Y-113993133D01*
X120146012Y-113945514D01*
X120336488Y-113945514D01*
X120431726Y-113993133D01*
X120479345Y-114088371D01*
X120479345Y-114183609D01*
X120003155Y-114278847D01*
X120812679Y-113945514D02*
X121050774Y-114612180D01*
X121288869Y-113945514D01*
X121669821Y-114516942D02*
X121717440Y-114564561D01*
X121669821Y-114612180D01*
X121622202Y-114564561D01*
X121669821Y-114516942D01*
X121669821Y-114612180D01*
X122765060Y-113612180D02*
X123098393Y-114612180D01*
X123431726Y-113612180D01*
X124288869Y-114612180D02*
X123717440Y-114612180D01*
X124003155Y-114612180D02*
X124003155Y-113612180D01*
X123907917Y-113755038D01*
X123812679Y-113850276D01*
X123717440Y-113897895D01*
X125050774Y-114088371D02*
X125193631Y-114135990D01*
X125241250Y-114183609D01*
X125288869Y-114278847D01*
X125288869Y-114421704D01*
X125241250Y-114516942D01*
X125193631Y-114564561D01*
X125098393Y-114612180D01*
X124717440Y-114612180D01*
X124717440Y-113612180D01*
X125050774Y-113612180D01*
X125146012Y-113659800D01*
X125193631Y-113707419D01*
X125241250Y-113802657D01*
X125241250Y-113897895D01*
X125193631Y-113993133D01*
X125146012Y-114040752D01*
X125050774Y-114088371D01*
X124717440Y-114088371D01*
D11*
%TO.C,TP1*%
X115546100Y-96507300D02*
G75*
G03*
X115546100Y-96507300I-700000J0D01*
G01*
%TO.C,U3*%
X122659140Y-105417620D02*
X126900940Y-105417620D01*
X126900940Y-100159820D02*
X122659140Y-100159820D01*
%TO.C,U1*%
X126345950Y-95175979D02*
X123094750Y-95175979D01*
X123094750Y-98427179D02*
X126345950Y-98427179D01*
%TO.C,R2*%
X130892284Y-100146180D02*
X130438156Y-100146180D01*
X130892284Y-101616180D02*
X130438156Y-101616180D01*
%TO.C,C3*%
X130496093Y-103486680D02*
X130788627Y-103486680D01*
X130496093Y-102466680D02*
X130788627Y-102466680D01*
D12*
%TO.C,J2*%
X141753040Y-85810080D02*
X140353040Y-85810080D01*
X141753040Y-107240080D02*
X141753040Y-85810080D01*
X140353040Y-107240080D02*
X141753040Y-107240080D01*
D11*
%TO.C,TP5*%
X135071080Y-91638120D02*
G75*
G03*
X135071080Y-91638120I-700000J0D01*
G01*
%TO.C,TP4*%
X133465800Y-92964000D02*
G75*
G03*
X133465800Y-92964000I-700000J0D01*
G01*
%TO.C,TP3*%
X135091400Y-94188280D02*
G75*
G03*
X135091400Y-94188280I-700000J0D01*
G01*
%TO.C,TP2*%
X133465800Y-95453200D02*
G75*
G03*
X133465800Y-95453200I-700000J0D01*
G01*
%TO.C,C2*%
X127734600Y-93428867D02*
X127734600Y-93136333D01*
X128754600Y-93428867D02*
X128754600Y-93136333D01*
%TO.C,C1*%
X125551147Y-92381800D02*
X125258613Y-92381800D01*
X125551147Y-91361800D02*
X125258613Y-91361800D01*
%TO.C,U2*%
X124436300Y-92914900D02*
X125986300Y-92914900D01*
X125986300Y-94714900D02*
X124686300Y-94714900D01*
%TO.C,R1*%
X121784440Y-92844376D02*
X121784440Y-93298504D01*
X123254440Y-92844376D02*
X123254440Y-93298504D01*
D13*
%TO.C,J1*%
X113579400Y-89793500D02*
G75*
G03*
X113579400Y-89793500I-100000J0D01*
G01*
X104379400Y-90193500D02*
G75*
G03*
X104379400Y-90193500I-100000J0D01*
G01*
D14*
X103579400Y-106693500D02*
X103579400Y-86893500D01*
X116379400Y-106693500D02*
X103579400Y-106693500D01*
X116379400Y-86893500D02*
X116379400Y-106693500D01*
X103579400Y-86893500D02*
X116379400Y-86893500D01*
%TO.C,TP1*%
D10*
X113584195Y-94511680D02*
X114155623Y-94511680D01*
X113869909Y-95511680D02*
X113869909Y-94511680D01*
X114488957Y-95511680D02*
X114488957Y-94511680D01*
X114869909Y-94511680D01*
X114965147Y-94559300D01*
X115012766Y-94606919D01*
X115060385Y-94702157D01*
X115060385Y-94845014D01*
X115012766Y-94940252D01*
X114965147Y-94987871D01*
X114869909Y-95035490D01*
X114488957Y-95035490D01*
X116012766Y-95511680D02*
X115441338Y-95511680D01*
X115727052Y-95511680D02*
X115727052Y-94511680D01*
X115631814Y-94654538D01*
X115536576Y-94749776D01*
X115441338Y-94797395D01*
%TO.C,U3*%
X119589300Y-105105104D02*
X120398824Y-105105104D01*
X120494062Y-105057485D01*
X120541681Y-105009866D01*
X120589300Y-104914628D01*
X120589300Y-104724152D01*
X120541681Y-104628914D01*
X120494062Y-104581295D01*
X120398824Y-104533676D01*
X119589300Y-104533676D01*
X119589300Y-104152723D02*
X119589300Y-103533676D01*
X119970253Y-103867009D01*
X119970253Y-103724152D01*
X120017872Y-103628914D01*
X120065491Y-103581295D01*
X120160729Y-103533676D01*
X120398824Y-103533676D01*
X120494062Y-103581295D01*
X120541681Y-103628914D01*
X120589300Y-103724152D01*
X120589300Y-104009866D01*
X120541681Y-104105104D01*
X120494062Y-104152723D01*
X120586500Y-100663760D02*
X120586500Y-100901856D01*
X120348404Y-100806618D02*
X120586500Y-100901856D01*
X120824595Y-100806618D01*
X120443642Y-101092332D02*
X120586500Y-100901856D01*
X120729357Y-101092332D01*
X120571260Y-100666300D02*
X120571260Y-100904396D01*
X120333164Y-100809158D02*
X120571260Y-100904396D01*
X120809355Y-100809158D01*
X120428402Y-101094872D02*
X120571260Y-100904396D01*
X120714117Y-101094872D01*
%TO.C,U1*%
X120145560Y-98272504D02*
X120955084Y-98272504D01*
X121050322Y-98224885D01*
X121097941Y-98177266D01*
X121145560Y-98082028D01*
X121145560Y-97891552D01*
X121097941Y-97796314D01*
X121050322Y-97748695D01*
X120955084Y-97701076D01*
X120145560Y-97701076D01*
X121145560Y-96701076D02*
X121145560Y-97272504D01*
X121145560Y-96986790D02*
X120145560Y-96986790D01*
X120288418Y-97082028D01*
X120383656Y-97177266D01*
X120431275Y-97272504D01*
X121218960Y-95563440D02*
X121218960Y-95801536D01*
X120980864Y-95706298D02*
X121218960Y-95801536D01*
X121457055Y-95706298D01*
X121076102Y-95992012D02*
X121218960Y-95801536D01*
X121361817Y-95992012D01*
X121234200Y-95563440D02*
X121234200Y-95801536D01*
X120996104Y-95706298D02*
X121234200Y-95801536D01*
X121472295Y-95706298D01*
X121091342Y-95992012D02*
X121234200Y-95801536D01*
X121377057Y-95992012D01*
%TO.C,R2*%
X131790700Y-99114906D02*
X131314510Y-99448240D01*
X131790700Y-99686335D02*
X130790700Y-99686335D01*
X130790700Y-99305382D01*
X130838320Y-99210144D01*
X130885939Y-99162525D01*
X130981177Y-99114906D01*
X131124034Y-99114906D01*
X131219272Y-99162525D01*
X131266891Y-99210144D01*
X131314510Y-99305382D01*
X131314510Y-99686335D01*
X130885939Y-98733954D02*
X130838320Y-98686335D01*
X130790700Y-98591097D01*
X130790700Y-98353001D01*
X130838320Y-98257763D01*
X130885939Y-98210144D01*
X130981177Y-98162525D01*
X131076415Y-98162525D01*
X131219272Y-98210144D01*
X131790700Y-98781573D01*
X131790700Y-98162525D01*
%TO.C,C3*%
X131637042Y-104880706D02*
X131684661Y-104928325D01*
X131732280Y-105071182D01*
X131732280Y-105166420D01*
X131684661Y-105309278D01*
X131589423Y-105404516D01*
X131494185Y-105452135D01*
X131303709Y-105499754D01*
X131160852Y-105499754D01*
X130970376Y-105452135D01*
X130875138Y-105404516D01*
X130779900Y-105309278D01*
X130732280Y-105166420D01*
X130732280Y-105071182D01*
X130779900Y-104928325D01*
X130827519Y-104880706D01*
X130732280Y-104547373D02*
X130732280Y-103928325D01*
X131113233Y-104261659D01*
X131113233Y-104118801D01*
X131160852Y-104023563D01*
X131208471Y-103975944D01*
X131303709Y-103928325D01*
X131541804Y-103928325D01*
X131637042Y-103975944D01*
X131684661Y-104023563D01*
X131732280Y-104118801D01*
X131732280Y-104404516D01*
X131684661Y-104499754D01*
X131637042Y-104547373D01*
%TO.C,J2*%
D15*
X134940523Y-87433573D02*
X135847666Y-87433573D01*
X136029095Y-87494049D01*
X136150047Y-87615001D01*
X136210523Y-87796430D01*
X136210523Y-87917382D01*
X135061476Y-86889287D02*
X135001000Y-86828811D01*
X134940523Y-86707859D01*
X134940523Y-86405478D01*
X135001000Y-86284525D01*
X135061476Y-86224049D01*
X135182428Y-86163573D01*
X135303380Y-86163573D01*
X135484809Y-86224049D01*
X136210523Y-86949763D01*
X136210523Y-86163573D01*
%TO.C,TP5*%
D10*
X133666356Y-92520824D02*
X134123499Y-92520824D01*
X133894927Y-93320824D02*
X133894927Y-92520824D01*
X134390165Y-93320824D02*
X134390165Y-92520824D01*
X134694927Y-92520824D01*
X134771118Y-92558920D01*
X134809213Y-92597015D01*
X134847308Y-92673205D01*
X134847308Y-92787491D01*
X134809213Y-92863681D01*
X134771118Y-92901777D01*
X134694927Y-92939872D01*
X134390165Y-92939872D01*
X135571118Y-92520824D02*
X135190165Y-92520824D01*
X135152070Y-92901777D01*
X135190165Y-92863681D01*
X135266356Y-92825586D01*
X135456832Y-92825586D01*
X135533022Y-92863681D01*
X135571118Y-92901777D01*
X135609213Y-92977967D01*
X135609213Y-93168443D01*
X135571118Y-93244634D01*
X135533022Y-93282729D01*
X135456832Y-93320824D01*
X135266356Y-93320824D01*
X135190165Y-93282729D01*
X135152070Y-93244634D01*
%TO.C,TP4*%
X131283836Y-93861944D02*
X131740979Y-93861944D01*
X131512407Y-94661944D02*
X131512407Y-93861944D01*
X132007645Y-94661944D02*
X132007645Y-93861944D01*
X132312407Y-93861944D01*
X132388598Y-93900040D01*
X132426693Y-93938135D01*
X132464788Y-94014325D01*
X132464788Y-94128611D01*
X132426693Y-94204801D01*
X132388598Y-94242897D01*
X132312407Y-94280992D01*
X132007645Y-94280992D01*
X133150502Y-94128611D02*
X133150502Y-94661944D01*
X132960026Y-93823849D02*
X132769550Y-94395278D01*
X133264788Y-94395278D01*
%TO.C,TP3*%
X133724776Y-95223384D02*
X134181919Y-95223384D01*
X133953347Y-96023384D02*
X133953347Y-95223384D01*
X134448585Y-96023384D02*
X134448585Y-95223384D01*
X134753347Y-95223384D01*
X134829538Y-95261480D01*
X134867633Y-95299575D01*
X134905728Y-95375765D01*
X134905728Y-95490051D01*
X134867633Y-95566241D01*
X134829538Y-95604337D01*
X134753347Y-95642432D01*
X134448585Y-95642432D01*
X135172395Y-95223384D02*
X135667633Y-95223384D01*
X135400966Y-95528146D01*
X135515252Y-95528146D01*
X135591442Y-95566241D01*
X135629538Y-95604337D01*
X135667633Y-95680527D01*
X135667633Y-95871003D01*
X135629538Y-95947194D01*
X135591442Y-95985289D01*
X135515252Y-96023384D01*
X135286680Y-96023384D01*
X135210490Y-95985289D01*
X135172395Y-95947194D01*
%TO.C,TP2*%
X131400676Y-96346064D02*
X131857819Y-96346064D01*
X131629247Y-97146064D02*
X131629247Y-96346064D01*
X132124485Y-97146064D02*
X132124485Y-96346064D01*
X132429247Y-96346064D01*
X132505438Y-96384160D01*
X132543533Y-96422255D01*
X132581628Y-96498445D01*
X132581628Y-96612731D01*
X132543533Y-96688921D01*
X132505438Y-96727017D01*
X132429247Y-96765112D01*
X132124485Y-96765112D01*
X132886390Y-96422255D02*
X132924485Y-96384160D01*
X133000676Y-96346064D01*
X133191152Y-96346064D01*
X133267342Y-96384160D01*
X133305438Y-96422255D01*
X133343533Y-96498445D01*
X133343533Y-96574636D01*
X133305438Y-96688921D01*
X132848295Y-97146064D01*
X133343533Y-97146064D01*
%TO.C,C2*%
X129998742Y-93943466D02*
X130046361Y-93991085D01*
X130093980Y-94133942D01*
X130093980Y-94229180D01*
X130046361Y-94372038D01*
X129951123Y-94467276D01*
X129855885Y-94514895D01*
X129665409Y-94562514D01*
X129522552Y-94562514D01*
X129332076Y-94514895D01*
X129236838Y-94467276D01*
X129141600Y-94372038D01*
X129093980Y-94229180D01*
X129093980Y-94133942D01*
X129141600Y-93991085D01*
X129189219Y-93943466D01*
X129189219Y-93562514D02*
X129141600Y-93514895D01*
X129093980Y-93419657D01*
X129093980Y-93181561D01*
X129141600Y-93086323D01*
X129189219Y-93038704D01*
X129284457Y-92991085D01*
X129379695Y-92991085D01*
X129522552Y-93038704D01*
X130093980Y-93610133D01*
X130093980Y-92991085D01*
%TO.C,C1*%
X125670582Y-90397626D02*
X125718201Y-90445245D01*
X125765820Y-90588102D01*
X125765820Y-90683340D01*
X125718201Y-90826198D01*
X125622963Y-90921436D01*
X125527725Y-90969055D01*
X125337249Y-91016674D01*
X125194392Y-91016674D01*
X125003916Y-90969055D01*
X124908678Y-90921436D01*
X124813440Y-90826198D01*
X124765820Y-90683340D01*
X124765820Y-90588102D01*
X124813440Y-90445245D01*
X124861059Y-90397626D01*
X125765820Y-89445245D02*
X125765820Y-90016674D01*
X125765820Y-89730960D02*
X124765820Y-89730960D01*
X124908678Y-89826198D01*
X125003916Y-89921436D01*
X125051535Y-90016674D01*
%TO.C,U2*%
X126465080Y-94576804D02*
X127274604Y-94576804D01*
X127369842Y-94529185D01*
X127417461Y-94481566D01*
X127465080Y-94386328D01*
X127465080Y-94195852D01*
X127417461Y-94100614D01*
X127369842Y-94052995D01*
X127274604Y-94005376D01*
X126465080Y-94005376D01*
X126560319Y-93576804D02*
X126512700Y-93529185D01*
X126465080Y-93433947D01*
X126465080Y-93195852D01*
X126512700Y-93100614D01*
X126560319Y-93052995D01*
X126655557Y-93005376D01*
X126750795Y-93005376D01*
X126893652Y-93052995D01*
X127465080Y-93624423D01*
X127465080Y-93005376D01*
%TO.C,R1*%
X121452900Y-93247506D02*
X120976710Y-93580840D01*
X121452900Y-93818935D02*
X120452900Y-93818935D01*
X120452900Y-93437982D01*
X120500520Y-93342744D01*
X120548139Y-93295125D01*
X120643377Y-93247506D01*
X120786234Y-93247506D01*
X120881472Y-93295125D01*
X120929091Y-93342744D01*
X120976710Y-93437982D01*
X120976710Y-93818935D01*
X121452900Y-92295125D02*
X121452900Y-92866554D01*
X121452900Y-92580840D02*
X120452900Y-92580840D01*
X120595758Y-92676078D01*
X120690996Y-92771316D01*
X120738615Y-92866554D01*
%TO.C,H4*%
X138833955Y-83266540D02*
X138833955Y-82266540D01*
X138833955Y-82742731D02*
X139405383Y-82742731D01*
X139405383Y-83266540D02*
X139405383Y-82266540D01*
X140310145Y-82599874D02*
X140310145Y-83266540D01*
X140072050Y-82218921D02*
X139833955Y-82933207D01*
X140453002Y-82933207D01*
%TO.C,H3*%
X138790775Y-110488120D02*
X138790775Y-109488120D01*
X138790775Y-109964311D02*
X139362203Y-109964311D01*
X139362203Y-110488120D02*
X139362203Y-109488120D01*
X139743156Y-109488120D02*
X140362203Y-109488120D01*
X140028870Y-109869073D01*
X140171727Y-109869073D01*
X140266965Y-109916692D01*
X140314584Y-109964311D01*
X140362203Y-110059549D01*
X140362203Y-110297644D01*
X140314584Y-110392882D01*
X140266965Y-110440501D01*
X140171727Y-110488120D01*
X139886013Y-110488120D01*
X139790775Y-110440501D01*
X139743156Y-110392882D01*
%TO.C,H2*%
X104752235Y-110490660D02*
X104752235Y-109490660D01*
X104752235Y-109966851D02*
X105323663Y-109966851D01*
X105323663Y-110490660D02*
X105323663Y-109490660D01*
X105752235Y-109585899D02*
X105799854Y-109538280D01*
X105895092Y-109490660D01*
X106133187Y-109490660D01*
X106228425Y-109538280D01*
X106276044Y-109585899D01*
X106323663Y-109681137D01*
X106323663Y-109776375D01*
X106276044Y-109919232D01*
X105704616Y-110490660D01*
X106323663Y-110490660D01*
%TO.C,H1*%
X104653175Y-83357980D02*
X104653175Y-82357980D01*
X104653175Y-82834171D02*
X105224603Y-82834171D01*
X105224603Y-83357980D02*
X105224603Y-82357980D01*
X106224603Y-83357980D02*
X105653175Y-83357980D01*
X105938889Y-83357980D02*
X105938889Y-82357980D01*
X105843651Y-82500838D01*
X105748413Y-82596076D01*
X105653175Y-82643695D01*
%TO.C,J1*%
D15*
X115189483Y-85762253D02*
X116096626Y-85762253D01*
X116278055Y-85822729D01*
X116399007Y-85943681D01*
X116459483Y-86125110D01*
X116459483Y-86246062D01*
X116459483Y-84492253D02*
X116459483Y-85217967D01*
X116459483Y-84855110D02*
X115189483Y-84855110D01*
X115370912Y-84976062D01*
X115491864Y-85097015D01*
X115552340Y-85217967D01*
%TD*%
M02*
